<svg width="16" height="18" viewBox="0 0 16 18" fill="none" xmlns="http://www.w3.org/2000/svg">
<path d="M10.9551 10.2188C9.99219 10.2188 9.56055 10.75 8 10.75C6.40625 10.75 5.97461 10.2188 5.01172 10.2188C2.55469 10.2188 0.5625 12.2441 0.5625 14.7012V15.5312C0.5625 16.4277 1.25977 17.125 2.15625 17.125H13.8438C14.707 17.125 15.4375 16.4277 15.4375 15.5312V14.7012C15.4375 12.2441 13.4121 10.2188 10.9551 10.2188ZM13.8438 15.5312H2.15625V14.7012C2.15625 13.1074 3.41797 11.8125 5.01172 11.8125C5.50977 11.8125 6.27344 12.3438 8 12.3438C9.69336 12.3438 10.457 11.8125 10.9551 11.8125C12.5488 11.8125 13.8438 13.1074 13.8438 14.7012V15.5312ZM8 9.6875C10.623 9.6875 12.7812 7.5625 12.7812 4.90625C12.7812 2.2832 10.623 0.125 8 0.125C5.34375 0.125 3.21875 2.2832 3.21875 4.90625C3.21875 7.5625 5.34375 9.6875 8 9.6875ZM8 1.71875C9.72656 1.71875 11.1875 3.17969 11.1875 4.90625C11.1875 6.66602 9.72656 8.09375 8 8.09375C6.24023 8.09375 4.8125 6.66602 4.8125 4.90625C4.8125 3.17969 6.24023 1.71875 8 1.71875Z" fill="#8A94A6"/>
</svg>
