<svg width="55" height="26" viewBox="0 0 55 26" fill="none" xmlns="http://www.w3.org/2000/svg">
<path d="M34.9154 12.5003H32.5178V24.9276H40.9253L34.9154 12.5003ZM34.943 12.9397C35.2396 13.5534 40.546 24.5335 40.6572 24.7642H34.9301L34.943 12.9397ZM54.762 12.4888H45.0697V14.6673H48.3587V24.9191H51.4402V14.6673H54.762V12.4888ZM51.2717 24.7516H48.5276V14.6673H51.2717V24.7516Z" fill="#024650"/>
<path d="M40.9178 24.9275H43.3289V12.498H40.9178V24.9275ZM21.8857 12.4971L9.45309 12.5004L15.622 25.041L21.8857 12.4971ZM16.9014 22.0898L12.2702 12.6649H21.6145C21.5031 12.8851 17.3916 21.1105 16.9014 22.0898ZM30.2238 14.6673V12.4888H22.7256V24.9403H30.2238V22.7568H25.966V19.8227H30.2238V17.6437H25.966V14.6674L30.2238 14.6673ZM25.7964 22.7569H22.8955V19.8228H25.7964L25.7964 22.7569ZM25.7964 17.6437H22.8927L22.8952 14.6718H25.7964V17.6437ZM0.531311 24.9445H3.25964L4.25019 22.9666H9.15966L10.1521 24.9445H12.8804L6.70021 12.405L0.531311 24.9445ZM6.70651 18.0672L9.07677 22.7988H4.33437L6.70651 18.0672Z" fill="#024650"/>
<path d="M5.45694 2.2714C5.45694 3.03479 5.08327 3.55494 4.13634 3.55494H3.8378V1.11787C3.94406 1.11268 4.04403 1.11268 4.13629 1.11268C5.03523 1.11268 5.45694 1.53206 5.45694 2.2714ZM4.48706 4.61323C6.17938 4.61323 7.25141 3.75123 7.25141 2.24635C7.25141 0.594746 6.10455 -1.90735e-05 4.23602 -1.90735e-05C3.5147 -1.90735e-05 2.64342 0.0524044 2.0206 0.125854V6.01944H3.8378V4.61318L4.48706 4.61323ZM28.8441 2.27146C28.8441 3.03485 28.4696 3.555 27.5226 3.555H27.2233V1.11792C27.3298 1.11274 27.4295 1.11274 27.5226 1.11274C28.4204 1.11274 28.8441 1.53212 28.8441 2.27146ZM27.8709 4.61323C29.5651 4.61323 30.6352 3.75123 30.6352 2.24635C30.6352 0.594746 29.4905 -1.90735e-05 27.6223 -1.90735e-05C26.8993 -1.90735e-05 26.0286 0.0524044 25.4069 0.125854V6.01944H27.2233V4.61318L27.8709 4.61323ZM33.0032 1.63073C33.0032 1.31189 33.3264 1.1619 33.8491 1.1619C34.4214 1.1619 35.0447 1.28568 35.4675 1.45564L35.318 0.176122C34.8453 0.076694 34.4214 -1.90735e-05 33.6487 -1.90735e-05C32.1795 -1.90735e-05 31.1832 0.57797 31.1832 1.77857C31.1832 3.84769 34.0229 3.42831 34.0229 4.39195C34.0229 4.75996 33.7491 4.95829 33.0773 4.95829C32.4794 4.95829 31.5584 4.75996 31.0083 4.49056L31.2085 5.84761C31.7567 6.04571 32.5029 6.14001 33.1019 6.14001C34.6205 6.14001 35.8652 5.64817 35.8652 4.16846C35.8652 2.19795 33.0032 2.56817 33.0032 1.63073ZM24.0348 0.125854H22.2173V6.01938H24.0348V0.125854ZM16.664 0.125854H14.8455V6.01938H16.664V0.125854ZM19.8274 4.83347V0.125913H18.01V6.01938H21.2955L21.5703 4.83335L19.8274 4.83347ZM13.5004 0.125913H11.6827V2.46874H9.79016V0.125854H7.97214V6.01944H9.79016V3.70061H11.6827V6.01944H13.5004V0.125913Z" fill="#024650"/>
<path d="M6.70662 17.7946L4.16269 22.8765H9.25468L6.70662 17.7946Z" fill="#D2D357"/>
<path d="M12.0969 12.5884L16.8761 22.3143L21.7414 12.5862L12.0969 12.5884Z" fill="#8BAE41"/>
<path d="M22.8137 14.5499V17.7632H25.876V14.5562L22.8137 14.5499ZM22.8159 22.8764H25.876V19.7053H22.8159V22.8764Z" fill="#3E8DC4"/>
<path d="M34.9682 12.819H34.8221L34.8081 24.8397H40.7832L34.9682 12.819Z" fill="#E2A49B"/>
<path d="M48.4466 24.8311H51.3497V14.5499H48.4466V24.8311Z" fill="#E09D38"/>
<path d="M34.9154 12.5003H32.5178V24.9276H40.9253L34.9154 12.5003ZM34.943 12.9397C35.2396 13.5534 40.546 24.5335 40.6572 24.7642H34.9301L34.943 12.9397ZM54.762 12.4888H45.0697V14.6673H48.3587V24.9191H51.4402V14.6673H54.762V12.4888ZM51.2717 24.7516H48.5276V14.6673H51.2717V24.7516Z" fill="#204B92"/>
<path d="M40.9177 24.9275H43.3288V12.498H40.9177V24.9275ZM21.8856 12.4971L9.45296 12.5004L15.6219 25.041L21.8856 12.4971ZM16.9012 22.0898L12.2701 12.6649H21.6144C21.5029 12.8851 17.3915 21.1105 16.9012 22.0898ZM30.2237 14.6673V12.4888H22.7254V24.9403H30.2237V22.7568H25.9659V19.8227H30.2237V17.6437H25.9659V14.6674L30.2237 14.6673ZM25.7962 22.7569H22.8954V19.8228H25.7963L25.7962 22.7569ZM25.7962 17.6437H22.8926L22.8951 14.6718H25.7962V17.6437ZM0.560852 24.9739L3.28918 24.9612L4.27048 22.9772L9.18055 22.9561L10.1828 24.9276L12.91 24.9171L6.67053 12.4048L0.560852 24.9739ZM6.70385 18.0671L9.09507 22.7861L4.35379 22.8094L6.70385 18.0671Z" fill="#204B92"/>
<path d="M5.45694 2.2714C5.45694 3.03479 5.08327 3.55494 4.13634 3.55494H3.8378V1.11787C3.94406 1.11268 4.04403 1.11268 4.13629 1.11268C5.03523 1.11268 5.45694 1.53206 5.45694 2.2714ZM4.48706 4.61323C6.17938 4.61323 7.25141 3.75123 7.25141 2.24635C7.25141 0.594746 6.10455 -1.90735e-05 4.23602 -1.90735e-05C3.5147 -1.90735e-05 2.64342 0.0524044 2.0206 0.125854V6.01944H3.8378V4.61318L4.48706 4.61323ZM28.8441 2.27146C28.8441 3.03485 28.4696 3.555 27.5226 3.555H27.2233V1.11792C27.3298 1.11274 27.4295 1.11274 27.5226 1.11274C28.4204 1.11274 28.8441 1.53212 28.8441 2.27146ZM27.8709 4.61323C29.5651 4.61323 30.6352 3.75123 30.6352 2.24635C30.6352 0.594746 29.4905 -1.90735e-05 27.6223 -1.90735e-05C26.8993 -1.90735e-05 26.0286 0.0524044 25.4069 0.125854V6.01944H27.2233V4.61318L27.8709 4.61323ZM33.0032 1.63073C33.0032 1.31189 33.3264 1.1619 33.8491 1.1619C34.4214 1.1619 35.0447 1.28568 35.4675 1.45564L35.318 0.176122C34.8453 0.076694 34.4214 -1.90735e-05 33.6487 -1.90735e-05C32.1795 -1.90735e-05 31.1832 0.57797 31.1832 1.77857C31.1832 3.84769 34.0229 3.42831 34.0229 4.39195C34.0229 4.75996 33.7491 4.95829 33.0773 4.95829C32.4794 4.95829 31.5584 4.75996 31.0083 4.49056L31.2085 5.84761C31.7567 6.04571 32.5029 6.14001 33.1019 6.14001C34.6205 6.14001 35.8652 5.64817 35.8652 4.16846C35.8652 2.19795 33.0032 2.56817 33.0032 1.63073ZM24.0348 0.125854H22.2173V6.01938H24.0348V0.125854ZM16.664 0.125854H14.8455V6.01938H16.664V0.125854ZM19.8274 4.83347V0.125913H18.01V6.01938H21.2955L21.5703 4.83335L19.8274 4.83347ZM13.5004 0.125913H11.6827V2.46874H9.79016V0.125854H7.97214V6.01944H9.79016V3.70061H11.6827V6.01944H13.5004V0.125913Z" fill="#2D60CA"/>
</svg>
