<svg width="80" height="80" viewBox="0 0 80 80" fill="none" xmlns="http://www.w3.org/2000/svg">
<circle cx="40" cy="40" r="40" fill="#DBF4DE"/>
<path d="M62.7656 40.375C62.7656 27.8906 52.4844 17.6094 40 17.6094C27.4238 17.6094 17.2344 27.8906 17.2344 40.375C17.2344 52.9512 27.4238 63.1406 40 63.1406C52.4844 63.1406 62.7656 52.9512 62.7656 40.375ZM37.3379 52.4922C36.7871 53.043 35.7773 53.043 35.2266 52.4922L25.6797 42.9453C25.1289 42.3945 25.1289 41.3848 25.6797 40.834L27.791 38.8145C28.3418 38.1719 29.2598 38.1719 29.8105 38.8145L36.3281 45.2402L50.0977 31.4707C50.6484 30.8281 51.5664 30.8281 52.1172 31.4707L54.2285 33.4902C54.7793 34.041 54.7793 35.0508 54.2285 35.6016L37.3379 52.4922Z" fill="#39B54A"/>
</svg>
