<svg width="35" height="35" viewBox="0 0 35 35" fill="none" xmlns="http://www.w3.org/2000/svg">
<path d="M16.7256 5.31228H18.6936C18.9172 5.31228 19.0961 5.13338 19.0961 4.90975C19.0961 4.68612 18.9172 4.50722 18.6936 4.50722H16.7256V5.31228ZM16.7256 7.19077H18.7383C19.0066 7.19077 19.1856 7.01186 19.1856 6.74351C19.1856 6.47515 19.0066 6.29625 18.7383 6.29625H16.7256V7.19077ZM19.9012 5.75954C20.1695 6.0279 20.3484 6.3857 20.3484 6.78823C20.3484 7.5933 19.7223 8.21946 18.9172 8.21946H15.6522V3.52325H18.8725C19.6328 3.52325 20.259 4.14941 20.259 4.90975C20.2142 5.22283 20.0801 5.53591 19.9012 5.75954V5.75954ZM20.6615 13.8102H19.4539L19.0961 13.0051H16.4573L16.0995 13.8102H14.8919L17.2176 9.11397H18.291L20.6615 13.8102ZM17.7543 10.3216L16.9493 12.0211H18.5594L17.7543 10.3216ZM19.3645 14.8389H20.7062L18.3358 17.8802V19.5351H17.2176V17.8802L14.8472 14.8389H16.1889L17.7991 16.9857L19.3645 14.8389ZM25.5813 14.8389V15.8676H22.4505V16.6726H25.4919V17.7013H22.4505V18.5958H25.5813V19.6245H21.3324V14.8389H25.5813ZM29.0252 17.746H28.1754V19.5351H27.0573V14.8389H29.9197C30.7248 14.8389 31.351 15.5098 31.351 16.3148C31.351 16.9857 30.9037 17.5224 30.3223 17.7013L31.7088 19.5351H30.367L29.0252 17.746ZM29.8303 15.8228H28.2202V16.7174H29.8303C30.0986 16.7174 30.2775 16.4937 30.2775 16.2701C30.2775 16.0465 30.0539 15.8228 29.8303 15.8228ZM15.3391 19.5351H14.1315L13.7737 18.73H11.1349L10.7771 19.5351H9.56951L11.94 14.8389H13.0134L15.3391 19.5351ZM12.432 16.0465L11.6269 17.746H13.2818L12.432 16.0465ZM5.32057 16.6279H7.2885C7.51213 16.6279 7.69103 16.449 7.69103 16.2254C7.69103 16.0017 7.51213 15.8228 7.2885 15.8228H5.32057V16.6279ZM5.32057 18.5064H7.33323C7.60158 18.5064 7.78048 18.3275 7.78048 18.0591C7.78048 17.7908 7.60158 17.6119 7.33323 17.6119H5.32057V18.5064ZM8.4961 17.0752C8.76445 17.3435 8.94335 17.7013 8.94335 18.1039C8.94335 18.9089 8.31719 19.5351 7.51213 19.5351H4.20242V14.8389H7.42268C8.18302 14.8389 8.80918 15.465 8.80918 16.2254C8.80918 16.5384 8.675 16.8515 8.4961 17.0752V17.0752ZM19.9012 20.519V21.5477H16.7704V22.3528H19.8117V23.3815H16.7704V24.276H19.9012V25.3047H15.6522V20.519H19.9012ZM19.0961 27.8093C19.0961 27.541 18.9172 27.3621 18.6488 27.3621H16.7256V28.2566H18.6488C18.9172 28.2566 19.0961 28.0777 19.0961 27.8093ZM15.6075 31.0743V26.3781H18.7383C19.5434 26.3781 20.1695 27.049 20.1695 27.8541C20.1695 28.4802 19.8117 28.9722 19.275 29.1958L20.7062 31.0743H19.3645L18.0227 29.2853H16.7256V31.0743H15.6075Z" fill="#1B374D"/>
<path d="M34.7053 16.1809C34.1686 7.32515 26.7889 0.258484 17.7543 0.258484C8.71968 0.258484 1.33993 7.32515 0.803223 16.1809C0.803223 16.5387 0.847948 16.8965 0.892674 17.2543C1.25048 20.2062 2.36862 22.9344 4.0682 25.2155C7.15428 29.4197 12.1188 32.1479 17.7543 32.1479C9.88255 32.1479 3.44204 26.0205 2.90533 18.3277C2.86061 17.9699 2.86061 17.6121 2.86061 17.2543C2.86061 16.8965 2.86061 16.5387 2.90533 16.1809C3.44204 8.48802 9.88255 2.36059 17.7543 2.36059C23.3897 2.36059 28.3543 5.08887 31.4404 9.29309C33.1399 11.5741 34.2581 14.3024 34.6159 17.2543C34.6606 17.6121 34.7053 17.9699 34.7053 18.283C34.7053 17.9252 34.7501 17.5674 34.7501 17.2095C34.7501 16.8965 34.7501 16.5387 34.7053 16.1809" fill="#9AD04C"/>
<path d="M0.80321 18.3276C1.33992 27.1833 8.71967 34.2499 17.7543 34.2499C26.7889 34.2499 34.1686 27.1833 34.7053 18.3276C34.7053 17.9698 34.6606 17.612 34.6159 17.2541C34.2581 14.3022 33.1399 11.574 31.4404 9.29297C28.3543 5.08875 23.3897 2.36047 17.7543 2.36047C25.626 2.36047 32.0665 8.4879 32.6032 16.1807C32.648 16.5385 32.648 16.8963 32.648 17.2541C32.648 17.612 32.648 17.9698 32.6032 18.3276C32.0665 26.0651 25.626 32.1478 17.7543 32.1478C12.1188 32.1478 7.15427 29.4196 4.06819 25.2153C2.36861 22.9343 1.25047 20.206 0.892661 17.2541C0.847935 16.8963 0.80321 16.5385 0.80321 16.2255C0.80321 16.5833 0.758484 16.9411 0.758484 17.2989C0.758484 17.612 0.758484 17.9698 0.80321 18.3276Z" fill="#54BAF9"/>
</svg>
