<svg width="229" height="82" viewBox="0 0 229 82" fill="none" xmlns="http://www.w3.org/2000/svg">
<rect x="1" y="1" width="227" height="80" fill="white"/>
<path d="M113.726 29.3123H115.694C115.917 29.3123 116.096 29.1334 116.096 28.9098C116.096 28.6861 115.917 28.5072 115.694 28.5072H113.726V29.3123ZM113.726 31.1908H115.738C116.007 31.1908 116.186 31.0119 116.186 30.7435C116.186 30.4752 116.007 30.2963 115.738 30.2963H113.726V31.1908ZM116.901 29.7595C117.17 30.0279 117.348 30.3857 117.348 30.7882C117.348 31.5933 116.722 32.2195 115.917 32.2195H112.652V27.5233H115.872C116.633 27.5233 117.259 28.1494 117.259 28.9098C117.214 29.2228 117.08 29.5359 116.901 29.7595ZM117.662 37.8102H116.454L116.096 37.0051H113.457L113.099 37.8102H111.892L114.218 33.114H115.291L117.662 37.8102ZM114.754 34.3216L113.949 36.0211H115.559L114.754 34.3216ZM116.364 38.8389H117.706L115.336 41.8802V43.5351H114.218V41.8802L111.847 38.8389H113.189L114.799 40.9857L116.364 38.8389ZM122.581 38.8389V39.8676H119.451V40.6726H122.492V41.7013H119.451V42.5958H122.581V43.6245H118.332V38.8389H122.581ZM126.025 41.746H125.175V43.5351H124.057V38.8389H126.92C127.725 38.8389 128.351 39.5098 128.351 40.3148C128.351 40.9857 127.904 41.5224 127.322 41.7013L128.709 43.5351H127.367L126.025 41.746ZM126.83 39.8228H125.22V40.7174H126.83C127.099 40.7174 127.278 40.4937 127.278 40.2701C127.278 40.0465 127.054 39.8228 126.83 39.8228ZM112.339 43.5351H111.132L110.774 42.73H108.135L107.777 43.5351H106.57L108.94 38.8389H110.013L112.339 43.5351ZM109.432 40.0465L108.627 41.746H110.282L109.432 40.0465ZM102.321 40.6279H104.289C104.512 40.6279 104.691 40.449 104.691 40.2254C104.691 40.0017 104.512 39.8228 104.289 39.8228H102.321V40.6279ZM102.321 42.5064H104.333C104.602 42.5064 104.78 42.3275 104.78 42.0591C104.78 41.7908 104.602 41.6119 104.333 41.6119H102.321V42.5064ZM105.496 41.0752C105.764 41.3435 105.943 41.7013 105.943 42.1039C105.943 42.9089 105.317 43.5351 104.512 43.5351H101.202V38.8389H104.423C105.183 38.8389 105.809 39.465 105.809 40.2254C105.809 40.5384 105.675 40.8515 105.496 41.0752ZM116.901 44.519V45.5477H113.77V46.3528H116.812V47.3815H113.77V48.276H116.901V49.3047H112.652V44.519H116.901ZM116.096 51.8093C116.096 51.541 115.917 51.3621 115.649 51.3621H113.726V52.2566H115.649C115.917 52.2566 116.096 52.0777 116.096 51.8093ZM112.607 55.0743V50.3781H115.738C116.543 50.3781 117.17 51.049 117.17 51.8541C117.17 52.4802 116.812 52.9722 116.275 53.1958L117.706 55.0743H116.364L115.023 53.2853H113.726V55.0743H112.607Z" fill="#1B374D"/>
<path d="M131.705 40.1809C131.169 31.3252 123.789 24.2585 114.754 24.2585C105.72 24.2585 98.3399 31.3252 97.8032 40.1809C97.8032 40.5387 97.8479 40.8965 97.8927 41.2543C98.2505 44.2062 99.3686 46.9344 101.068 49.2155C104.154 53.4197 109.119 56.1479 114.754 56.1479C106.883 56.1479 100.442 50.0205 99.9053 42.3277C99.8606 41.9699 99.8606 41.6121 99.8606 41.2543C99.8606 40.8965 99.8606 40.5387 99.9053 40.1809C100.442 32.488 106.883 26.3606 114.754 26.3606C120.39 26.3606 125.354 29.0889 128.44 33.2931C130.14 35.5741 131.258 38.3024 131.616 41.2543C131.661 41.6121 131.705 41.9699 131.705 42.283C131.705 41.9252 131.75 41.5674 131.75 41.2095C131.75 40.8965 131.75 40.5387 131.705 40.1809Z" fill="#9AD04C"/>
<path d="M97.8032 42.3276C98.3399 51.1833 105.72 58.2499 114.754 58.2499C123.789 58.2499 131.169 51.1833 131.705 42.3276C131.705 41.9698 131.661 41.612 131.616 41.2541C131.258 38.3022 130.14 35.574 128.44 33.293C125.354 29.0887 120.39 26.3605 114.754 26.3605C122.626 26.3605 129.067 32.4879 129.603 40.1807C129.648 40.5385 129.648 40.8963 129.648 41.2541C129.648 41.612 129.648 41.9698 129.603 42.3276C129.067 50.0651 122.626 56.1478 114.754 56.1478C109.119 56.1478 104.154 53.4196 101.068 49.2153C99.3686 46.9343 98.2505 44.206 97.8927 41.2541C97.8479 40.8963 97.8032 40.5385 97.8032 40.2255C97.8032 40.5833 97.7585 40.9411 97.7585 41.2989C97.7585 41.612 97.7585 41.9698 97.8032 42.3276Z" fill="#54BAF9"/>
<rect x="1" y="1" width="227" height="80" stroke="#EDEFF2"/>
</svg>
