<svg width="18" height="18" viewBox="0 0 18 18" fill="none" xmlns="http://www.w3.org/2000/svg">
<path d="M11.8555 9.48828L10.0957 9.25586L9.33203 7.66211C9.26562 7.5293 9.13281 7.46289 8.9668 7.46289C8.83398 7.46289 8.70117 7.5293 8.63477 7.66211L7.87109 9.25586L6.11133 9.48828C5.8125 9.55469 5.67969 9.91992 5.91211 10.1523L7.17383 11.3809L6.875 13.1074C6.8418 13.3398 7.04102 13.5391 7.24023 13.5391C7.30664 13.5391 7.37305 13.5391 7.43945 13.5059L9 12.6758L10.5273 13.5059C10.5938 13.5391 10.6602 13.5391 10.7266 13.5391C10.9258 13.5391 11.125 13.3398 11.0918 13.1074L10.793 11.3809L12.0547 10.1523C12.2871 9.91992 12.1543 9.55469 11.8555 9.48828ZM16.9355 0.125H11.7227C11.3242 0.125 10.9922 0.324219 10.793 0.65625L9 3.67773L7.17383 0.65625C7.00781 0.357422 6.57617 0.125 6.24414 0.125H1.03125C0.599609 0.125 0.333984 0.623047 0.566406 0.988281L4.35156 6.40039C3.28906 7.5293 2.625 9.05664 2.625 10.75C2.625 14.2695 5.48047 17.125 9 17.125C12.4863 17.125 15.375 14.2695 15.375 10.75C15.375 9.05664 14.6777 7.5293 13.6152 6.40039L17.4004 0.988281C17.6328 0.623047 17.3672 0.125 16.9355 0.125ZM3.05664 1.71875H5.94531L7.63867 4.54102C6.9082 4.70703 6.21094 4.97266 5.61328 5.37109L3.05664 1.71875ZM13.7812 10.75C13.7812 13.4062 11.623 15.5312 9 15.5312C6.34375 15.5312 4.21875 13.4062 4.21875 10.75C4.21875 8.12695 6.34375 5.96875 9 5.96875C11.623 5.96875 13.7812 8.12695 13.7812 10.75ZM12.3535 5.37109C11.7559 4.97266 11.0586 4.70703 10.3281 4.54102L12.0215 1.71875H14.9102L12.3535 5.37109Z" fill="#39B54A"/>
</svg>
