<svg width="14" height="15" viewBox="0 0 14 15" fill="none" xmlns="http://www.w3.org/2000/svg">
<path d="M7 0.96875C3.25391 0.96875 0.21875 4.03125 0.21875 7.75C0.21875 11.4961 3.25391 14.5312 7 14.5312C10.7188 14.5312 13.7812 11.4961 13.7812 7.75C13.7812 4.03125 10.7188 0.96875 7 0.96875ZM7 13.2188C3.96484 13.2188 1.53125 10.7852 1.53125 7.75C1.53125 4.74219 3.96484 2.28125 7 2.28125C10.0078 2.28125 12.4688 4.74219 12.4688 7.75C12.4688 10.7852 10.0078 13.2188 7 13.2188ZM9.92578 10.457C9.98047 10.4023 10.0078 10.3203 10.0078 10.2383C10.0078 10.1562 9.98047 10.1016 9.95312 10.0469L9.40625 9.30859C9.29688 9.14453 9.07812 9.11719 8.91406 9.25391C8.66797 9.47266 8.01172 9.99219 7.13672 9.99219C5.71484 9.99219 4.97656 8.84375 4.97656 7.72266C4.97656 6.49219 5.79688 5.50781 7.10938 5.50781C7.92969 5.50781 8.55859 5.94531 8.80469 6.13672C8.94141 6.24609 9.1875 6.21875 9.26953 6.05469L9.78906 5.28906C9.81641 5.23438 9.84375 5.17969 9.84375 5.09766C9.84375 5.01562 9.78906 4.93359 9.73438 4.87891C9.48828 4.63281 8.58594 3.92188 7.05469 3.92188C4.89453 3.92188 3.22656 5.5625 3.22656 7.72266C3.22656 9.91016 4.8125 11.6055 7.08203 11.6055C8.66797 11.6055 9.65234 10.7305 9.92578 10.457Z" fill="#39B54A"/>
</svg>
