<svg width="18" height="17" viewBox="0 0 18 17" fill="none" xmlns="http://www.w3.org/2000/svg">
<path d="M9 0.390625C4.45117 0.390625 0.765625 4.07617 0.765625 8.625C0.765625 13.1738 4.45117 16.8594 9 16.8594C13.5488 16.8594 17.2344 13.1738 17.2344 8.625C17.2344 4.07617 13.5488 0.390625 9 0.390625ZM9 15.2656C5.31445 15.2656 2.35938 12.3105 2.35938 8.625C2.35938 4.97266 5.31445 1.98438 9 1.98438C12.6523 1.98438 15.6406 4.97266 15.6406 8.625C15.6406 12.3105 12.6523 15.2656 9 15.2656ZM11.0254 11.8125C11.2246 11.9453 11.457 11.9121 11.5898 11.7129L12.2207 10.8828C12.3535 10.6836 12.3203 10.4512 12.1211 10.3184L9.92969 8.69141V3.97656C9.92969 3.77734 9.73047 3.57812 9.53125 3.57812H8.46875C8.23633 3.57812 8.07031 3.77734 8.07031 3.97656V9.45508C8.07031 9.55469 8.10352 9.6875 8.20312 9.75391L11.0254 11.8125Z" fill="#39B54A"/>
</svg>
