<svg width="12" height="15" viewBox="0 0 12 15" fill="none" xmlns="http://www.w3.org/2000/svg">
<path d="M6 0.75C3.10156 0.75 0.75 3.12891 0.75 6C0.75 8.10547 1.43359 8.73438 5.45312 14.5039C5.58984 14.668 5.78125 14.75 6 14.75C6.19141 14.75 6.38281 14.668 6.51953 14.5039C10.5391 8.73438 11.25 8.10547 11.25 6C11.25 3.12891 8.87109 0.75 6 0.75ZM6 12.9727C5.58984 12.3984 5.23438 11.8789 4.90625 11.4414C2.33594 7.77734 2.0625 7.33984 2.0625 6C2.0625 3.83984 3.8125 2.0625 6 2.0625C8.16016 2.0625 9.9375 3.83984 9.9375 6C9.9375 7.33984 9.63672 7.77734 7.06641 11.4414C6.73828 11.8789 6.38281 12.3984 6 12.9727ZM4.46875 5.5625C4.82422 5.5625 5.125 5.28906 5.125 4.90625C5.125 4.55078 4.82422 4.25 4.46875 4.25C4.08594 4.25 3.8125 4.55078 3.8125 4.90625C3.8125 5.28906 4.08594 5.5625 4.46875 5.5625ZM7.53125 5.5625C7.88672 5.5625 8.1875 5.28906 8.1875 4.90625C8.1875 4.55078 7.88672 4.25 7.53125 4.25C7.14844 4.25 6.875 4.55078 6.875 4.90625C6.875 5.28906 7.14844 5.5625 7.53125 5.5625ZM7.25781 6.98438C6.60156 7.69531 5.37109 7.69531 4.74219 6.98438C4.49609 6.71094 4.08594 6.68359 3.8125 6.92969C3.53906 7.14844 3.51172 7.58594 3.75781 7.83203C4.30469 8.48828 5.125 8.84375 6 8.84375C6.84766 8.84375 7.66797 8.48828 8.24219 7.83203C8.46094 7.58594 8.43359 7.14844 8.16016 6.92969C7.88672 6.68359 7.47656 6.71094 7.25781 6.98438Z" fill="#050F21"/>
</svg>
