<svg width="40" height="40" viewBox="0 0 40 40" fill="none" xmlns="http://www.w3.org/2000/svg">
<rect width="40" height="40" rx="20" fill="#024650"/>
<path d="M28.2344 19.625C28.2344 15.0762 24.5488 11.3906 20 11.3906C15.4512 11.3906 11.7656 15.0762 11.7656 19.625C11.7656 23.7422 14.7539 27.1621 18.7051 27.7598V22.0156H16.6133V19.625H18.7051V17.832C18.7051 15.7734 19.9336 14.6113 21.793 14.6113C22.7227 14.6113 23.6523 14.7773 23.6523 14.7773V16.8027H22.623C21.5938 16.8027 21.2617 17.4336 21.2617 18.0977V19.625H23.5527L23.1875 22.0156H21.2617V27.7598C25.2129 27.1621 28.2344 23.7422 28.2344 19.625Z" fill="white"/>
</svg>
