<svg width="35" height="30" viewBox="0 0 35 30" fill="none" xmlns="http://www.w3.org/2000/svg">
<path d="M1.14142 8.08275C0.639079 9.07939 0.343048 10.485 0.343048 11.6564C0.343048 13.4423 0.609294 15.0535 1.3797 16.7531C2.68078 19.6227 5.01961 21.2623 8.21528 21.2623C9.10301 21.2623 9.90284 21.1742 10.407 20.9995C10.9093 20.7929 11.4131 20.413 11.4131 19.7093C11.4131 19.3592 11.1462 18.9786 10.7611 18.832C10.3474 18.6857 9.99219 18.6573 8.8967 18.5976C7.8012 18.5383 7.41655 18.5088 6.64759 18.4503C5.43369 18.3342 4.81184 17.5424 4.81184 16.7826C4.81184 16.1076 5.28585 15.5218 6.17358 15.1121C4.98982 14.6722 4.17183 13.5612 4.17183 12.3072C4.17183 10.4876 5.60477 9.07939 7.92325 9.07939C8.42632 9.07939 9.01584 9.19548 9.51782 9.34212C9.93299 9.45965 10.3772 9.54698 10.8501 9.54698C11.4131 9.54698 12.064 9.51823 12.5969 9.37231V10.5433C12.3009 10.485 11.3536 10.4257 10.8501 10.4257C11.3245 10.9537 11.5897 11.6858 11.5897 12.3888C11.5897 14.0292 10.2882 15.4043 7.97991 15.4043C7.78159 15.4043 7.56656 15.3949 7.31666 15.3669C7.0762 15.414 6.8579 15.5168 6.68936 15.6541C6.43728 15.8553 6.32178 16.1155 6.32178 16.3413C6.32178 16.7229 6.52882 17.0159 7.47575 17.0744L9.51782 17.1916C11.5014 17.3091 12.5671 18.1006 12.5373 19.5044C12.4781 21.1156 11.176 22.2877 8.03839 22.2877C7.20914 22.2877 6.11474 22.1418 5.13729 21.8474C4.42718 21.644 3.74613 21.2623 3.15479 20.8231C5.81798 25.3333 10.5537 29.2286 16.0298 29.2286C18.6937 29.2286 20.9733 28.2912 23.1047 26.74C28.1946 22.9907 34.6474 14.5848 34.6474 8.05436C34.6474 3.16352 31.0663 0.995566 26.5663 0.292203C24.939 0.0294746 23.4585 4.52897e-06 21.8312 4.52897e-06C15.0244 4.52897e-06 4.51617 1.17168 1.14142 8.08275V8.08275ZM21.1204 16.021V7.90736C21.1204 6.58977 21.0329 6.00393 20.7655 5.65171L22.808 5.12482V12.975L25.5017 10.485C25.5017 10.485 26.0345 10.0164 26.5071 9.40142H28.8466C28.7282 9.43089 28.3134 9.51823 26.8329 10.8948L24.3172 13.237C24.3172 13.237 25.8275 14.9949 27.2481 16.5476C28.3432 17.7203 29.1721 18.0696 29.6751 18.0696C29.7641 18.0696 29.8822 18.0409 29.9712 18.0107C29.5266 18.3342 28.876 18.5088 28.1648 18.5088C27.2481 18.5088 26.478 18.0107 25.5314 16.8983C24.0219 15.1121 22.808 13.677 22.808 13.677V16.021C22.808 17.6596 22.897 17.9234 23.0451 18.3047H20.8545C21.0329 17.8364 21.1204 17.6596 21.1204 16.021V16.021ZM18.0726 16.3711C18.0726 15.4043 17.0366 14.9363 15.9114 14.4083C14.6695 13.8225 13.3364 13.1792 13.3364 11.6858C13.3364 9.86973 15.1119 9.07939 16.7112 9.07939C17.5695 9.07939 18.4282 9.2839 19.167 9.69398V11.0119C18.4565 10.4552 17.5985 10.1335 16.6814 10.1335C15.7922 10.1335 14.935 10.485 14.935 11.2747C14.935 12.2116 16.0603 12.7403 17.2429 13.3254C18.4866 13.9418 19.7881 14.6438 19.7881 15.9901C19.7881 17.9528 17.8063 18.6271 16.1485 18.6271C15.1119 18.6271 14.1951 18.4219 13.2474 18.0409V16.6942C14.2249 17.22 15.4373 17.5424 16.207 17.5424C17.0366 17.5424 18.0726 17.3375 18.0726 16.3711V16.3711ZM5.7882 12.0646C5.7882 13.4121 6.58112 14.4662 8.03149 14.4662C9.30424 14.4662 9.96241 13.6119 9.96241 12.4097C9.96241 11.0924 9.19927 10.0455 7.77941 10.0455C6.53536 10.0455 5.7882 10.8635 5.7882 12.0646" fill="url(#paint0_radial_915_387)"/>
<defs>
<radialGradient id="paint0_radial_915_387" cx="0" cy="0" r="1" gradientUnits="userSpaceOnUse" gradientTransform="translate(23.5 7.875) rotate(-143.973) scale(5.10055 4.0752)">
<stop stop-color="#E3BA42"/>
<stop offset="1" stop-color="#E6742E"/>
</radialGradient>
</defs>
</svg>
