<svg width="121" height="48" viewBox="0 0 121 48" fill="none" xmlns="http://www.w3.org/2000/svg">
<path d="M95.8441 28.0257C95.8441 27.7914 95.6669 27.5862 95.4297 27.5862C95.1939 27.5862 94.9862 27.7914 94.9862 28.0257C94.9862 28.2576 95.1939 28.4348 95.4297 28.4348C95.6669 28.4348 95.8441 28.2576 95.8441 28.0257Z" fill="#999999"/>
<path d="M80.4261 28.0257C80.4261 27.7914 80.2198 27.5862 79.9819 27.5862C79.7454 27.5862 79.5689 27.7914 79.5689 28.0257C79.5689 28.2576 79.7454 28.4348 79.9819 28.4348C80.2198 28.4348 80.4261 28.2576 80.4261 28.0257Z" fill="#999999"/>
<path d="M104.572 31.5075C104.58 31.4493 104.582 31.363 104.582 31.2958C104.582 30.1141 104.164 29.2537 102.869 29.2537C101.745 29.2537 101.065 30.1029 101.065 31.275C101.065 32.5922 101.656 33.4393 103.077 33.4393C103.756 33.4393 103.993 33.2931 104.26 33.1773V32.4448C104.082 32.5922 103.609 32.8546 103.106 32.8546C102.396 32.8546 101.863 32.2968 101.863 31.5075H104.572ZM103.786 30.9515H101.863C101.922 30.4537 102.13 29.8388 102.869 29.8388C103.52 29.8388 103.786 30.3362 103.786 30.9515Z" fill="black"/>
<path d="M100.355 33.3526V30.9794C100.355 29.898 99.9108 29.2539 98.8749 29.2539C98.3133 29.2539 97.8099 29.5166 97.6039 29.986H97.5741V29.3427H96.8633V33.3526H97.6039V31.5074C97.6039 30.5118 97.9287 29.8099 98.7873 29.839C99.4382 29.8692 99.6148 30.3361 99.6148 31.2749V33.3526H100.355Z" fill="black"/>
<path d="M95.0451 33.3528H95.7853V29.3426H95.0451V33.3528Z" fill="black"/>
<path d="M94.3132 33.3218C94.0171 33.2345 93.9583 33.0303 93.9583 32.7665V27.7912H93.1883V32.8546C93.1883 33.2345 93.3666 33.4393 93.7796 33.4393C94.0469 33.4393 94.1944 33.3804 94.3132 33.3218Z" fill="black"/>
<path d="M92.7177 33.3533L90.3901 30.4795L92.5168 27.881H91.6066L89.6542 30.3113V27.881H88.878V33.3533H89.6542V30.6901L91.6955 33.3533H92.7177Z" fill="black"/>
<path d="M87.7659 33.3526V30.9794C87.7659 29.898 87.3216 29.2539 86.2868 29.2539C85.7242 29.2539 85.3112 29.489 85.0438 29.9281H85.0141V27.7911H84.276V33.3526H85.0141V31.5074C85.0141 30.5118 85.341 29.8099 86.1989 29.839C86.8495 29.8692 87.026 30.3361 87.026 31.2749V33.3526H87.7659Z" fill="black"/>
<path d="M83.5809 33.3218V32.7079C83.4633 32.7665 83.3147 32.8546 83.0779 32.8546C82.7234 32.8546 82.4564 32.5922 82.4564 32.1228V29.9283H83.4633V29.3428H82.4564V28.1711L81.7176 28.4044V29.3428H81.0056V29.9283H81.7176V32.2695C81.7176 33.0885 82.1905 33.4393 82.9598 33.4393C83.1956 33.4393 83.4327 33.3804 83.5809 33.3218Z" fill="black"/>
<path d="M79.5977 33.3528H80.3365V29.3426H79.5977V33.3528Z" fill="black"/>
<path d="M78.5944 33.3526V30.7753C78.5944 29.898 78.2101 29.2539 77.176 29.2539C76.8204 29.2539 76.1993 29.458 75.9327 30.0148C75.726 29.489 75.2531 29.2539 74.779 29.2539C74.1873 29.2539 73.7733 29.458 73.4772 29.9281V29.3427H72.7664V33.3526H73.5077V31.3327C73.5077 30.5715 73.8328 29.839 74.5727 29.839C75.1928 29.839 75.3119 30.454 75.3119 30.9514V33.3526H76.0507V31.3327C76.0507 30.5715 76.3467 29.839 77.1157 29.839C77.707 29.839 77.8258 30.454 77.8258 30.9514V33.3526H78.5944Z" fill="black"/>
<path d="M72.1254 31.8297C72.1254 30.7173 71.1781 30.3949 70.3503 30.0146C70.201 29.9575 70.0543 29.8978 69.9359 29.8098C69.6987 29.6646 69.5214 29.4579 69.5214 29.1657C69.5214 28.5806 70.1131 28.4045 70.6162 28.4045C71.0099 28.4045 71.4371 28.5267 71.7404 28.6399L71.8592 27.9962C71.4451 27.8496 70.9714 27.7612 70.5864 27.7612C69.4615 27.7612 68.6341 28.2877 68.6341 29.2538C68.6341 30.3083 69.6689 30.5714 70.4088 30.9232C70.8232 31.0975 71.2965 31.361 71.2965 31.8599C71.2965 32.5618 70.5566 32.7958 70.0841 32.7958C69.6395 32.7958 69.095 32.6581 68.7815 32.5323L68.7234 33.2342C69.0456 33.3359 69.5832 33.4395 69.95 33.4395C71.1625 33.4395 72.1254 32.9715 72.1254 31.8297Z" fill="black"/>
<path d="M63.9354 33.3526L62.6329 31.2436L63.8174 29.3427H62.958L62.1901 30.7753L61.4204 29.3427H60.504L61.687 31.2436L60.3558 33.3526H61.2425L62.1313 31.7712L63.0175 33.3526H63.9354Z" fill="black"/>
<path d="M55.9325 33.3218C55.6365 33.2345 55.5769 33.0303 55.5769 32.7665V27.7912H54.8083V32.8546C54.8083 33.2345 54.9856 33.4393 55.4004 33.4393C55.6663 33.4393 55.8425 33.3804 55.9325 33.3218Z" fill="black"/>
<path d="M53.8926 33.205V30.8146H53.0935V32.6483C52.8864 32.7069 52.7397 32.7371 52.2065 32.7371C51.0529 32.7371 50.1067 31.8878 50.1067 30.5997C50.1067 29.3691 50.9642 28.4641 52.2355 28.4641C52.9166 28.4641 53.4487 28.6391 53.7731 28.8432L53.8334 28.0525C53.3608 27.8779 53.0052 27.7603 52.2065 27.7603C50.52 27.7603 49.2778 28.9011 49.2778 30.5706C49.2778 32.3266 50.4317 33.4383 52.1771 33.4383C53.0644 33.4383 53.5671 33.292 53.8926 33.205Z" fill="black"/>
<path d="M67.2623 31.3327C67.2623 32.063 66.9961 32.8545 66.1381 32.8545C65.2507 32.8545 64.9848 32.063 64.9848 31.3327C64.9848 30.5715 65.3103 29.839 66.1381 29.839C66.9067 29.839 67.2623 30.5715 67.2623 31.3327ZM68.0607 31.3327C68.0607 30.1312 67.3513 29.2539 66.1381 29.2539C64.8959 29.2539 64.1857 30.1312 64.1857 31.3327C64.1857 32.504 64.8959 33.4392 66.1381 33.4392C67.3513 33.4392 68.0607 32.504 68.0607 31.3327Z" fill="black"/>
<path d="M59.0022 31.7995C59.0022 32.3864 58.6768 32.8547 57.9372 32.8547C57.6114 32.8547 57.2569 32.6204 57.2569 32.1808C57.2569 31.4785 58.1741 31.4199 58.5584 31.4199C58.736 31.4199 58.8537 31.4501 59.0022 31.4501V31.7995ZM59.8009 33.3525C59.7712 33.2342 59.7712 33.0304 59.7712 32.5618V30.8934C59.7712 29.8098 59.3571 29.2538 58.2031 29.2538C57.6703 29.2538 57.2867 29.399 56.9024 29.6351L56.9609 30.2493C57.2569 30.0146 57.6412 29.8389 58.0851 29.8389C58.825 29.8389 59.0022 30.19 59.0022 30.8934C58.7062 30.8636 58.5289 30.8636 58.2325 30.8636C57.4639 30.8636 56.4578 31.1856 56.4578 32.1808C56.4578 33.0588 57.0201 33.4395 57.8773 33.4395C58.5584 33.4395 58.9132 33.0588 59.0611 32.8252H59.0916V33.3525H59.8009Z" fill="black"/>
<path d="M17.1414 17.0828C16.6391 18.0794 16.343 19.485 16.343 20.6564C16.343 22.4423 16.6093 24.0535 17.3797 25.7531C18.6808 28.6227 21.0196 30.2623 24.2153 30.2623C25.103 30.2623 25.9028 30.1742 26.407 29.9995C26.9093 29.7929 27.4131 29.413 27.4131 28.7093C27.4131 28.3592 27.1462 27.9786 26.7611 27.832C26.3474 27.6857 25.9922 27.6573 24.8967 27.5976C23.8012 27.5383 23.4165 27.5088 22.6476 27.4503C21.4337 27.3342 20.8118 26.5424 20.8118 25.7826C20.8118 25.1076 21.2859 24.5218 22.1736 24.1121C20.9898 23.6722 20.1718 22.5612 20.1718 21.3072C20.1718 19.4876 21.6048 18.0794 23.9232 18.0794C24.4263 18.0794 25.0158 18.1955 25.5178 18.3421C25.933 18.4596 26.3772 18.547 26.8501 18.547C27.4131 18.547 28.064 18.5182 28.5969 18.3723V19.5433C28.3009 19.485 27.3536 19.4257 26.8501 19.4257C27.3245 19.9537 27.5897 20.6858 27.5897 21.3888C27.5897 23.0292 26.2882 24.4043 23.9799 24.4043C23.7816 24.4043 23.5666 24.3949 23.3167 24.3669C23.0762 24.414 22.8579 24.5168 22.6894 24.6541C22.4373 24.8553 22.3218 25.1155 22.3218 25.3413C22.3218 25.7229 22.5288 26.0159 23.4758 26.0744L25.5178 26.1916C27.5014 26.3091 28.5671 27.1006 28.5373 28.5044C28.4781 30.1156 27.176 31.2877 24.0384 31.2877C23.2091 31.2877 22.1147 31.1418 21.1373 30.8474C20.4272 30.644 19.7461 30.2623 19.1548 29.8231C21.818 34.3333 26.5537 38.2286 32.0298 38.2286C34.6937 38.2286 36.9733 37.2912 39.1047 35.74C44.1946 31.9907 50.6474 23.5848 50.6474 17.0544C50.6474 12.1635 47.0663 9.99557 42.5663 9.2922C40.939 9.02947 39.4585 9 37.8312 9C31.0244 9 20.5162 10.1717 17.1414 17.0828ZM37.1204 25.021V16.9074C37.1204 15.5898 37.0329 15.0039 36.7655 14.6517L38.808 14.1248V21.975L41.5017 19.485C41.5017 19.485 42.0345 19.0164 42.5071 18.4014H44.8466C44.7282 18.4309 44.3134 18.5182 42.8329 19.8948L40.3172 22.237C40.3172 22.237 41.8275 23.9949 43.2481 25.5476C44.3432 26.7203 45.1721 27.0696 45.6751 27.0696C45.7641 27.0696 45.8822 27.0409 45.9712 27.0107C45.5266 27.3342 44.876 27.5088 44.1648 27.5088C43.2481 27.5088 42.478 27.0107 41.5314 25.8983C40.0219 24.1121 38.808 22.677 38.808 22.677V25.021C38.808 26.6596 38.897 26.9234 39.0451 27.3047H36.8545C37.0329 26.8364 37.1204 26.6596 37.1204 25.021ZM34.0726 25.3711C34.0726 24.4043 33.0366 23.9363 31.9114 23.4083C30.6695 22.8225 29.3364 22.1792 29.3364 20.6858C29.3364 18.8697 31.1119 18.0794 32.7112 18.0794C33.5695 18.0794 34.4282 18.2839 35.167 18.694V20.0119C34.4565 19.4552 33.5985 19.1335 32.6814 19.1335C31.7922 19.1335 30.935 19.485 30.935 20.2747C30.935 21.2116 32.0603 21.7403 33.2429 22.3254C34.4866 22.9418 35.7881 23.6438 35.7881 24.9901C35.7881 26.9528 33.8063 27.6271 32.1485 27.6271C31.1119 27.6271 30.1951 27.4219 29.2474 27.0409V25.6942C30.2249 26.22 31.4373 26.5424 32.207 26.5424C33.0366 26.5424 34.0726 26.3375 34.0726 25.3711ZM21.7882 21.0646C21.7882 22.4121 22.5811 23.4662 24.0315 23.4662C25.3042 23.4662 25.9624 22.6119 25.9624 21.4097C25.9624 20.0924 25.1993 19.0455 23.7794 19.0455C22.5354 19.0455 21.7882 19.8635 21.7882 21.0646Z" fill="url(#paint0_radial_915_350)"/>
<defs>
<radialGradient id="paint0_radial_915_350" cx="0" cy="0" r="1" gradientUnits="userSpaceOnUse" gradientTransform="translate(39.5 16.875) rotate(-143.973) scale(5.10055 4.0752)">
<stop stop-color="#E3BA42"/>
<stop offset="1" stop-color="#E6742E"/>
</radialGradient>
</defs>
</svg>
