<svg width="52" height="32" viewBox="0 0 52 32" fill="none" xmlns="http://www.w3.org/2000/svg">
<path fill-rule="evenodd" clip-rule="evenodd" d="M48.2829 3.60991C50.0268 5.1552 51.2321 7.45392 51.4606 10.8083C52.4188 24.883 35.7393 34.3288 19.0735 31.4665C2.40913 28.6052 -2.66406 18.2394 1.86595 9.66987C7.26024 -0.534328 22.1515 5.1964 22.1515 5.1964C22.1515 5.1964 25.9563 3.17925 29.1724 2.19709C31.6218 1.44939 42.7116 -1.326 48.2829 3.60991ZM32.2493 14.2971C32.7117 14.5767 32.7308 14.8436 32.7308 14.8436C32.8028 15.0666 32.2724 15.7857 32.0764 15.9882C31.8944 16.1864 31.567 16.3339 31.2235 16.1484C31.1284 16.0985 31.047 16.0548 30.9757 16.0166C30.8155 15.9307 30.7059 15.8719 30.605 15.8308C30.4625 15.7735 29.9886 15.7567 29.5511 15.9699C29.112 16.18 28.7253 17.0564 28.7944 17.7561C28.8574 18.4158 29.0765 18.6215 29.2798 18.8123L29.3154 18.8458C29.5245 19.0468 30.0254 19.1192 30.2717 19.1174C30.5135 19.1192 30.513 18.9748 30.5126 18.862L30.5126 18.8486C30.5135 18.734 30.4374 18.6668 30.3967 18.6705L30.3897 18.67C30.3415 18.6672 30.2106 18.6596 30.042 18.526C29.77 18.3114 29.7521 17.9284 29.7418 17.7059L29.7412 17.694C29.7285 17.4734 29.7555 17.2419 29.9014 17.0583C30.0452 16.8765 30.2927 16.7919 30.4387 16.7882L30.5332 16.7882H30.5332C30.8261 16.7882 31.6128 16.7881 31.9128 16.8109C32.5591 16.8647 32.7232 17.1593 32.8361 17.3731C32.9231 17.5394 32.9225 17.7302 32.9225 17.7302C32.9225 17.7302 32.938 19.0898 32.9495 19.3771C32.961 19.6659 32.9299 19.9512 32.837 20.1237C32.6456 20.4737 32.3982 20.8164 31.3822 21.0231C30.3663 21.2273 29.422 21.24 28.7676 21.0131C27.9249 20.7211 27.2515 20.2067 26.7196 19.5224C26.7196 19.5224 26.8121 19.1564 26.8587 18.8207C26.8696 18.7417 26.8828 18.6554 26.8971 18.5627L26.8971 18.5625C26.9615 18.1436 27.0462 17.5929 27.0235 16.9888C27.0076 16.56 26.3643 16.3159 26.3643 16.3159C26.5915 15.3851 27.4798 14.4972 27.8214 14.2968C28.1651 14.0946 28.8003 13.7761 30.1 13.7719C31.3581 13.7676 31.7602 14.0065 32.2019 14.269L32.2493 14.2971ZM35.7398 20.0088L35.7121 14.6609C35.7121 14.6609 35.7184 14.3104 35.5325 14.1088C35.3511 13.9083 35.2403 13.8673 34.9707 13.8581C34.7019 13.8479 34.1652 13.8518 34.0395 13.8599C33.9154 13.8701 33.5863 13.9268 33.4273 14.1724C33.2978 14.3675 33.263 14.5448 33.2601 15.2632C33.2525 15.9826 33.3244 19.9195 33.3244 19.9195C33.3244 19.9195 33.3162 20.2942 33.3757 20.45C33.4321 20.6028 33.6553 20.7947 33.75 20.8603C33.8463 20.9263 34.0382 20.9808 34.4233 20.9922C34.805 20.9989 35.1379 20.9967 35.3321 20.854C35.5198 20.706 35.7482 20.4899 35.7398 20.0088ZM40.5877 14.2198C40.702 14.59 40.6272 15.209 40.6272 15.209C40.5912 15.6448 40.0552 15.6271 40.0552 15.6271L38.5517 15.6315L38.5521 16.4505C38.5521 16.4505 39.2833 16.4452 39.5039 16.4588C40.0273 16.4906 40.0307 16.9255 40.0307 16.9255C40.0307 16.9255 40.0621 17.5018 40.0547 17.6407C40.0471 17.7856 39.9974 17.9611 39.8355 18.1128C39.6746 18.2661 39.4439 18.2611 39.4439 18.2611H38.5554L38.5744 19.1653C38.5744 19.1653 39.934 19.1653 40.021 19.1758C40.439 19.2026 40.5592 19.3005 40.6657 19.4629C40.7555 19.6017 40.755 19.9184 40.7547 20.0656C40.7547 20.0901 40.7547 20.1099 40.7551 20.1234C40.7551 20.218 40.7514 20.5294 40.6126 20.7313C40.4249 21.0018 39.9556 20.9835 39.9556 20.9835C39.9556 20.9835 37.719 20.9874 37.4507 20.9868C37.1823 20.9922 36.9517 20.9611 36.9138 20.9526L36.9098 20.9517L36.902 20.95L36.9019 20.9499C36.8454 20.9379 36.673 20.9011 36.4423 20.6293C36.234 20.3815 36.2387 20.1548 36.2411 20.0354V20.0354V20.0353C36.2416 20.0115 36.242 19.9919 36.2406 19.9773C36.2333 19.924 36.2363 19.7114 36.2398 19.4711V19.4708V19.4707V19.4705V19.4704L36.2398 19.4699C36.2421 19.3096 36.2446 19.1372 36.2443 18.9915C36.245 18.6269 36.2125 16.1941 36.1902 15.5042C36.1702 14.8116 36.1687 14.428 36.3117 14.2081C36.4549 13.9857 36.7784 13.8702 37.0108 13.8503C37.1414 13.8379 37.4814 13.8359 37.9407 13.8333H37.9408H37.9408H37.9408H37.9409H37.9409H37.9409H37.941H37.941H37.941H37.9411H37.9412C38.2883 13.8314 38.7035 13.829 39.1481 13.8215C40.1829 13.8096 40.5038 13.9425 40.5877 14.2198ZM43.4469 15.6083C43.4469 15.6083 43.5997 15.2364 44.1573 15.3387C44.6979 15.4391 45.0031 15.634 45.1076 15.7278C45.2098 15.8239 45.3959 15.9955 45.5658 15.9253C45.7384 15.8601 45.826 15.7639 45.8542 15.5508C45.8808 15.34 45.8605 14.6812 45.8605 14.6812C45.8605 14.6812 45.8794 14.3708 45.653 14.174C45.4834 14.0201 44.9064 13.6935 43.823 13.7292C42.7417 13.7593 41.8316 13.8993 41.2607 15.061C41.2607 15.061 41.0617 15.4647 41.0647 15.9253C41.0649 15.9794 41.0647 16.0306 41.0646 16.0793C41.0637 16.444 41.0631 16.6705 41.2119 16.931C41.4164 17.2885 41.6941 17.5155 41.7388 17.5512C41.7876 17.5898 42.1708 17.8279 42.3142 17.9138C42.375 17.9497 42.5658 18.043 42.7827 18.1489L42.7828 18.149C43.0804 18.2944 43.4272 18.4638 43.5546 18.542C43.7757 18.6736 44.0054 18.8696 43.8772 19.1487C43.7916 19.3304 43.5598 19.424 43.1169 19.2627C42.7675 19.1331 42.5236 18.9566 42.3969 18.865L42.3969 18.865C42.3642 18.8413 42.3393 18.8233 42.3225 18.8132L42.3088 18.8056L42.297 18.799C42.1961 18.7418 41.9982 18.6297 41.7233 18.6835C41.4477 18.7372 41.1697 19.3719 41.09 19.5538L41.09 19.5538L41.0752 19.5874C40.9573 19.8444 40.9651 20.0273 41.0247 20.1799C41.0802 20.3327 41.4948 20.6203 41.686 20.7057C41.707 20.7149 41.7335 20.7281 41.7658 20.7442C42.0267 20.8741 42.6629 21.1909 43.8059 21.0998C45.0873 20.9978 45.7534 20.1145 45.9272 19.7209C46.0953 19.3263 46.2147 18.8171 46.1425 18.302C46.0706 17.7832 45.6695 17.1724 45.1304 16.8779C44.8237 16.7088 44.4775 16.5564 44.2018 16.435L44.2018 16.435L44.2017 16.435C43.9961 16.3444 43.8297 16.2712 43.7482 16.2211C43.5563 16.1049 43.3913 15.907 43.4469 15.6083ZM10.8233 20.9066C10.9742 21.0122 11.145 21.0847 11.3438 21.0845L12.5659 21.0863C13.037 21.0815 13.4154 20.6958 13.4125 20.2257L13.4102 19.1634L13.3866 13.5884L13.3833 12.3751C13.3814 12.1383 13.2811 11.9201 13.1211 11.7667V11.7608C12.9103 11.535 12.7236 11.5386 12.6426 11.5402H12.6426L12.6304 11.5404L12.6244 11.5404L12.6176 11.5402L11.4777 11.5426C10.3622 11.5677 10.3588 12.0608 10.3531 12.8837C10.3523 13.0024 10.3514 13.128 10.3472 13.2601L10.3507 13.5095C10.3507 13.5095 10.3573 14.8078 10.3564 14.9541L10.029 14.9552H10.0281L10.0231 14.9552C9.63625 14.9564 9.03507 14.9581 8.68587 14.9608C8.68402 14.1924 8.67737 12.3951 8.67737 12.3951C8.67608 12.1571 8.67349 12.066 8.53862 11.8475L8.48356 11.7937L8.43774 11.7459C8.36938 11.6816 8.23802 11.6182 8.15784 11.596C7.95009 11.5327 7.54332 11.5442 7.07164 11.5575C6.96401 11.5606 6.853 11.5637 6.74021 11.5661C5.62582 11.5927 5.6224 12.0861 5.61673 12.9038C5.6159 13.0234 5.61503 13.15 5.61062 13.283L5.67602 19.755L5.68951 20.2841C5.68951 20.2841 5.68748 20.6509 6.08285 20.9315C6.23583 21.0359 6.40451 21.1107 6.60534 21.1078L7.85983 21.1037C8.32837 21.0994 8.71044 20.7148 8.70822 20.244C8.70822 20.244 8.69621 17.6111 8.69732 17.4675C8.73774 17.4664 9.08012 17.4651 9.46217 17.4636L9.46255 17.4636C9.80863 17.4623 10.1872 17.4608 10.4034 17.4592C10.4104 18.2806 10.4118 19.6262 10.4118 19.6262L10.4148 19.7284L10.4303 20.2594C10.4303 20.2594 10.4222 20.6267 10.8233 20.9066ZM19.7375 14.4161C19.7548 14.4957 19.8374 15.1397 19.8145 15.6087C19.7911 16.0768 19.8101 18.658 19.8101 18.658C19.8064 19.3004 19.5668 19.8806 19.1075 20.3376C18.5467 20.9 17.7275 21.2076 16.7997 21.2014C16.3877 21.2027 15.4393 21.0937 14.7053 20.5527C14.3598 20.2999 14.1664 19.9931 14.0566 19.781C13.9502 19.5654 13.8353 18.9281 13.8334 18.7482C13.8334 18.6957 13.8293 18.4511 13.8237 18.124C13.8106 17.362 13.79 16.1522 13.7967 15.8815C13.799 15.7945 13.7953 15.6834 13.7911 15.5594L13.7911 15.5594V15.5593V15.5593C13.7767 15.134 13.7573 14.5571 13.9604 14.2806C14.2064 13.9506 14.5069 13.9398 15.0096 13.9217L15.1258 13.9174C15.6997 13.896 15.9317 14.0846 15.9317 14.0846L15.9345 14.0856L15.9363 14.0862C15.9373 14.0866 15.9382 14.087 15.9389 14.0875L15.9398 14.0884L15.9409 14.0902L15.9486 14.0973L15.9598 14.1075L15.9672 14.114C15.9672 14.114 15.9879 14.1208 15.9879 14.1227C16.1628 14.2769 16.248 14.4957 16.2499 14.7433C16.248 14.7763 16.2637 18.5082 16.2643 18.5219C16.2643 18.5219 16.2896 19.1127 16.827 19.111C17.366 19.1081 17.3819 18.6033 17.3711 18.5161L17.3358 15.8771C17.3392 15.7864 17.3355 15.6696 17.3314 15.5393V15.5393V15.5392V15.5392V15.5391V15.5391V15.5391V15.539C17.318 15.116 17.3002 14.5509 17.5021 14.2769C17.7509 13.943 18.0475 13.9334 18.5539 13.9171L18.6624 13.9135C19.2412 13.893 19.4812 14.0839 19.4803 14.0865C19.4803 14.0865 19.7046 14.2348 19.7375 14.4161ZM26.4019 19.3737C26.5107 18.8414 26.6748 17.4921 26.6748 17.4921C26.784 16.6454 26.1039 16.4996 26.1039 16.4996C26.1039 16.4996 25.4659 16.335 24.6207 16.1892C24.2229 16.12 24.0324 16.0983 23.8244 16.2593C23.6187 16.4209 23.5526 16.8488 23.5238 17.0373C23.4959 17.2285 23.4549 17.6678 23.7137 17.855C23.9068 17.9882 24.0605 18.0043 24.0605 18.0043C24.0605 18.0043 24.1246 18.003 24.1063 18.1547L24.106 18.1577C24.0878 18.3108 24.0699 18.4614 23.8488 18.434C23.6332 18.4067 23.1759 18.2463 23.0155 18.0843C23.0155 18.0843 22.6126 17.8338 22.5897 17.0979C22.5651 16.3601 22.9494 15.7061 23.2274 15.4364C23.5035 15.1663 24.057 15.0295 24.4494 15.1443C24.8415 15.2588 25.1332 15.5247 25.1997 15.6019C25.2693 15.6788 25.3715 15.773 25.613 15.8123C25.8517 15.8467 26.1115 15.6198 26.1508 15.5592C26.1574 15.5491 26.1844 15.5187 26.2242 15.4739C26.4044 15.271 26.8478 14.7719 26.854 14.513C26.8608 14.1823 26.5006 13.8275 26.177 13.6404C26.1301 13.6129 26.084 13.5838 26.0365 13.5537C25.7082 13.346 25.3098 13.094 24.0468 13.0414C22.6079 12.9778 21.6105 13.5729 21.09 14.0489C20.5727 14.525 20.0914 15.393 20.0375 16.5676C19.985 17.7434 20.3037 18.5776 20.9479 19.2203C21.5979 19.8648 22.0832 20.1964 23.2616 20.4002C24.4398 20.6051 25.227 20.4113 25.6038 20.2777C25.9834 20.1426 26.2861 19.9025 26.4019 19.3737ZM41.7554 12.8485C41.9079 12.8485 41.9637 12.8038 41.9637 12.6943C41.9637 12.5945 41.9001 12.5452 41.7599 12.5452H41.519V12.8485H41.7554ZM41.7499 12.4367C41.8613 12.4367 41.9239 12.3783 41.9239 12.288C41.9239 12.1939 41.87 12.1457 41.7468 12.1457H41.519V12.4367H41.7499ZM41.37 12.8853V12.1089C41.37 12.058 41.4024 12.0243 41.4502 12.0243H41.7617C41.9679 12.0243 42.0804 12.1104 42.0804 12.2695C42.0804 12.3726 42.0224 12.4411 41.9134 12.4735C42.0546 12.5054 42.1176 12.5945 42.1176 12.7055C42.1176 12.8829 42.0062 12.9699 41.7591 12.9699H41.4502C41.4024 12.9699 41.37 12.9367 41.37 12.8853ZM42.8239 12.3153C42.8239 12.418 42.7597 12.482 42.62 12.482H42.4208V12.1485H42.6155C42.7547 12.1485 42.8239 12.2056 42.8239 12.3153ZM42.8825 12.9764C42.9459 12.9764 42.9778 12.9237 42.9706 12.9148L42.6941 12.5854C42.879 12.5712 42.9766 12.4688 42.9766 12.3081C42.9766 12.1209 42.8535 12.0243 42.6224 12.0243H42.3541C42.3046 12.0243 42.273 12.0581 42.273 12.1091V12.8989C42.273 12.9483 42.295 12.9764 42.3362 12.9764H42.3569C42.4007 12.9764 42.4217 12.9483 42.4217 12.9076V12.6004H42.5259L42.7846 12.9171C42.8162 12.9603 42.843 12.9764 42.8825 12.9764ZM43.6428 12.5714L43.4904 12.1709L43.3382 12.5714H43.6428ZM43.3003 12.6919L43.2171 12.9093C43.199 12.9614 43.1669 12.9781 43.1344 12.9781C43.0898 12.9781 43.0473 12.9459 43.051 12.933L43.3888 12.0639C43.4004 12.0338 43.4235 12.0157 43.4922 12.0157C43.5623 12.0157 43.5842 12.0338 43.5957 12.0639L43.9353 12.933C43.9392 12.9444 43.8972 12.9781 43.852 12.9781C43.8185 12.9781 43.7832 12.9614 43.7622 12.9079L43.6788 12.6919H43.3003ZM44.0553 12.1032V12.9078C44.0553 12.9529 44.0734 12.9764 44.1161 12.9764H44.1325C44.1759 12.9764 44.197 12.9529 44.197 12.9078V12.2336L44.6896 12.9311C44.7125 12.9632 44.7247 12.9764 44.7698 12.9764H44.7821C44.8256 12.9764 44.8516 12.9444 44.8516 12.8917V12.0881C44.8516 12.0419 44.8309 12.0184 44.7903 12.0184H44.7734C44.7284 12.0184 44.7097 12.0419 44.7097 12.0881V12.7393L44.2425 12.0757C44.2142 12.0382 44.197 12.0184 44.1512 12.0184H44.1266C44.0802 12.0184 44.0553 12.0524 44.0553 12.1032ZM45.359 12.8404C45.5902 12.8404 45.7247 12.7146 45.7247 12.4959C45.7247 12.2814 45.5878 12.1546 45.3596 12.1546H45.2013V12.8404H45.359ZM45.052 12.8868V12.1088C45.052 12.058 45.0869 12.0242 45.1322 12.0242H45.3629C45.6846 12.0242 45.8764 12.1988 45.8764 12.4949C45.8764 12.7902 45.6805 12.9696 45.3555 12.9696H45.1357C45.0887 12.9696 45.052 12.9326 45.052 12.8868ZM47.112 14.1214C47.112 14.2175 47.0405 14.2252 46.959 14.2252H46.8378V14.0323H46.9683C47.0339 14.0323 47.112 14.0421 47.112 14.1214ZM46.7294 14.5997H46.8378V14.3176H46.9398L47.1102 14.5997H47.2332L47.0483 14.3098C47.1468 14.2991 47.2205 14.2492 47.2205 14.1303C47.2205 13.9958 47.1394 13.9401 46.9797 13.9401H46.7294V14.5997ZM46.4964 14.2587C46.4964 13.9688 46.6974 13.7665 46.9559 13.7665C47.2109 13.7665 47.4117 13.9688 47.4117 14.2587C47.4117 14.5508 47.2109 14.7516 46.9559 14.7516C46.6719 14.7516 46.4964 14.5293 46.4964 14.2587ZM46.3689 14.2587C46.3689 14.5988 46.6124 14.8552 46.9559 14.8552C47.268 14.8552 47.5394 14.6176 47.5394 14.2587C47.5394 13.9004 47.268 13.663 46.9559 13.663C46.6405 13.663 46.3689 13.9004 46.3689 14.2587Z" fill="#C7363A"/>
</svg>
