<svg width="40" height="40" viewBox="0 0 40 40" fill="none" xmlns="http://www.w3.org/2000/svg">
<path d="M16.0656 13.9947C16.0243 14.6154 15.9996 15.2794 15.9996 16C15.9996 19.3392 16.9962 21.3332 18.6662 21.3332C20.7708 21.3332 21.5986 17.4811 21.5986 15.9958C21.5986 15.6271 21.3007 15.3292 20.932 15.3292C20.5641 15.3292 20.2654 15.6271 20.2654 15.9958C20.2654 16.0224 19.9422 19.9999 18.6662 19.9999C17.8935 19.9999 17.3328 18.3173 17.3328 16C17.3328 8.2275 20.0607 7.34221 20.1461 7.31682C20.4982 7.23752 20.7241 6.89151 20.6528 6.5355C20.5807 6.17481 20.2314 5.9402 19.8681 6.01286C19.7347 6.0395 19.2521 6.16684 18.6708 6.66417C18.6714 6.55019 18.6808 6.43551 18.7115 6.32152C18.8035 5.97755 19.0241 5.69021 19.3328 5.51154C19.6415 5.3342 20.0001 5.28623 20.3441 5.37889C20.6881 5.47092 20.9761 5.69154 21.1534 6.0002C21.5213 6.63621 21.302 7.45353 20.6654 7.82149C19 8.5 19 6.5 18.5 7.5C18.6234 7.71398 17 8.97623 19.8681 9.21496C19.9811 9.22436 20.8633 9.21496 21.3327 8.97623C22.6053 8.24023 23.0426 6.60628 22.3087 5.33365C21.952 4.71632 21.3774 4.27571 20.6894 4.09103C19.9994 3.90634 19.2821 4.00173 18.6661 4.35704C18.0488 4.71367 17.6074 5.28834 17.4235 5.977C17.2508 6.62097 17.3321 7.289 17.6461 7.89829C17.0741 8.82897 16.5395 10.2149 16.2422 12.2755C15.2435 11.0802 14.6662 9.55825 14.6662 8.00032C14.6662 4.32438 17.6568 1.33382 21.3327 1.33382C25.0079 1.33382 27.9992 4.32446 27.9992 8.00032C27.9992 11.6762 25.0079 14.6668 21.3327 14.6668C18.5 14.556 17.7655 13.5186 17.0855 13.2919C16.7368 13.1759 16.3595 13.3632 16.2422 13.7126C16.1255 14.0619 16.3142 14.4392 16.6635 14.556C17.4795 14.8286 18.5 15.9958 21.3326 16.0001C25.7438 16.0001 29.3324 12.4109 29.3324 8.00032C29.3324 3.58908 25.7438 0.000488281 21.3326 0.000488281C16.9214 0.000488281 13.3328 3.58908 13.3328 8.00032C13.333 10.2735 14.3536 12.4821 16.0656 13.9947Z" fill="#050F21"/>
<path d="M8.66638 25.3328H13.9996C14.7769 25.3328 16.0996 26.3249 17.2662 27.1994C18.7288 28.2968 20.1101 29.3328 21.3327 29.3328H25.3327C26.3447 29.3328 26.8479 29.792 26.8613 29.8041C26.9913 29.9341 27.162 29.9994 27.3326 29.9994C27.5033 29.9994 27.6733 29.9341 27.8039 29.8041C28.0639 29.5434 28.0639 29.1214 27.8039 28.8614C27.716 28.7728 26.8966 27.9994 25.3327 27.9994H21.3327C20.5548 27.9994 19.2328 27.0074 18.0662 26.1328C16.6035 25.0355 15.2215 23.9995 13.9996 23.9995H8.66638C8.29842 23.9995 7.99976 24.2975 7.99976 24.6661C7.99976 25.0342 8.29842 25.3328 8.66638 25.3328Z" fill="#050F21"/>
<path d="M29.2707 13.5477L35.9993 20.2762V22.6669H33.6086L33.3326 22.3909V20.6669C33.3326 20.2983 33.0346 20.0003 32.666 20.0003H31.9994V19.3337C31.9994 18.965 31.7014 18.667 31.3327 18.667H29.6094L29.3328 18.3904V16.6671C29.3328 16.2984 29.0348 16.0005 28.6661 16.0005H26.9422L26.8775 15.9358C26.6175 15.6751 26.1955 15.6751 25.9349 15.9358C25.6743 16.1965 25.6742 16.6178 25.9349 16.8784L26.1949 17.1384C26.3196 17.2631 26.4888 17.3337 26.6662 17.3337H27.9994V18.6657C27.9994 18.8423 28.0694 19.0117 28.1941 19.137L28.8607 19.8044C28.9854 19.9297 29.1554 20.0004 29.3328 20.0004H30.6661V20.667C30.6661 21.035 30.9641 21.3336 31.3327 21.3336H31.9994V22.6669C31.9994 22.8436 32.0694 23.013 32.1947 23.1383L32.8613 23.8049C32.986 23.9296 33.1553 24.0002 33.3326 24.0002H36.6659C37.0346 24.0002 37.3325 23.7015 37.3325 23.3336V20.0003C37.3325 19.8236 37.2618 19.6537 37.1372 19.529L30.2134 12.6051C29.9527 12.3445 29.5314 12.3445 29.2707 12.6051C29.0101 12.8657 29.0101 13.287 29.2707 13.5477Z" fill="#050F21"/>
<path d="M3.33333 35.6665C3.33333 35.1152 2.88467 34.6665 2.33335 34.6665C1.78204 34.6665 1.33337 35.1152 1.33337 35.6665C1.33337 36.2178 1.78204 36.6665 2.33335 36.6665C2.88467 36.6665 3.33333 36.2178 3.33333 35.6665Z" fill="#050F21"/>
<path d="M4.66654 21.3335H0.666626C0.298665 21.3335 0 21.6315 0 22.0001C0 22.3681 0.298665 22.6668 0.666626 22.6668H4.66654C5.03388 22.6668 5.33317 22.9654 5.33317 23.3334V37.9997C5.33317 38.3671 5.03388 38.6664 4.66654 38.6664H0.666626C0.298665 38.6664 0 38.9643 0 39.333C0 39.7009 0.298665 39.9996 0.666626 39.9996H4.66654C5.76917 39.9996 6.6665 39.1023 6.6665 37.9997V23.3335C6.6665 22.2302 5.76917 21.3335 4.66654 21.3335Z" fill="#050F21"/>
<path d="M39.6418 27.9997C38.9065 26.7257 37.2698 26.2897 36.0405 27.0017L28.368 30.7363C27.1747 31.333 25.9714 31.333 23.3328 31.333C20.7536 31.333 16.815 30.6816 16.7756 30.675C16.4096 30.6143 16.069 30.8603 16.0083 31.223C15.9483 31.5863 16.1936 31.9296 16.5562 31.9903C16.7222 32.0183 20.6422 32.6663 23.3327 32.6663C26.1006 32.6663 27.49 32.6663 28.9573 31.9323L36.6658 28.1784C36.9738 28.0005 37.3331 27.9531 37.6771 28.0451C38.0211 28.137 38.3091 28.3577 38.4864 28.6664C38.6651 28.975 38.7124 29.3343 38.6198 29.6784C38.5284 30.0217 38.3077 30.3097 37.9798 30.4991L28.9666 36.109C28.9479 36.121 27.0246 37.3329 22.6661 37.3329C18.8869 37.3329 13.0483 34.1156 12.9643 34.0696C12.9043 34.0396 11.4583 33.333 8.66638 33.333C8.29842 33.333 7.99976 33.631 7.99976 33.9996C7.99976 34.3676 8.29842 34.6662 8.66638 34.6662C11.091 34.6662 12.3403 35.2489 12.3423 35.2489C12.5943 35.3889 18.5409 38.6662 22.6661 38.6662C27.4787 38.6662 29.6139 37.2796 29.6846 37.2322L38.6658 31.6423C39.2824 31.2863 39.7237 30.711 39.9078 30.0231C40.0925 29.335 39.9978 28.6163 39.6418 27.9997Z" fill="#050F21"/>
</svg>
