<svg width="34" height="40" viewBox="0 0 34 40" fill="none" xmlns="http://www.w3.org/2000/svg">
<path d="M33.4069 34.7497L29.2104 29.3545C30.5702 28.9482 31.7449 28.0785 32.5304 26.8966C33.5187 25.1883 33.0718 23.1034 32.6393 21.0897C32.3779 20.0552 32.2214 18.9969 32.1725 17.931C32.2212 16.8642 32.3776 15.805 32.6393 14.7697C33.069 12.7545 33.5187 10.671 32.5304 8.96552C31.5069 7.19724 29.4462 6.54276 27.4531 5.91103C26.461 5.63767 25.5001 5.26138 24.5862 4.78828C23.7569 4.25034 22.9869 3.62621 22.289 2.92621C20.8104 1.55379 19.1338 0 17 0C14.8662 0 13.1897 1.55379 11.7104 2.92552C11.0127 3.62569 10.2429 4.25009 9.41383 4.78828C8.50004 5.26043 7.53943 5.63578 6.54762 5.90828C4.55452 6.54 2.49383 7.19448 1.47038 8.96276C0.482107 10.671 0.929003 12.7559 1.36142 14.7697C1.62288 15.8051 1.77909 16.8642 1.82762 17.931C1.77883 18.9978 1.62245 20.0571 1.36073 21.0924C0.931072 23.1076 0.481417 25.191 1.46969 26.8966C2.25624 28.079 3.43219 28.9484 4.79314 29.3538L0.593141 34.749C0.359348 35.0497 0.413572 35.4829 0.714348 35.7167C0.858831 35.8291 1.04193 35.8793 1.22349 35.8566L6.15452 35.2407L7.37176 39.5C7.44305 39.7497 7.64857 39.9381 7.90349 39.9876C7.94668 39.9958 7.99056 40 8.03452 40C8.24745 40.0002 8.44857 39.9019 8.57935 39.7338L12.9835 34.069C14.0673 35.1241 15.4909 35.7597 17 35.8621C18.5092 35.7597 19.9328 35.1241 21.0166 34.069L25.4207 39.7317C25.5511 39.9006 25.7522 39.9997 25.9656 40C26.0095 40 26.0534 39.9958 26.0966 39.9876C26.3515 39.9381 26.557 39.7497 26.6283 39.5L27.8456 35.2414L32.7766 35.8572C33.1545 35.9047 33.4993 35.6367 33.5468 35.2588C33.5695 35.0772 33.5193 34.8941 33.4069 34.7497ZM8.32418 37.8145L7.31797 34.2931C7.22443 33.9665 6.90685 33.7566 6.56969 33.7986L2.70762 34.2814L6.169 29.8317L6.55038 29.9538C7.54124 30.2265 8.5009 30.6018 9.41383 31.0738C10.2431 31.6117 11.0131 32.2359 11.7111 32.9359L11.9483 33.1552L8.32418 37.8145ZM17 34.4828C15.4069 34.4828 14.0669 33.2414 12.6476 31.9255C11.8755 31.1541 11.0225 30.4681 10.1035 29.8793C9.10357 29.3559 8.05099 28.9397 6.96349 28.6379C5.14073 28.0593 3.41866 27.5131 2.6628 26.2069C1.94142 24.9593 2.31383 23.2207 2.709 21.3793C2.9934 20.2501 3.1603 19.0946 3.20693 17.931C3.16056 16.7675 2.99392 15.612 2.70969 14.4828C2.31452 12.6421 1.94211 10.9034 2.66349 9.65517C3.42211 8.34897 5.14142 7.80276 6.96418 7.22414C8.0515 6.92224 9.10374 6.50612 10.1035 5.98276C11.0223 5.39397 11.875 4.70793 12.6469 3.93655C14.0669 2.62069 15.4069 1.37931 17 1.37931C18.5931 1.37931 19.9331 2.62069 21.3525 3.93655C22.1246 4.70802 22.9775 5.39397 23.8966 5.98276C24.8965 6.50621 25.9491 6.92233 27.0366 7.22414C28.8594 7.80276 30.5814 8.34897 31.3373 9.65517C32.0587 10.9028 31.6862 12.6414 31.2911 14.4828C31.0067 15.612 30.8398 16.7675 30.7931 17.931C30.8395 19.0946 31.0062 20.2501 31.2904 21.3793C31.6856 23.22 32.058 24.9586 31.3366 26.2069C30.578 27.5131 28.8587 28.0593 27.0359 28.6379C25.9486 28.9398 24.8963 29.3559 23.8966 29.8793C22.9778 30.4681 22.125 31.1541 21.3531 31.9255C19.9331 33.2414 18.5931 34.4828 17 34.4828ZM27.4338 33.7986C27.0967 33.7566 26.7791 33.9665 26.6856 34.2931L25.6759 37.8145L22.0525 33.1559L22.2897 32.9366C22.9874 32.2364 23.7572 31.612 24.5862 31.0738C25.5 30.6016 26.4606 30.2263 27.4525 29.9538L27.8338 29.8317L31.2959 34.2814L27.4338 33.7986Z" fill="#050F21"/>
</svg>
