<svg width="40" height="40" viewBox="0 0 40 40" fill="none" xmlns="http://www.w3.org/2000/svg">
<path d="M20 5.33361C20.3682 5.33361 20.6667 5.0351 20.6667 4.66691V0.666702C20.6667 0.298516 20.3682 0 20 0C19.6318 0 19.3333 0.298516 19.3333 0.666702V4.66691C19.3333 5.0351 19.6317 5.33361 20 5.33361Z" fill="#050F21"/>
<path d="M10.0888 3.4982L12.0889 6.96505C12.2709 7.28515 12.6779 7.39707 12.998 7.21506C13.3181 7.03305 13.4301 6.62603 13.2481 6.30593C13.2466 6.30335 13.2451 6.30085 13.2436 6.29826L11.2435 2.83142C11.0615 2.51132 10.6545 2.39939 10.3344 2.5814C10.0143 2.76341 9.90239 3.17043 10.0844 3.49053C10.0858 3.49312 10.0873 3.4957 10.0888 3.4982Z" fill="#050F21"/>
<path d="M3.49981 10.5779L6.96666 12.578C7.28676 12.7601 7.69378 12.6481 7.87579 12.328C8.05605 12.0109 7.94804 11.6078 7.63336 11.4233L4.16651 9.4232C3.84641 9.24119 3.43939 9.35311 3.25738 9.67321C3.07703 9.99032 3.18504 10.3934 3.49981 10.5779Z" fill="#050F21"/>
<path d="M5.99926 19.3342C5.99926 18.966 5.70075 18.6675 5.33256 18.6675H1.33235C0.964165 18.6675 0.665649 18.966 0.665649 19.3342C0.665649 19.7024 0.964165 20.0009 1.33235 20.0009H5.33256C5.70075 20.0009 5.99926 19.7024 5.99926 19.3342Z" fill="#050F21"/>
<path d="M6.97182 26.0862C6.96923 26.0877 6.96665 26.0892 6.96407 26.0907L3.49722 28.0908C3.17712 28.2728 3.06511 28.6798 3.24704 28.9999C3.42896 29.32 3.83598 29.432 4.15608 29.2501C4.15867 29.2486 4.16125 29.2471 4.16383 29.2456L7.63068 27.2454C7.95079 27.0635 8.06279 26.6565 7.88086 26.3364C7.69894 26.0163 7.29192 25.9043 6.97182 26.0862Z" fill="#050F21"/>
<path d="M36.5001 28.0908L33.0333 26.0907C32.7157 25.9045 32.3071 26.011 32.1209 26.3286C31.9346 26.6462 32.0411 27.0547 32.3587 27.2409C32.3613 27.2424 32.3639 27.2439 32.3665 27.2454L35.8333 29.2456C36.1534 29.4275 36.5604 29.3155 36.7424 28.9954C36.9226 28.6784 36.8147 28.2753 36.5001 28.0908Z" fill="#050F21"/>
<path d="M38.6676 18.6675H34.6674C34.2992 18.6675 34.0007 18.966 34.0007 19.3342C34.0007 19.7024 34.2992 20.0009 34.6674 20.0009H38.6676C39.0358 20.0009 39.3343 19.7024 39.3343 19.3342C39.3343 18.966 39.0358 18.6675 38.6676 18.6675Z" fill="#050F21"/>
<path d="M32.7034 12.6673C32.8204 12.6673 32.9354 12.6365 33.0367 12.578L36.5036 10.5779C36.8212 10.3917 36.9278 9.98318 36.7416 9.66558C36.5571 9.3509 36.154 9.24289 35.8369 9.42315L32.37 11.4233C32.0511 11.6073 31.9419 12.0151 32.126 12.334C32.2451 12.5402 32.4652 12.6673 32.7034 12.6673Z" fill="#050F21"/>
<path d="M27.0004 7.20908C27.3192 7.39317 27.727 7.28392 27.9111 6.96507L29.9112 3.49822C30.0974 3.18062 29.9909 2.7721 29.6733 2.58584C29.3557 2.39958 28.9472 2.50608 28.761 2.82368C28.7595 2.82627 28.758 2.82885 28.7565 2.83143L26.7564 6.29828C26.5722 6.61722 26.6814 7.02499 27.0004 7.20908Z" fill="#050F21"/>
<path d="M20 9.33398C14.4794 9.34023 10.0057 13.814 9.99945 19.3345C9.99945 19.7027 10.298 20.0012 10.6662 20.0012C11.0343 20.0012 11.3329 19.7027 11.3329 19.3345C11.3384 14.5501 15.2156 10.6729 20 10.6674C20.3682 10.6674 20.6667 10.3689 20.6667 10.0007C20.6667 9.6325 20.3682 9.33398 20 9.33398Z" fill="#050F21"/>
<path d="M32.2006 22.7307V22.7274C32.2219 22.6607 32.2412 22.5887 32.2579 22.5233C32.2819 22.4313 32.3019 22.3387 32.3246 22.246C32.3472 22.1533 32.3686 22.0607 32.3812 21.9867C33.8594 15.1486 29.5144 8.40703 22.6764 6.92879C15.8384 5.45054 9.09678 9.7956 7.61854 16.6336C7.42669 17.5211 7.33085 18.4265 7.3326 19.3345C7.3326 19.6312 7.34527 19.9259 7.36594 20.2186C7.37661 20.3806 7.39261 20.5452 7.41261 20.7179C7.44994 21.0579 7.49795 21.3953 7.56262 21.7293C7.56795 21.7566 7.56995 21.7846 7.57728 21.812C7.60662 21.9647 7.64395 22.1127 7.67929 22.2607C7.69996 22.3467 7.71996 22.4327 7.74196 22.518C7.75196 22.554 7.75729 22.5847 7.76863 22.626C7.7953 22.7254 7.82663 22.8194 7.85596 22.9167C7.8873 23.0247 7.9173 23.1327 7.95197 23.2394L7.95597 23.2521C8.01597 23.4461 8.08398 23.6347 8.16598 23.8447C8.18131 23.8854 8.19732 23.9254 8.21332 23.9654C8.22798 24.0151 8.24724 24.0633 8.27065 24.1094L8.27399 24.1174C8.31866 24.2361 8.37066 24.3541 8.42266 24.4648L8.43133 24.4814C8.46466 24.5568 8.498 24.6315 8.534 24.7068C8.55067 24.7441 8.56667 24.7855 8.58334 24.8195C8.76193 25.1958 8.96094 25.5622 9.17937 25.9169L9.24137 26.0155C9.28137 26.0822 9.32204 26.1489 9.36271 26.2055L9.44471 26.3275C9.48472 26.3862 9.52605 26.4456 9.56672 26.5042C9.59606 26.5469 9.62339 26.5896 9.65339 26.6316C9.66806 26.6556 9.68206 26.6789 9.70073 26.7042C9.71473 26.7229 9.73006 26.7416 9.74473 26.7602C9.77073 26.7962 9.7974 26.8269 9.8234 26.8622C9.93274 27.0102 10.0434 27.1569 10.1568 27.3003L10.1648 27.3109C10.1861 27.3363 10.2081 27.3603 10.2314 27.3856C10.3648 27.5469 10.4981 27.707 10.6414 27.8623H10.6448C10.7634 27.9956 10.8895 28.121 11.0148 28.2476C11.0548 28.287 11.0915 28.329 11.1315 28.3683C11.1488 28.385 11.1641 28.4037 11.1815 28.4203C11.3615 28.5937 11.5482 28.7597 11.7328 28.9237C12.0829 29.2305 12.452 29.5146 12.8382 29.7744C12.9074 29.8525 12.994 29.9132 13.0909 29.9517L13.3516 31.8932C13.3422 31.9288 13.3359 31.9652 13.3329 32.0018C13.3348 32.1043 13.3605 32.2051 13.4083 32.2959L13.8989 35.944C13.907 36.0069 13.9243 36.0682 13.9503 36.1261C14.0914 36.445 14.2614 36.7503 14.4583 37.0381V37.0428L14.4636 37.0488C16.5124 40.1038 20.6499 40.9196 23.7049 38.8708C24.425 38.3878 25.0439 37.7689 25.5269 37.0488L25.5322 37.0428L25.5356 37.0381C25.7325 36.7503 25.9025 36.445 26.0436 36.1261C26.0696 36.0682 26.0868 36.0069 26.0949 35.944L26.901 29.9511C26.9476 29.9355 26.9923 29.9146 27.0343 29.8891C29.5499 28.2033 31.3789 25.6728 32.1906 22.7554C32.1966 22.7474 32.2006 22.7394 32.2006 22.7307ZM16.4784 37.3355H23.5214C21.5103 39.1133 18.4894 39.1133 16.4784 37.3355ZM24.7922 35.6687C24.7395 35.782 24.6815 35.8934 24.6195 36.0021H15.3803C15.3183 35.894 15.2603 35.7827 15.2076 35.6687L14.8042 32.6685H25.1954L24.7922 35.6687ZM25.3735 31.3431C25.3595 31.3425 25.3475 31.3351 25.3335 31.3351H14.625L14.4456 30.0017H25.5542L25.3735 31.3431ZM18.6665 28.6683V22.4253L19.6059 23.102C19.8387 23.2697 20.1525 23.2697 20.3853 23.102L21.3333 22.4193V28.6683H18.6665ZM31.3085 20.0679C31.2959 20.2732 31.2772 20.4719 31.2525 20.6719V20.6873C31.2444 20.7237 31.2388 20.7607 31.2359 20.7979V20.8113C31.2319 20.8313 31.2292 20.8513 31.2265 20.8726C31.2239 20.8939 31.2225 20.9059 31.2205 20.9239C31.2205 20.9433 31.2152 20.9619 31.2125 20.9813C31.1978 21.0846 31.1825 21.1873 31.1645 21.2899C31.1558 21.3366 31.1492 21.38 31.1378 21.4326C31.1272 21.5033 31.1105 21.5793 31.0858 21.6926V21.7046C31.0692 21.7846 31.0518 21.8646 31.0332 21.944C31.0265 21.9707 31.0218 21.9933 31.0138 22.0233C30.9914 22.1329 30.9633 22.2412 30.9298 22.348C30.9172 22.3953 30.9032 22.4427 30.8898 22.49C30.8572 22.6107 30.8232 22.7287 30.7778 22.8574C30.7232 23.028 30.6692 23.1987 30.6025 23.3621L30.5765 23.4287C30.5453 23.5154 30.5097 23.6004 30.4698 23.6834C30.4552 23.7122 30.443 23.7421 30.4331 23.7727L30.4198 23.8027C30.3605 23.9521 30.2945 24.0948 30.2091 24.2694C30.1611 24.3774 30.1078 24.4794 30.0545 24.5815L29.9738 24.7408C29.1183 26.3175 27.8998 27.6679 26.4189 28.6803C26.3843 28.6733 26.349 28.6693 26.3136 28.6683H22.6667V23.064L22.7201 23.102C22.9525 23.2691 23.2657 23.2691 23.4981 23.102L25.0555 21.9833C25.3605 21.7769 25.4404 21.3625 25.234 21.0575C25.0275 20.7526 24.6131 20.6727 24.3082 20.8791C24.298 20.886 24.288 20.8932 24.2782 20.9006L23.1088 21.74L21.94 20.9006C21.7074 20.7333 21.3939 20.7333 21.1613 20.9006L19.9959 21.7393L18.8305 20.9006C18.5978 20.7329 18.2839 20.7329 18.0512 20.9006L16.8864 21.7393L15.723 20.9006C15.4243 20.6852 15.0074 20.7528 14.792 21.0516C14.5766 21.3504 14.6442 21.7672 14.943 21.9827L16.4964 23.102C16.7292 23.2697 17.043 23.2697 17.2758 23.102L17.3331 23.0607V28.6683H13.6863C13.6579 28.6687 13.6297 28.6707 13.6016 28.6743C12.8817 28.1815 12.2207 27.6077 11.6315 26.9642C11.5042 26.8256 11.3808 26.6789 11.2568 26.5289C11.2341 26.5016 11.2095 26.4749 11.1868 26.4469C11.0741 26.3135 10.9708 26.1722 10.8681 26.0295C10.8288 25.9762 10.7868 25.9249 10.7488 25.8709V25.8669C10.7434 25.8589 10.7388 25.8515 10.7334 25.8449L10.7114 25.8122C10.6941 25.7895 10.6801 25.7662 10.6634 25.7455C10.5081 25.5202 10.3634 25.2882 10.2248 25.0528C10.0914 24.8288 9.97074 24.6041 9.85874 24.3754C9.81407 24.2868 9.76806 24.1988 9.7254 24.1088C9.71273 24.0774 9.69739 24.0421 9.68939 24.0228L9.65673 23.9561L9.64872 23.9401V23.9368C9.48597 23.5738 9.34288 23.2024 9.22004 22.824C9.20804 22.788 9.1967 22.75 9.1847 22.7134C9.12403 22.5193 9.06736 22.3233 9.01669 22.1247C9.01669 22.114 9.01069 22.104 9.00869 22.0933C9.00469 22.0667 8.99936 22.0402 8.99269 22.014C8.98069 21.9687 8.97202 21.9213 8.96136 21.876C8.92935 21.7373 8.89469 21.5993 8.86935 21.4593C8.86935 21.444 8.86602 21.4286 8.86335 21.4133C8.82802 21.2313 8.79668 21.0426 8.77401 20.8539C8.77351 20.8125 8.76818 20.7713 8.75801 20.7313C8.75801 20.7173 8.75334 20.6946 8.74934 20.6713C8.72468 20.4712 8.70668 20.2766 8.69334 20.0612C8.67201 19.8192 8.66601 19.5765 8.66601 19.3345C8.67301 13.0779 13.7433 8.00759 19.9999 8.00059C26.2566 8.00759 31.3269 13.0779 31.3339 19.3345C31.3339 19.5765 31.3279 19.8192 31.3085 20.0679Z" fill="#050F21"/>
</svg>
