<svg width="38" height="38" viewBox="0 0 38 38" fill="none" xmlns="http://www.w3.org/2000/svg">
<path fill-rule="evenodd" clip-rule="evenodd" d="M19 3L21.5 1.5L24 1L27 2.5L29 5.5L28.5 8L28 10.5L19 19L9.5 9.5L9 6L10 3L13 1H16L19 3ZM17.5 7.5L18 5.5H20.5V7.5L23 8L22.5 10.5H20.5L20 12.5L17.5 13V10.5L15 10V8L17.5 7.5Z" fill="#39B54A"/>
<path d="M22.75 7.125H20.875V5.25C20.875 5.08424 20.8092 4.92527 20.6919 4.80806C20.5747 4.69085 20.4158 4.625 20.25 4.625H17.75C17.5842 4.625 17.4253 4.69085 17.3081 4.80806C17.1908 4.92527 17.125 5.08424 17.125 5.25V7.125H15.25C15.0842 7.125 14.9253 7.19085 14.8081 7.30806C14.6908 7.42527 14.625 7.58424 14.625 7.75V10.25C14.625 10.4158 14.6908 10.5747 14.8081 10.6919C14.9253 10.8092 15.0842 10.875 15.25 10.875H17.125V12.75C17.125 12.9158 17.1908 13.0747 17.3081 13.1919C17.4253 13.3092 17.5842 13.375 17.75 13.375H20.25C20.4158 13.375 20.5747 13.3092 20.6919 13.1919C20.8092 13.0747 20.875 12.9158 20.875 12.75V10.875H22.75C22.9158 10.875 23.0747 10.8092 23.1919 10.6919C23.3092 10.5747 23.375 10.4158 23.375 10.25V7.75C23.375 7.58424 23.3092 7.42527 23.1919 7.30806C23.0747 7.19085 22.9158 7.125 22.75 7.125ZM22.125 9.625H20.25C20.0842 9.625 19.9253 9.69085 19.8081 9.80806C19.6908 9.92527 19.625 10.0842 19.625 10.25V12.125H18.375V10.25C18.375 10.0842 18.3092 9.92527 18.1919 9.80806C18.0747 9.69085 17.9158 9.625 17.75 9.625H15.875V8.375H17.75C17.9158 8.375 18.0747 8.30915 18.1919 8.19194C18.3092 8.07473 18.375 7.91576 18.375 7.75V5.875H19.625V7.75C19.625 7.91576 19.6908 8.07473 19.8081 8.19194C19.9253 8.30915 20.0842 8.375 20.25 8.375H22.125V9.625Z" fill="#050F21"/>
<path d="M36.3312 10.4747C36.3439 10.3647 36.3502 10.2541 36.35 10.1434C36.347 9.57053 36.1482 9.01588 35.7868 8.57141C35.4253 8.12695 34.9228 7.81937 34.3625 7.69967C33.7288 7.57904 33.0729 7.70364 32.5275 8.04825C31.9822 8.39287 31.5881 8.93177 31.425 9.55592L28.675 17.4684C28.6342 17.4846 28.5946 17.5034 28.5562 17.5247L23.0313 20.7622C22.1858 21.2588 21.4846 21.9674 20.9968 22.818C20.509 23.6685 20.2516 24.6317 20.25 25.6122V31.4997C20.0842 31.4997 19.9253 31.5655 19.8081 31.6827C19.6908 31.7999 19.625 31.9589 19.625 32.1247V37.1247C19.625 37.2904 19.6908 37.4494 19.8081 37.5666C19.9253 37.6838 20.0842 37.7497 20.25 37.7497H29C29.1658 37.7497 29.3247 37.6838 29.4419 37.5666C29.5592 37.4494 29.625 37.2904 29.625 37.1247V32.1247C29.625 31.9589 29.5592 31.7999 29.4419 31.6827C29.3247 31.5655 29.1658 31.4997 29 31.4997V30.1247C29.0012 29.8607 29.0574 29.5999 29.165 29.3588C29.2726 29.1178 29.4293 28.9018 29.625 28.7247L33.85 24.9684C34.3121 24.5641 34.643 24.0308 34.8 23.4372L37.5125 13.2934C37.5704 13.0816 37.5998 12.863 37.6 12.6434C37.5975 12.2024 37.479 11.7697 37.2563 11.389C37.0336 11.0083 36.7145 10.693 36.3312 10.4747ZM32.6187 9.92467C32.6955 9.60145 32.8912 9.31902 33.1669 9.13368C33.4426 8.94834 33.778 8.87371 34.1062 8.92467C34.3864 8.98334 34.6379 9.13638 34.8188 9.3582C34.9997 9.58003 35.0989 9.85721 35.1 10.1434V10.1559C34.5417 10.1663 34.0021 10.3587 33.5632 10.7039C33.1244 11.0492 32.8103 11.5283 32.6687 12.0684L30.925 17.4497C30.661 17.3244 30.3779 17.2442 30.0875 17.2122L32.6187 9.92467ZM28.375 36.4997H20.875V32.7497H28.375V36.4997ZM36.3062 12.9684L33.5875 23.1184C33.4934 23.4711 33.2978 23.7884 33.025 24.0309L28.7937 27.7872C28.4663 28.0824 28.2043 28.4429 28.0246 28.8455C27.8448 29.2481 27.7513 29.6838 27.75 30.1247V31.4997H21.5V25.6122C21.5031 24.8496 21.704 24.1009 22.083 23.4393C22.4621 22.7776 23.0063 22.2256 23.6625 21.8372L29.1812 18.6059C29.3235 18.523 29.4808 18.469 29.644 18.4471C29.8073 18.4252 29.9732 18.4357 30.1323 18.4781C30.2915 18.5205 30.4407 18.5939 30.5713 18.6942C30.702 18.7944 30.8116 18.9195 30.8937 19.0622C31.0561 19.351 31.1009 19.6912 31.0187 20.0122C30.9753 20.1707 30.9011 20.319 30.8003 20.4488C30.6995 20.5786 30.5741 20.6872 30.4312 20.7684L26.85 22.8372C26.714 22.9237 26.6166 23.0594 26.5782 23.2159C26.5399 23.3725 26.5635 23.5378 26.6442 23.6774C26.7249 23.817 26.8563 23.92 27.0112 23.9649C27.166 24.0098 27.3322 23.9931 27.475 23.9184L31.0562 21.8497C31.3425 21.6873 31.5934 21.4692 31.7941 21.2084C31.9948 20.9476 32.1413 20.6492 32.225 20.3309C32.3951 19.6914 32.3053 19.0106 31.975 18.4372L31.9375 18.3809L33.8687 12.4247C33.9455 12.1015 34.1412 11.819 34.4169 11.6337C34.6926 11.4483 35.028 11.3737 35.3562 11.4247C35.6364 11.4833 35.8879 11.6364 36.0688 11.8582C36.2497 12.08 36.3489 12.3572 36.35 12.6434C36.3521 12.7534 36.3373 12.863 36.3062 12.9684Z" fill="#050F21"/>
<path d="M17.7501 31.5V25.6125C17.7485 24.632 17.4911 23.6688 17.0033 22.8183C16.5155 21.9677 15.8143 21.2591 14.9688 20.7625L9.44384 17.5187C9.40633 17.5 9.36259 17.4875 9.32509 17.4687L6.59384 9.59996C6.43509 8.96671 6.04102 8.41774 5.49182 8.06476C4.94263 7.71179 4.27957 7.58134 3.63759 7.69997C3.07733 7.81967 2.57481 8.12725 2.21333 8.57171C1.85185 9.01617 1.65312 9.57082 1.65009 10.1437C1.64992 10.2544 1.65618 10.365 1.66884 10.475C1.28556 10.6932 0.966525 11.0086 0.743805 11.3893C0.521085 11.77 0.402538 12.2027 0.400085 12.6437C0.401299 12.8628 0.428574 13.081 0.481335 13.2937L3.20009 23.4312C3.35545 24.0274 3.68644 24.563 4.15009 24.9687L8.36884 28.725C8.56654 28.9009 8.72495 29.1164 8.83372 29.3577C8.94248 29.5989 8.99917 29.8603 9.00009 30.125V31.5C8.83432 31.5 8.67535 31.5658 8.55814 31.683C8.44093 31.8002 8.37509 31.9592 8.37509 32.125V37.125C8.37509 37.2907 8.44093 37.4497 8.55814 37.5669C8.67535 37.6841 8.83432 37.75 9.00009 37.75H17.7501C17.9158 37.75 18.0748 37.6841 18.192 37.5669C18.3092 37.4497 18.3751 37.2907 18.3751 37.125V32.125C18.3751 31.9592 18.3092 31.8002 18.192 31.683C18.0748 31.5658 17.9158 31.5 17.7501 31.5ZM2.90009 10.1437C2.90086 9.85837 2.99923 9.58187 3.17887 9.36017C3.35851 9.13846 3.6086 8.98489 3.88759 8.92497C4.22487 8.87601 4.5682 8.95638 4.84871 9.14995C5.12922 9.34353 5.32618 9.636 5.40009 9.96871L7.91259 17.2125C7.62215 17.2445 7.33909 17.3247 7.07509 17.45L5.34384 12.1C5.20294 11.5545 4.88823 11.0697 4.44732 10.719C4.00641 10.3683 3.46328 10.1708 2.90009 10.1562V10.1437ZM9.20009 27.7875L4.97509 24.0312C4.70074 23.7874 4.50497 23.4677 4.41259 23.1125L1.68759 12.9687C1.66171 12.8623 1.64912 12.7532 1.65009 12.6437C1.65086 12.3584 1.74923 12.0819 1.92887 11.8602C2.10851 11.6385 2.3586 11.4849 2.63759 11.425C2.9725 11.3747 3.31402 11.4531 3.59347 11.6444C3.87292 11.8358 4.06955 12.1258 4.14384 12.4562L6.06259 18.3812L6.02509 18.4375C5.69483 19.0109 5.60495 19.6917 5.77509 20.3312C5.85877 20.6495 6.00528 20.9479 6.206 21.2087C6.40671 21.4695 6.65758 21.6876 6.94384 21.85L10.5251 23.9187C10.6679 23.9934 10.8341 24.0101 10.9889 23.9652C11.1437 23.9203 11.2752 23.8173 11.3559 23.6777C11.4366 23.5381 11.4602 23.3728 11.4218 23.2162C11.3835 23.0596 11.2861 22.9239 11.1501 22.8375L7.56884 20.7687C7.42601 20.6875 7.3006 20.5788 7.19979 20.4491C7.09898 20.3193 7.02475 20.1709 6.98134 20.0125C6.89923 19.6915 6.944 19.3513 7.10634 19.0625C7.188 18.9201 7.29691 18.7951 7.42685 18.6948C7.5568 18.5945 7.70523 18.5208 7.86367 18.4778C8.02211 18.4349 8.18746 18.4236 8.35028 18.4445C8.51309 18.4655 8.67019 18.5183 8.81259 18.6L14.3376 21.8375C14.9938 22.2259 15.538 22.7779 15.9171 23.4396C16.2961 24.1012 16.497 24.8499 16.5001 25.6125V31.5H10.2501V30.125C10.249 29.6835 10.155 29.2471 9.97406 28.8444C9.79315 28.4416 9.52943 28.0815 9.20009 27.7875ZM17.1251 36.5H9.62509V32.75H17.1251V36.5Z" fill="#050F21"/>
<path d="M27.842 2.20737C27.2618 1.62614 26.5727 1.16504 25.8141 0.850452C25.0554 0.535864 24.2422 0.373965 23.421 0.374023C22.5997 0.374082 21.7865 0.536095 21.0279 0.85079C20.2694 1.16549 19.5803 1.62669 19.0002 2.208C18.4201 1.62667 17.731 1.16547 16.9725 0.850787C16.2139 0.536107 15.4008 0.37413 14.5795 0.37413C13.7583 0.37413 12.9451 0.536107 12.1866 0.850787C11.428 1.16547 10.739 1.62667 10.1589 2.208C8.98912 3.3803 8.33215 4.96877 8.33215 6.62488C8.33215 8.28098 8.98912 9.86945 10.1589 11.0418L18.5589 19.4418C18.6761 19.5589 18.8351 19.6248 19.0008 19.6248C19.1665 19.6248 19.3254 19.5589 19.4427 19.4418L27.8427 11.0418C29.0124 9.86926 29.6693 8.28064 29.6691 6.62443C29.669 4.96823 29.0119 3.3797 27.842 2.20737ZM19.0002 18.1161L11.042 10.158C10.3434 9.45838 9.8678 8.56732 9.67548 7.59747C9.48315 6.62762 9.58268 5.62251 9.9615 4.70922C10.3403 3.79593 10.9814 3.01545 11.8037 2.46645C12.626 1.91746 13.5927 1.62459 14.5814 1.62487C15.2382 1.62262 15.8889 1.75116 16.4955 2.00301C17.1021 2.25486 17.6525 2.62496 18.1145 3.09175L18.5583 3.5355C18.6755 3.65267 18.8344 3.71849 19.0002 3.71849C19.1659 3.71849 19.3248 3.65267 19.442 3.5355L19.887 3.0905C20.351 2.62566 20.9021 2.25687 21.5088 2.00526C22.1155 1.75364 22.7659 1.62412 23.4227 1.62412C24.0794 1.62412 24.7298 1.75364 25.3365 2.00526C25.9432 2.25687 26.4943 2.62566 26.9583 3.0905C27.8945 4.02798 28.4203 5.29872 28.4203 6.62363C28.4203 7.94853 27.8945 9.21927 26.9583 10.1568L19.0002 18.1161Z" fill="#050F21"/>
</svg>
