<svg width="40" height="40" viewBox="0 0 40 40" fill="none" xmlns="http://www.w3.org/2000/svg">
<rect width="40" height="40" rx="20" fill="#024650"/>
<path d="M20 15.8066C17.875 15.8066 16.1816 17.5332 16.1816 19.625C16.1816 21.75 17.875 23.4434 20 23.4434C22.0918 23.4434 23.8184 21.75 23.8184 19.625C23.8184 17.5332 22.0918 15.8066 20 15.8066ZM20 22.1152C18.6387 22.1152 17.5098 21.0195 17.5098 19.625C17.5098 18.2637 18.6055 17.168 20 17.168C21.3613 17.168 22.457 18.2637 22.457 19.625C22.457 21.0195 21.3613 22.1152 20 22.1152ZM24.8477 15.6738C24.8477 15.1758 24.4492 14.7773 23.9512 14.7773C23.4531 14.7773 23.0547 15.1758 23.0547 15.6738C23.0547 16.1719 23.4531 16.5703 23.9512 16.5703C24.4492 16.5703 24.8477 16.1719 24.8477 15.6738ZM27.3711 16.5703C27.3047 15.375 27.0391 14.3125 26.1758 13.4492C25.3125 12.5859 24.25 12.3203 23.0547 12.2539C21.8262 12.1875 18.1406 12.1875 16.9121 12.2539C15.7168 12.3203 14.6875 12.5859 13.791 13.4492C12.9277 14.3125 12.6621 15.375 12.5957 16.5703C12.5293 17.7988 12.5293 21.4844 12.5957 22.7129C12.6621 23.9082 12.9277 24.9375 13.791 25.834C14.6875 26.6973 15.7168 26.9629 16.9121 27.0293C18.1406 27.0957 21.8262 27.0957 23.0547 27.0293C24.25 26.9629 25.3125 26.6973 26.1758 25.834C27.0391 24.9375 27.3047 23.9082 27.3711 22.7129C27.4375 21.4844 27.4375 17.7988 27.3711 16.5703ZM25.7773 24.0078C25.5449 24.6719 25.0137 25.1699 24.3828 25.4355C23.3867 25.834 21.0625 25.7344 20 25.7344C18.9043 25.7344 16.5801 25.834 15.6172 25.4355C14.9531 25.1699 14.4551 24.6719 14.1895 24.0078C13.791 23.0449 13.8906 20.7207 13.8906 19.625C13.8906 18.5625 13.791 16.2383 14.1895 15.2422C14.4551 14.6113 14.9531 14.1133 15.6172 13.8477C16.5801 13.4492 18.9043 13.5488 20 13.5488C21.0625 13.5488 23.3867 13.4492 24.3828 13.8477C25.0137 14.0801 25.5117 14.6113 25.7773 15.2422C26.1758 16.2383 26.0762 18.5625 26.0762 19.625C26.0762 20.7207 26.1758 23.0449 25.7773 24.0078Z" fill="white"/>
</svg>
