<svg width="22" height="21" viewBox="0 0 22 21" fill="none" xmlns="http://www.w3.org/2000/svg">
<path d="M11 5.20898C8.125 5.20898 5.83398 7.54492 5.83398 10.375C5.83398 13.25 8.125 15.541 11 15.541C13.8301 15.541 16.166 13.25 16.166 10.375C16.166 7.54492 13.8301 5.20898 11 5.20898ZM11 13.7441C9.1582 13.7441 7.63086 12.2617 7.63086 10.375C7.63086 8.5332 9.11328 7.05078 11 7.05078C12.8418 7.05078 14.3242 8.5332 14.3242 10.375C14.3242 12.2617 12.8418 13.7441 11 13.7441ZM17.5586 5.0293C17.5586 4.35547 17.0195 3.81641 16.3457 3.81641C15.6719 3.81641 15.1328 4.35547 15.1328 5.0293C15.1328 5.70312 15.6719 6.24219 16.3457 6.24219C17.0195 6.24219 17.5586 5.70312 17.5586 5.0293ZM20.9727 6.24219C20.8828 4.625 20.5234 3.1875 19.3555 2.01953C18.1875 0.851562 16.75 0.492188 15.1328 0.402344C13.4707 0.3125 8.48438 0.3125 6.82227 0.402344C5.20508 0.492188 3.8125 0.851562 2.59961 2.01953C1.43164 3.1875 1.07227 4.625 0.982422 6.24219C0.892578 7.9043 0.892578 12.8906 0.982422 14.5527C1.07227 16.1699 1.43164 17.5625 2.59961 18.7754C3.8125 19.9434 5.20508 20.3027 6.82227 20.3926C8.48438 20.4824 13.4707 20.4824 15.1328 20.3926C16.75 20.3027 18.1875 19.9434 19.3555 18.7754C20.5234 17.5625 20.8828 16.1699 20.9727 14.5527C21.0625 12.8906 21.0625 7.9043 20.9727 6.24219ZM18.8164 16.3047C18.502 17.2031 17.7832 17.877 16.9297 18.2363C15.582 18.7754 12.4375 18.6406 11 18.6406C9.51758 18.6406 6.37305 18.7754 5.07031 18.2363C4.17188 17.877 3.49805 17.2031 3.13867 16.3047C2.59961 15.002 2.73438 11.8574 2.73438 10.375C2.73438 8.9375 2.59961 5.79297 3.13867 4.44531C3.49805 3.5918 4.17188 2.91797 5.07031 2.55859C6.37305 2.01953 9.51758 2.1543 11 2.1543C12.4375 2.1543 15.582 2.01953 16.9297 2.55859C17.7832 2.87305 18.457 3.5918 18.8164 4.44531C19.3555 5.79297 19.2207 8.9375 19.2207 10.375C19.2207 11.8574 19.3555 15.002 18.8164 16.3047Z" fill="#050F21"/>
</svg>
