<svg width="66" height="15" viewBox="0 0 66 15" fill="none" xmlns="http://www.w3.org/2000/svg">
<path d="M21.9548 7.7733C21.9548 10.033 20.1484 11.8674 17.8639 11.8674C15.606 11.8674 13.7465 10.033 13.7465 7.7733C13.7465 5.48693 15.606 3.65255 17.8639 3.65255C20.1484 3.65255 21.9548 5.48693 21.9548 7.7733ZM10.8776 7.7733C10.8776 11.6015 13.9855 14.712 17.8108 14.712C21.1399 14.712 23.9283 12.3741 24.5828 9.26206H27.4801L27.4535 11.3889C27.427 13.1701 28.0379 14.7386 30.349 14.7386L30.3756 9.26206H31.385C33.1648 9.26206 34.7321 8.73035 34.7321 6.41745H30.3756L30.4022 4.18426C30.4287 2.40304 29.7912 0.834513 27.4801 0.834513V6.41745H24.6134C24.0221 3.22617 21.1965 0.807944 17.8108 0.807944C13.9855 0.807944 10.8776 3.9184 10.8776 7.7733Z" fill="#E33B39"/>
<path d="M49.8036 0.849565C49.2193 0.849565 48.582 0.929303 47.9181 1.11535C49.6442 1.328 52.9637 6.03231 54.1853 7.78647C52.9637 9.54065 49.6442 14.2716 47.9181 14.4842C48.582 14.6702 49.2193 14.75 49.8036 14.75C51.6625 14.75 53.0965 13.8995 54.3447 12.2251L55.8584 10.1254L57.372 12.2251C58.5671 13.8729 60.0011 14.75 61.9131 14.75C62.5239 14.75 63.1613 14.6702 63.8252 14.4842C62.099 14.2716 58.753 9.54065 57.5048 7.78647C58.753 6.03231 62.099 1.328 63.8252 1.11535C63.1613 0.929303 62.5239 0.849565 61.9131 0.849565C60.0542 0.849565 58.5936 1.6735 57.3986 3.34794L55.8584 5.44759L54.3447 3.34794C53.1231 1.72665 51.7156 0.849565 49.8036 0.849565Z" fill="black"/>
<path d="M46.056 6.16519H38.559C39.0616 4.48132 40.4587 3.34793 42.3413 3.34793C44.3866 3.34793 45.5396 4.49253 46.056 6.16519ZM35.5429 7.78646C35.5429 11.6137 38.4906 14.7234 42.5006 14.7234C45.0235 14.7234 47.1745 13.4742 48.5288 10.6835H45.4483C44.9703 11.6137 43.8284 12.0124 42.6068 12.0124C40.3806 12.0124 38.7579 10.902 38.4254 8.63698H48.8475C48.8741 8.39777 48.9006 8.02568 48.9006 7.78646C48.9006 3.93263 46.0591 0.823004 42.5006 0.823004C38.4906 0.823004 35.5429 3.93263 35.5429 7.78646Z" fill="black"/>
<path d="M0.25 0.317717V14.3511H3.11804V9.05792L5.50807 12.1717C6.72967 13.7398 8.34959 14.7232 10.3147 14.7232C10.9255 14.7232 11.5363 14.6435 12.2002 14.4574C10.9712 14.3293 9.05036 12.2237 5.4869 7.76135C8.85011 3.52095 10.9453 1.21582 12.2002 1.06203C11.5629 0.90254 10.9255 0.796217 10.3413 0.796217C8.66824 0.796217 7.07488 1.48724 5.72053 3.18825L3.11804 6.4751V3.66656C3.11804 1.88583 2.56037 0.317717 0.25 0.317717Z" fill="black"/>
<path d="M64.9026 1.35165C64.9781 1.35165 65.0069 1.31041 65.0069 1.25661C65.005 1.20282 64.9781 1.16129 64.9026 1.16129H64.7854V1.35165H64.9026ZM64.942 1.64429L64.8287 1.4595H64.7909V1.74661H64.6486V1.05371L64.9205 1.05197C65.0717 1.05197 65.1418 1.15048 65.1418 1.25661C65.1418 1.34987 65.0897 1.43437 64.9781 1.45569L65.0842 1.61386C65.1113 1.6551 65.1509 1.71446 65.1832 1.74311C65.1598 1.74839 65.1221 1.75011 65.0825 1.75011C65.0303 1.75011 64.9888 1.7197 64.942 1.64429ZM65.3633 1.40016C65.3633 1.11657 65.149 0.895852 64.879 0.895852C64.6092 0.895852 64.3968 1.11657 64.3968 1.40016C64.3968 1.68375 64.6092 1.90273 64.879 1.90273C65.1401 1.90273 65.3633 1.67117 65.3633 1.40016ZM64.2599 1.40016C64.2599 1.05547 64.5263 0.771856 64.879 0.771856C65.23 0.771856 65.5 1.05547 65.5 1.40016C65.5 1.72496 65.23 2.02667 64.879 2.02667C64.5263 2.02667 64.2599 1.74311 64.2599 1.40016Z" fill="black"/>
</svg>
