<svg width="37" height="36" viewBox="0 0 37 36" fill="none" xmlns="http://www.w3.org/2000/svg">
<path fill-rule="evenodd" clip-rule="evenodd" d="M0.508165 0H36.5016C36.5016 0.130672 36.5016 0.261343 36.5016 0.391632C24.5042 0.393035 12.5072 0.390738 0.510079 0.393035C0.507528 0.261981 0.507783 0.131054 0.508165 0ZM2.42871 3.4448C3.00846 3.44978 3.58847 3.44289 4.1686 3.44812C4.04153 5.73844 4.03336 8.03272 4.07776 10.325C4.0909 10.6514 4.08988 10.9781 4.11208 11.3037C5.15178 11.2991 6.19198 11.3211 7.23028 11.2577C7.70847 11.2332 8.18538 11.19 8.66128 11.1408C8.60999 11.6412 8.55832 12.1417 8.50741 12.6425C6.48007 12.6421 4.45273 12.6429 2.4254 12.6421C2.53193 10.8043 2.55018 8.96338 2.53844 7.12287C2.52861 5.89655 2.49404 4.66985 2.42871 3.4448ZM9.48395 3.44455C10.0637 3.45003 10.6438 3.4425 11.2236 3.44837C11.1363 4.96552 11.1141 6.48521 11.107 8.00427C11.1122 9.55076 11.1367 11.0976 11.2226 12.6421C10.6419 12.6425 10.0611 12.6425 9.48076 12.6421C9.55221 11.4442 9.58066 10.2443 9.59304 9.04479C9.60809 7.17749 9.58551 5.30955 9.48395 3.44455ZM12.6205 3.44544C13.9695 3.44774 15.3184 3.44582 16.6673 3.44646C17.2539 3.43536 17.8588 3.54446 18.3657 3.85226C18.7946 4.10735 19.1317 4.51404 19.2959 4.98581C19.4737 5.49407 19.4867 6.05593 19.3535 6.57607C19.2159 7.10424 18.8743 7.57601 18.4098 7.86377C18.8051 8.08134 19.1592 8.38977 19.378 8.78932C19.6876 9.33842 19.7572 9.9993 19.651 10.6145C19.5534 11.1858 19.2431 11.7236 18.7763 12.0718C18.2423 12.4795 17.5573 12.6356 16.8953 12.6425C15.4696 12.6425 14.044 12.6421 12.6182 12.6425C12.7524 10.3913 12.7466 8.1343 12.7156 5.88022C12.6953 5.06837 12.6672 4.25627 12.6205 3.44544ZM14.2262 7.27677C14.9092 7.27715 15.5921 7.27639 16.2751 7.27677C16.5266 7.27779 16.7843 7.27383 17.025 7.19114C17.2523 7.11675 17.4616 6.97855 17.6057 6.78547C17.8148 6.51163 17.8785 6.14909 17.8418 5.81233C17.8096 5.49382 17.6596 5.17977 17.4015 4.98415C17.1566 4.79337 16.8427 4.71132 16.5364 4.70456C15.7831 4.70315 15.0304 4.70583 14.2775 4.7029C14.2497 5.56068 14.231 6.4186 14.2262 7.27677ZM14.2262 8.55937C14.2255 9.50176 14.2497 10.4439 14.2756 11.386C14.9092 11.3828 15.5427 11.3858 16.1765 11.3848C16.4698 11.3828 16.769 11.4011 17.0554 11.3243C17.3634 11.2463 17.6534 11.0715 17.836 10.8075C18.077 10.4619 18.1293 10.0104 18.0414 9.60474C17.9781 9.3032 17.8031 9.02578 17.5529 8.84483C17.2784 8.64652 16.9361 8.5586 16.6007 8.5586C15.8093 8.56 15.0176 8.55834 14.2262 8.55937ZM20.6972 3.44518C21.6626 3.44812 22.6281 3.44544 23.5939 3.44646C24.0193 3.45361 24.4484 3.41941 24.8694 3.49776C25.5534 3.61108 26.2089 3.94069 26.6746 4.45917C27.0933 4.9169 27.3485 5.51372 27.4177 6.12854C27.4798 6.69628 27.4174 7.28455 27.189 7.81158C26.9555 8.36719 26.5368 8.83794 26.024 9.15224C26.5691 10.3159 27.1172 11.4782 27.6613 12.6425C27.0395 12.6408 26.4176 12.6458 25.796 12.6398C25.4119 11.6111 24.9753 10.6017 24.4866 9.61839C23.7697 9.64289 23.0508 9.62171 22.3332 9.62924C22.3577 10.6338 22.3773 11.6392 22.441 12.6425C21.859 12.6425 21.2766 12.6425 20.6945 12.6425C20.7664 11.4785 20.7923 10.3123 20.808 9.14662C20.8046 7.99317 20.8184 6.83933 20.785 5.68651C20.7707 4.9391 20.7366 4.19157 20.6972 3.44518ZM22.3753 4.77806C22.3391 5.96712 22.3201 7.15618 22.326 8.346C22.8345 8.34766 23.3431 8.34562 23.8516 8.34702C24.3357 8.35647 24.8446 8.2503 25.2274 7.93791C25.6281 7.62016 25.8264 7.10067 25.8235 6.59789C25.8379 6.11897 25.6847 5.61849 25.3332 5.28109C24.9785 4.93349 24.4722 4.78814 23.9852 4.77934C23.4486 4.77576 22.912 4.77831 22.3753 4.77806ZM28.4655 3.44646C30.4324 3.44518 32.3996 3.44837 34.3665 3.44518C34.423 3.94567 34.4703 4.44742 34.5227 4.9488C33.0718 4.77666 31.6089 4.77244 30.1499 4.77806C30.1181 5.59999 30.1022 6.42179 30.0999 7.2441C31.4688 7.2464 32.8402 7.25878 34.2046 7.13142C34.1523 7.63216 34.1023 8.13303 34.0497 8.63351C32.7334 8.59101 31.4168 8.57787 30.0999 8.58387C30.0953 9.02195 30.1068 9.4599 30.1093 9.89798C30.1273 10.3652 30.1185 10.8359 30.1564 11.3012C31.6719 11.3113 33.1917 11.3167 34.6994 11.1387C34.6539 11.6398 34.5955 12.1397 34.5491 12.6408C32.5211 12.6444 30.4931 12.6418 28.4651 12.6421C28.5916 10.4554 28.5978 8.26433 28.5652 6.0752C28.5458 5.19879 28.5183 4.32199 28.4655 3.44646ZM2.42744 14.1605C3.21132 14.1625 3.99521 14.1609 4.77872 14.1615C5.26903 14.1664 5.76087 14.1429 6.24889 14.1971C7.02486 14.2811 7.78948 14.5487 8.41721 15.0184C8.9768 15.4343 9.42003 16.002 9.69791 16.641C9.93382 17.1718 10.0585 17.7478 10.1003 18.326C10.1441 19.0205 10.089 19.7274 9.88023 20.3939C9.69919 20.9783 9.40204 21.5311 8.98956 21.9851C8.63972 22.3756 8.20822 22.6912 7.73501 22.9159C7.12846 23.2024 6.45825 23.3422 5.78932 23.3575C4.66797 23.3571 3.547 23.3579 2.42578 23.3571C2.5068 21.9868 2.53282 20.6141 2.54137 19.2418C2.54686 17.5472 2.52147 15.8527 2.42744 14.1605ZM4.11144 15.5009C4.06143 16.6495 4.05684 17.7994 4.05199 18.949C4.06245 19.9747 4.06436 21.0012 4.1117 22.0267C4.82477 22.0087 5.54959 22.0845 6.25118 21.9208C6.79597 21.7973 7.31716 21.53 7.69928 21.1175C8.13601 20.6539 8.37344 20.0342 8.4565 19.4096C8.53969 18.7628 8.50932 18.0932 8.31042 17.4691C8.13741 16.9177 7.79739 16.4129 7.32341 16.0768C6.77824 15.6816 6.09668 15.5206 5.43234 15.5013C4.99204 15.5003 4.55174 15.5015 4.11144 15.5009ZM17.9641 14.1625C18.9247 14.1599 19.8855 14.1622 20.8465 14.1615C21.1976 14.1638 21.55 14.1491 21.8988 14.1938C22.4721 14.2667 23.0325 14.48 23.4888 14.8384C23.9268 15.1765 24.2612 15.646 24.4422 16.1687C24.6738 16.8397 24.682 17.5858 24.4697 18.2626C24.2626 18.9314 23.7987 19.5086 23.204 19.8738C23.7511 21.0342 24.2959 22.1955 24.8397 23.3575C24.2195 23.3575 23.5991 23.3575 22.979 23.3575C22.591 22.3327 22.1553 21.3266 21.6735 20.3426C20.9853 20.3622 20.2961 20.3475 19.6076 20.3521C19.619 21.3543 19.6543 22.3563 19.7078 23.3575C19.1268 23.3575 18.5457 23.3579 17.9647 23.3571C18.0376 22.1714 18.0636 20.9832 18.0774 19.7957C18.0888 17.9177 18.077 16.0383 17.9641 14.1625ZM19.6468 15.5051C19.6226 16.2715 19.6024 17.0382 19.5991 17.805C19.6076 18.2238 19.5762 18.6425 19.6007 19.0613C20.1367 19.0621 20.6723 19.0613 21.2083 19.0617C21.6976 19.051 22.2055 18.8879 22.5487 18.526C22.877 18.1914 23.0162 17.7096 23.0047 17.249C23.0034 16.802 22.8561 16.3417 22.5344 16.0223C22.1758 15.6542 21.6473 15.5005 21.1436 15.5005C20.6446 15.5042 20.1455 15.4953 19.6468 15.5051ZM25.6516 14.1596C26.1543 14.1641 26.657 14.1599 27.1597 14.1619C28.1519 16.5724 29.1479 18.9817 30.1384 21.3929C31.1434 18.9865 32.1268 16.5712 33.1247 14.1615C33.6111 14.1615 34.0977 14.1611 34.584 14.1619C34.5386 15.0279 34.504 15.8946 34.4883 16.7616C34.4508 18.9601 34.4642 21.161 34.584 23.3571C34.02 23.3575 33.4559 23.3575 32.8921 23.3575C32.9454 22.4765 32.9764 21.5938 32.9901 20.7114C33.0163 19.8183 32.9951 18.9241 33.0235 18.0314C33.0137 17.8638 33.0457 17.6962 33.0202 17.5299C32.7971 18.1346 32.541 18.7272 32.3052 19.3273C31.7646 20.6706 31.2234 22.0139 30.683 23.3571C30.2948 23.3556 29.9066 23.3621 29.5185 23.354C28.8914 21.7715 28.248 20.1956 27.6153 18.6155C27.4677 18.2574 27.3299 17.8951 27.1783 17.5391C27.1792 17.9876 27.1943 18.4362 27.2015 18.8846C27.1969 20.3762 27.2269 21.8682 27.3148 23.3575C26.7592 23.3571 26.2037 23.3579 25.648 23.3571C25.6947 22.4876 25.728 21.6173 25.7444 20.7467C25.7787 18.6651 25.7705 16.5823 25.665 14.5022C25.6591 14.3879 25.6487 14.2739 25.6516 14.1596ZM10.9338 14.1622C12.872 14.1605 14.8099 14.1619 16.748 14.1615C16.8012 14.663 16.8525 15.1648 16.9026 15.6665C15.481 15.4996 14.0485 15.4921 12.6195 15.5013C12.5876 16.3228 12.5728 17.145 12.569 17.9673C13.9077 17.9696 15.2492 17.9726 16.5841 17.8507C16.5299 18.3531 16.488 18.8575 16.424 19.359C15.1401 19.3019 13.8541 19.3054 12.569 19.2989C12.5686 20.2084 12.5849 21.1175 12.6195 22.0263C14.1079 22.0335 15.5999 22.0289 17.0808 21.859C17.0315 22.3589 16.9799 22.8583 16.9273 23.3575C14.9297 23.3571 12.9321 23.3582 10.9342 23.3571C11.0194 21.9434 11.0471 20.5269 11.0498 19.1111C11.0544 17.4606 11.0339 15.81 10.9338 14.1622ZM0.508548 26.4201C12.5062 26.4201 24.5036 26.4198 36.5013 26.4205C36.5016 26.5483 36.5016 26.6759 36.5013 26.8036C24.504 26.8044 12.5062 26.804 0.508548 26.804C0.507783 26.6759 0.507783 26.5479 0.508548 26.4201ZM11.3588 29.8444C11.5799 29.8052 11.822 29.8157 12.0198 29.9316C12.2223 30.0538 12.3772 30.2716 12.3795 30.5141C12.3818 30.9711 12.3812 31.4282 12.3798 31.8849C12.3801 32.0782 12.2887 32.2631 12.1453 32.3908C11.9425 32.5822 11.6407 32.6156 11.376 32.5709C11.1252 32.531 10.9058 32.3483 10.8172 32.1112C10.7689 31.9864 10.7807 31.8502 10.7803 31.7195C10.7803 31.3176 10.7807 30.9156 10.78 30.5137C10.7768 30.1891 11.0452 29.9012 11.3588 29.8444ZM11.3863 30.1694C11.2288 30.2224 11.121 30.3801 11.1243 30.5457C11.1246 30.9991 11.1181 31.4533 11.1275 31.9064C11.1384 32.1308 11.3597 32.2834 11.572 32.2771C11.7952 32.2932 12.0307 32.1217 12.029 31.8864C12.0297 31.4265 12.0313 30.9662 12.028 30.5066C12.013 30.2021 11.6417 30.058 11.3863 30.1694ZM22.4321 29.8448C22.6693 29.8017 22.9329 29.8172 23.136 29.9594C23.2683 30.0557 23.3849 30.1874 23.4291 30.3488C23.4603 30.4536 23.4525 30.5648 23.4536 30.6732C23.4525 31.0776 23.4536 31.482 23.4532 31.8864C23.4568 32.2135 23.1893 32.5056 22.8741 32.5663C22.6523 32.608 22.4093 32.5956 22.2087 32.484C22.0008 32.3598 21.8479 32.1301 21.8524 31.8832C21.8524 31.437 21.8534 30.991 21.8521 30.5451C21.8387 30.2109 22.1082 29.9039 22.4321 29.8448ZM22.4612 30.1684C22.3178 30.2197 22.2035 30.3573 22.2045 30.5131C22.2039 30.9806 22.2028 31.4483 22.2049 31.9159C22.2169 32.1345 22.4377 32.2836 22.6448 32.2771C22.8542 32.2903 23.0838 32.1423 23.1004 31.9214C23.1046 31.4618 23.1004 31.0022 23.1025 30.5428C23.1132 30.3824 23.0034 30.2325 22.8581 30.1736C22.7323 30.1227 22.588 30.1217 22.4612 30.1684ZM33.1512 30.0764C33.4526 29.733 34.0775 29.7307 34.3548 30.1057C34.4596 30.2266 34.5105 30.3847 34.5126 30.5441C34.3985 30.5445 34.2852 30.5445 34.1719 30.5441C34.1627 30.3374 33.9902 30.1577 33.7836 30.1443C33.5951 30.1244 33.387 30.2345 33.3387 30.4259C33.2962 30.5604 33.3703 30.7 33.4703 30.7882C33.6613 30.9643 33.9236 31.0236 34.1333 31.172C34.3365 31.2994 34.5021 31.5056 34.5315 31.7496C34.5713 31.9724 34.4971 32.2112 34.3329 32.368C34.1085 32.6045 33.7434 32.6258 33.4444 32.5493C33.1113 32.461 32.8973 32.106 32.9415 31.7695C33.0548 31.7691 33.1682 31.7691 33.2819 31.7691C33.2815 31.9142 33.305 32.0779 33.4255 32.1749C33.6176 32.3272 33.9299 32.3108 34.1006 32.1324C34.2411 31.9741 34.1918 31.7228 34.0576 31.5764C33.8981 31.388 33.6496 31.3279 33.4454 31.205C33.2639 31.1031 33.0836 30.9658 33.014 30.7614C32.9425 30.5311 32.9754 30.2524 33.1512 30.0764ZM2.63119 29.8588C2.74551 29.8581 2.85983 29.8581 2.97414 29.8588C2.97414 30.6536 2.97376 31.4483 2.97453 32.2432C3.32526 32.2436 3.67637 32.2428 4.02749 32.2432C4.02749 32.3464 4.02749 32.4497 4.02749 32.5532C3.56333 32.5555 3.09918 32.5502 2.63515 32.5561C2.62596 31.6571 2.63413 30.7578 2.63119 29.8588ZM5.26533 31.3951C5.42188 30.882 5.58085 30.3673 5.75271 29.8601C5.94536 29.8572 6.1384 29.8555 6.33118 29.8624C6.48275 30.3749 6.65512 30.8812 6.80669 31.3938C6.81907 31.7796 6.80835 32.1668 6.81154 32.5532C6.69467 32.5535 6.57767 32.5535 6.46119 32.5532C6.46042 32.2677 6.46081 31.9818 6.46081 31.6964C6.17501 31.6956 5.88922 31.696 5.60343 31.696C5.60305 31.9818 5.60381 32.2673 5.60305 32.5532C5.48911 32.5535 5.3748 32.5535 5.26086 32.5532C5.2638 32.167 5.25359 31.7806 5.26533 31.3951ZM5.62525 31.3863C5.90096 31.3844 6.17667 31.3863 6.45226 31.3853C6.32454 30.9815 6.19951 30.5767 6.07014 30.1734C6.05547 30.1713 6.02612 30.1671 6.01132 30.1648C5.87162 30.5679 5.7559 30.9799 5.62525 31.3863ZM8.1184 29.8588C8.39896 29.8633 8.6808 29.8461 8.9611 29.8706C9.17723 29.8886 9.38214 30.0222 9.47553 30.2197C9.54838 30.3723 9.51725 30.5457 9.52248 30.7088C9.52325 30.8754 9.42233 31.0194 9.30469 31.1279C9.45397 31.2472 9.55782 31.4282 9.55514 31.6229C9.55221 31.8189 9.58232 32.0325 9.47808 32.2099C9.36185 32.4183 9.12378 32.5324 8.89182 32.546C8.63538 32.563 8.37804 32.5477 8.12134 32.5555C8.11445 31.6564 8.1207 30.7578 8.1184 29.8588ZM8.46952 30.1692C8.46952 30.4412 8.46952 30.713 8.46952 30.9851C8.62173 30.9828 8.77394 30.9901 8.92576 30.9828C9.05577 30.975 9.178 30.8734 9.18808 30.7398C9.20313 30.5625 9.23146 30.3256 9.04825 30.2224C8.86963 30.1342 8.66128 30.1803 8.46952 30.1692ZM8.4699 31.2877C8.46913 31.6062 8.46952 31.9247 8.46952 32.2432C8.62798 32.2396 8.78861 32.2547 8.94541 32.2256C9.09048 32.199 9.20569 32.0665 9.20837 31.9184C9.2113 31.7375 9.24753 31.518 9.10349 31.3785C8.92742 31.2282 8.67927 31.3073 8.4699 31.2877ZM13.6628 29.8584C13.9355 29.8614 14.2082 29.8522 14.4806 29.863C14.7044 29.8699 14.9094 30.0111 15.0157 30.2044C15.0986 30.3592 15.0718 30.5396 15.0754 30.7084C15.0712 30.8937 15.1018 31.0946 15.0036 31.2625C14.9402 31.3788 14.8323 31.4631 14.7155 31.5216C14.8673 31.8662 15.0274 32.2072 15.1786 32.5525C15.0513 32.5542 14.9238 32.5535 14.7967 32.5535C14.6537 32.2279 14.5107 31.9021 14.3713 31.5752C14.2494 31.5725 14.1278 31.5731 14.0061 31.5739C14.0053 31.9002 14.0064 32.2269 14.0057 32.5535C13.891 32.5535 13.7771 32.5535 13.6628 32.5532C13.6628 31.6548 13.6628 30.7568 13.6628 29.8584ZM14.0061 30.1692C14.0057 30.5336 14.0053 30.8982 14.0061 31.2632C14.1537 31.2615 14.3016 31.2657 14.4496 31.2625C14.5861 31.2546 14.7168 31.1419 14.7236 31.0014C14.7259 30.8274 14.723 30.6532 14.7247 30.4795C14.7377 30.3223 14.5976 30.187 14.4467 30.175C14.3001 30.1613 14.1527 30.1717 14.0061 30.1692ZM16.818 29.8624C17.0139 29.8559 17.2102 29.8555 17.4059 29.8626C17.5355 30.2978 17.6773 30.729 17.8119 31.1629C17.8389 31.2596 17.8856 31.3536 17.885 31.4562C17.8837 31.8218 17.8847 32.1873 17.8839 32.5532C17.7696 32.5535 17.6557 32.5535 17.5418 32.5532C17.541 32.2673 17.5418 31.9818 17.5414 31.6964C17.256 31.6954 16.9704 31.697 16.6853 31.6954C16.6823 31.9812 16.685 32.2673 16.684 32.5535C16.5667 32.5535 16.4497 32.5539 16.3329 32.5529C16.3371 32.1664 16.3241 31.779 16.3391 31.3934C16.4926 30.8812 16.6637 30.3742 16.818 29.8624ZM17.0831 30.1675C16.9478 30.5709 16.8293 30.9802 16.6999 31.3857C16.976 31.3853 17.2516 31.3857 17.5276 31.3857C17.3971 30.9813 17.2752 30.5742 17.1429 30.1704C17.1279 30.1694 17.0981 30.1681 17.0831 30.1675ZM19.1095 29.8588C19.6263 29.8584 20.1432 29.8581 20.6606 29.8588C20.6606 29.9617 20.6606 30.0649 20.6602 30.1684C20.4587 30.1701 20.2572 30.1662 20.0557 30.1707C20.0574 30.9646 20.0553 31.7587 20.057 32.5529C19.9433 32.5532 19.83 32.5529 19.7167 32.5555C19.7094 31.761 19.7144 30.9662 19.7144 30.1717C19.5128 30.1648 19.311 30.1707 19.1095 30.1684C19.1088 30.0649 19.1088 29.9617 19.1095 29.8588ZM24.7352 29.8584C25.0082 29.8614 25.2819 29.8522 25.555 29.8633C25.8591 29.8729 26.1497 30.1345 26.1482 30.4471C26.1465 30.6418 26.1507 30.8366 26.1461 31.0315C26.1357 31.2491 25.9832 31.4357 25.7889 31.5232C25.9447 31.8659 26.1005 32.2086 26.254 32.5525C26.1259 32.5542 25.9983 32.5535 25.8702 32.5535C25.7294 32.2275 25.5848 31.9031 25.4466 31.5761C25.3237 31.5716 25.201 31.5735 25.0785 31.5739C25.0777 31.9002 25.0785 32.2269 25.0781 32.5535C24.9634 32.5535 24.8495 32.5535 24.7352 32.5532C24.7352 31.6552 24.7352 30.7568 24.7352 29.8584ZM25.0785 30.1692C25.0781 30.5336 25.0777 30.8982 25.0785 31.2632C25.2839 31.2383 25.5256 31.3262 25.7029 31.1884C25.8401 31.0802 25.7872 30.8904 25.7963 30.7405C25.7849 30.5725 25.8473 30.3596 25.6895 30.2419C25.5122 30.1179 25.28 30.1868 25.0785 30.1692ZM27.4138 29.8584C27.9308 29.8584 28.4475 29.8584 28.9645 29.8584C28.9649 29.9617 28.9649 30.0649 28.9645 30.1688C28.7637 30.1688 28.5629 30.1694 28.3619 30.1681C28.359 30.8597 28.3613 31.5513 28.3606 32.2432C28.5618 32.2432 28.7633 32.2428 28.9645 32.2432C28.9649 32.3464 28.9649 32.4497 28.9645 32.5535C28.4475 32.5535 27.9304 32.5539 27.4134 32.5532C27.4131 32.4497 27.4131 32.3464 27.4134 32.2432C27.6147 32.2428 27.8159 32.2432 28.0173 32.2432C28.0181 31.5519 28.0177 30.8603 28.0173 30.169C27.8171 30.1694 27.6169 30.1669 27.4168 30.1707C27.4122 30.0666 27.4124 29.9623 27.4138 29.8584ZM30.304 29.8584C30.7642 29.8588 31.2241 29.8578 31.6844 29.8588C31.6834 29.9613 31.6836 30.0639 31.685 30.1671C31.3394 30.1707 30.9935 30.1684 30.648 30.1681C30.6457 30.4377 30.6474 30.7074 30.6474 30.9773C30.9599 30.9777 31.2728 30.9769 31.5856 30.9777C31.586 31.0805 31.586 31.1842 31.5856 31.2877C31.2728 31.2877 30.9599 31.2873 30.6474 31.2877C30.6466 31.6062 30.647 31.9247 30.6474 32.2432C31.0037 32.2436 31.3601 32.2426 31.7167 32.2436C31.717 32.3471 31.7173 32.4513 31.7137 32.5552C31.2441 32.5512 30.7741 32.5548 30.3044 32.5535C30.3036 31.6552 30.3036 30.7568 30.304 29.8584ZM0.5 35.6149C1.26169 35.5988 2.02439 35.6126 2.78672 35.608C14.0247 35.608 25.263 35.6076 36.5013 35.6084C36.502 35.7387 36.502 35.8693 36.5006 36H0.5V35.6149Z" fill="#1B212B"/>
</svg>
