<svg width="40" height="40" viewBox="0 0 40 40" fill="none" xmlns="http://www.w3.org/2000/svg">
<rect width="40" height="40" rx="20" fill="#024650"/>
<path d="M26.375 12.1875H13.5918C13.0273 12.1875 12.5625 12.6855 12.5625 13.2832V26C12.5625 26.5977 13.0273 27.0625 13.5918 27.0625H26.375C26.9395 27.0625 27.4375 26.5977 27.4375 26V13.2832C27.4375 12.6855 26.9395 12.1875 26.375 12.1875ZM17.0449 24.9375H14.8535V17.8652H17.0449V24.9375ZM15.9492 16.8691C15.2188 16.8691 14.6543 16.3047 14.6543 15.6074C14.6543 14.9102 15.2188 14.3125 15.9492 14.3125C16.6465 14.3125 17.2109 14.9102 17.2109 15.6074C17.2109 16.3047 16.6465 16.8691 15.9492 16.8691ZM25.3125 24.9375H23.0879V21.4844C23.0879 20.6875 23.0879 19.625 21.959 19.625C20.7969 19.625 20.6309 20.5215 20.6309 21.4512V24.9375H18.4395V17.8652H20.5312V18.8281H20.5645C20.8633 18.2637 21.5938 17.666 22.6562 17.666C24.8809 17.666 25.3125 19.1602 25.3125 21.0527V24.9375Z" fill="white"/>
</svg>
