<svg width="100" height="48" viewBox="0 0 100 48" fill="none" xmlns="http://www.w3.org/2000/svg">
<path d="M19.4724 35.9157C19.1696 34.2464 19.0688 32.1724 19.0688 30.0478V20.8919C19.0688 15.9849 17.2528 10.8759 9.78672 10.8759C6.70945 10.8759 3.78346 11.7358 1.76556 13.0511L2.77451 15.9849C4.48984 14.8721 6.86073 14.1639 9.13077 14.1639C14.1251 14.1639 14.68 17.8061 14.68 19.8296V20.3355C5.24645 20.2847 0 23.5223 0 29.4408C0 32.9817 2.52237 36.4722 7.46606 36.4722C10.947 36.4722 13.5702 34.7523 14.9321 32.83H15.0836L15.4366 35.9157H19.4724ZM14.7808 27.6702C14.7808 28.1255 14.68 28.6314 14.5287 29.0867C13.8223 31.1607 11.8044 33.1841 8.62629 33.1841C6.35626 33.1841 4.43941 31.8183 4.43941 28.935C4.43941 24.1799 9.938 23.3199 14.7808 23.421V27.6702ZM26.8575 35.9157H31.2967V-7.21278e-05H26.8575V35.9157ZM88.1091 24.4833C88.1595 24.0282 88.2605 23.3199 88.2605 22.4093C88.2605 17.9073 86.1418 10.8759 78.1711 10.8759C71.0582 10.8759 66.7198 16.6933 66.7198 24.0788C66.7198 31.4643 71.2095 36.4216 78.7262 36.4216C82.6105 36.4216 85.2841 35.6121 86.848 34.904L86.0912 31.7171C84.4265 32.4252 82.5096 32.9817 79.3315 32.9817C74.8921 32.9817 71.0582 30.5031 70.9573 24.4833H88.1091ZM71.0078 21.2964C71.3609 18.2109 73.3282 14.0628 77.8181 14.0628C82.8122 14.0628 84.023 18.4637 83.9724 21.2964H71.0078Z" fill="white"/>
<path d="M92.4372 12.5791V7.87166H88.0035V4.73356H92.4372V-0.000161432H95.5671V4.73356H100V7.87166H95.5671V12.5791H92.4372Z" fill="white"/>
<path d="M18.2057 46.2286C18.2912 46.1713 18.3604 46.0964 18.4132 46.004C18.466 45.9118 18.5032 45.8041 18.5251 45.6812C18.5469 45.5582 18.5579 45.4331 18.5579 45.3059C18.5579 45.1789 18.5459 45.0537 18.5223 44.9308C18.4987 44.8078 18.4597 44.6982 18.4051 44.6018C18.3503 44.5054 18.2802 44.4275 18.1949 44.3679C18.1092 44.3086 18.0046 44.2788 17.8809 44.2788C17.7535 44.2788 17.6471 44.3086 17.5616 44.3679C17.4759 44.4275 17.4068 44.5044 17.3542 44.5986C17.3014 44.693 17.264 44.8017 17.2423 44.9247C17.2204 45.0476 17.2094 45.1748 17.2094 45.3059C17.2094 45.4331 17.2212 45.5582 17.2449 45.6812C17.2685 45.8041 17.3067 45.9118 17.3595 46.004C17.4123 46.0964 17.4824 46.1713 17.5697 46.2286C17.6571 46.2861 17.7625 46.3147 17.8864 46.3147C18.0137 46.3147 18.1203 46.2861 18.2057 46.2286ZM17.1986 43.7068V44.1127H17.2094C17.304 43.9404 17.4241 43.8154 17.5697 43.7376C17.7153 43.6598 17.8754 43.6206 18.0501 43.6206C18.2721 43.6206 18.4632 43.6679 18.6233 43.7621C18.7835 43.8565 18.9163 43.9815 19.0218 44.1374C19.1274 44.2932 19.2056 44.4747 19.2566 44.6818C19.3075 44.8888 19.3331 45.1051 19.3331 45.3306C19.3331 45.5438 19.3075 45.7488 19.2566 45.9457C19.2056 46.1425 19.1284 46.3169 19.0246 46.4684C18.9208 46.6203 18.7916 46.7412 18.6369 46.8314C18.4823 46.9215 18.3013 46.9667 18.0939 46.9667C17.9191 46.9667 17.758 46.9266 17.6107 46.8466C17.4633 46.7668 17.3422 46.6489 17.2476 46.4931H17.2368V48H16.4615V43.7068H17.1986ZM21.1367 42.4951V44.1496H21.153C21.2513 43.9651 21.377 43.8308 21.5298 43.7467C21.6827 43.6627 21.8318 43.6206 21.9774 43.6206C22.1848 43.6206 22.355 43.6524 22.4878 43.7161C22.6207 43.7797 22.7253 43.8678 22.8018 43.9805C22.8782 44.0933 22.9318 44.2306 22.9627 44.3926C22.9936 44.5545 23.0092 44.7339 23.0092 44.9308V46.8867H22.2341V45.0906C22.2341 44.8283 22.1976 44.6324 22.1247 44.5034C22.052 44.3742 21.9228 44.3096 21.7373 44.3096C21.5261 44.3096 21.3732 44.3803 21.2787 44.5218C21.1839 44.6632 21.1367 44.8961 21.1367 45.2198V46.8867H20.3615V42.4951H21.1367ZM24.8941 44.6847C24.9087 44.5125 24.9597 44.3894 25.047 44.3157C25.1344 44.2419 25.2544 44.2049 25.4073 44.2049C25.4764 44.2049 25.541 44.2103 25.6011 44.2203C25.6612 44.2306 25.714 44.2511 25.7595 44.282C25.805 44.3126 25.8414 44.3556 25.8686 44.4109C25.896 44.4665 25.9096 44.5413 25.9096 44.6355C25.9131 44.7258 25.8895 44.7945 25.8387 44.8416C25.7876 44.8888 25.7185 44.9247 25.6312 44.9492C25.5438 44.9739 25.4437 44.9923 25.3308 45.0045C25.218 45.017 25.1033 45.0334 24.9869 45.0537C24.8705 45.0744 24.7548 45.1021 24.6404 45.1369C24.5258 45.1716 24.4237 45.224 24.3347 45.2937C24.2454 45.3634 24.1726 45.4567 24.1162 45.5736C24.0597 45.6903 24.0315 45.8391 24.0315 46.0194C24.0315 46.1835 24.0561 46.325 24.1054 46.4439C24.1544 46.5628 24.2226 46.6612 24.3101 46.7392C24.3973 46.817 24.4992 46.8745 24.6158 46.9112C24.7322 46.9482 24.8577 46.9667 24.9924 46.9667C25.1671 46.9667 25.3381 46.9379 25.5056 46.8806C25.673 46.8231 25.8186 46.7228 25.9423 46.5792C25.9458 46.6325 25.9523 46.6849 25.9614 46.736C25.9704 46.7874 25.9823 46.8376 25.9968 46.8867H26.783C26.7465 46.8212 26.7211 46.7228 26.7066 46.5914C26.692 46.4603 26.6847 46.323 26.6847 46.1794V44.5249C26.6847 44.3321 26.6465 44.1773 26.57 44.0605C26.4936 43.9436 26.3953 43.8523 26.2754 43.7868C26.1552 43.7212 26.0222 43.6771 25.8769 43.6544C25.7311 43.6319 25.5875 43.6206 25.4455 43.6206C25.2891 43.6206 25.1334 43.6382 24.9788 43.673C24.824 43.7078 24.6849 43.7662 24.5612 43.8482C24.4373 43.9304 24.3355 44.039 24.2555 44.1743C24.1753 44.3096 24.1298 44.4797 24.119 44.6847H24.8941ZM25.9096 45.6565C25.9096 45.7057 25.905 45.7713 25.896 45.8535C25.8867 45.9355 25.8623 46.0164 25.8223 46.0964C25.7821 46.1762 25.7203 46.245 25.6365 46.3025C25.5528 46.3599 25.4346 46.3886 25.2818 46.3886C25.2197 46.3886 25.1598 46.3823 25.1015 46.37C25.0434 46.3578 24.9924 46.3362 24.9487 46.3054C24.9051 46.2748 24.8705 46.2327 24.8451 46.1794C24.8195 46.1261 24.8069 46.0605 24.8069 45.9825C24.8069 45.9005 24.8195 45.8329 24.8451 45.7796C24.8705 45.7263 24.9042 45.6822 24.9459 45.6473C24.9879 45.6125 25.0369 45.5848 25.0935 45.5643C25.1498 45.5438 25.2071 45.5274 25.2654 45.5151C25.3273 45.5029 25.3891 45.4926 25.451 45.4843C25.5128 45.4762 25.5719 45.4659 25.6285 45.4535C25.6848 45.4412 25.7376 45.4258 25.7866 45.4075C25.8359 45.3891 25.8769 45.3634 25.9096 45.3306V45.6565ZM28.5801 43.7068V44.2972H28.5911C28.6273 44.1988 28.6764 44.1075 28.7384 44.0236C28.8003 43.9395 28.8712 43.8678 28.9514 43.8083C29.0314 43.7488 29.1168 43.7028 29.2079 43.6698C29.2989 43.637 29.3936 43.6206 29.4917 43.6206C29.5427 43.6206 29.5991 43.6309 29.6609 43.6515V44.4633C29.6247 44.4552 29.5809 44.4479 29.5299 44.4418C29.4789 44.4356 29.4299 44.4325 29.3826 44.4325C29.2407 44.4325 29.1206 44.4593 29.0223 44.5125C28.924 44.5658 28.8448 44.6387 28.7847 44.7309C28.7249 44.8232 28.6819 44.9308 28.6565 45.0537C28.6311 45.1768 28.6183 45.3101 28.6183 45.4535V46.8867H27.8432V43.7068H28.5801ZM31.2817 43.7068V44.1374H31.2927C31.3946 43.9734 31.5173 43.8462 31.6613 43.756C31.8049 43.6659 31.9696 43.6206 32.1553 43.6206C32.3336 43.6206 32.4965 43.6598 32.6438 43.7376C32.7912 43.8154 32.9031 43.9529 32.9795 44.1496C33.0632 44.0104 33.1769 43.8873 33.3207 43.7806C33.4645 43.674 33.6347 43.6206 33.8312 43.6206C33.9804 43.6206 34.1186 43.6412 34.2461 43.6821C34.3733 43.7232 34.4827 43.7889 34.5737 43.879C34.6645 43.9693 34.7356 44.0872 34.7866 44.2326C34.8374 44.3784 34.863 44.5536 34.863 44.7586V46.8867H34.0877V45.0845C34.0877 44.978 34.0842 44.8775 34.0769 44.7831C34.0696 44.6889 34.0495 44.6069 34.0168 44.5372C33.9841 44.4674 33.9358 44.4121 33.8722 44.371C33.8084 44.3302 33.7219 44.3096 33.6128 44.3096C33.5037 44.3096 33.4154 44.3331 33.348 44.3803C33.2807 44.4275 33.2279 44.489 33.1897 44.5648C33.1515 44.6407 33.126 44.7268 33.1132 44.8232C33.1004 44.9196 33.0941 45.017 33.0941 45.1153V46.8867H32.319V45.1031C32.319 45.0087 32.3172 44.9154 32.3135 44.8232C32.3099 44.7309 32.2944 44.6458 32.2672 44.5678C32.2398 44.49 32.1943 44.4275 32.1307 44.3803C32.0669 44.3331 31.9733 44.3096 31.8496 44.3096C31.8132 44.3096 31.7649 44.3187 31.7048 44.3373C31.6447 44.3556 31.5866 44.3906 31.5301 44.4418C31.4738 44.4931 31.4255 44.567 31.3855 44.6632C31.3453 44.7596 31.3254 44.8856 31.3254 45.0415V46.8867H30.5503V43.7068H31.2817ZM38.8262 44.6847C38.8407 44.5125 38.8917 44.3894 38.979 44.3157C39.0665 44.2419 39.1866 44.2049 39.3393 44.2049C39.4084 44.2049 39.4732 44.2103 39.5331 44.2203C39.5932 44.2306 39.646 44.2511 39.6915 44.282C39.737 44.3126 39.7734 44.3556 39.8006 44.4109C39.828 44.4665 39.8416 44.5413 39.8416 44.6355C39.8451 44.7258 39.8215 44.7945 39.7707 44.8416C39.7197 44.8888 39.6505 44.9247 39.5633 44.9492C39.4758 44.9739 39.3757 44.9923 39.2631 45.0045C39.1502 45.017 39.0355 45.0334 38.9191 45.0537C38.8025 45.0744 38.6871 45.1021 38.5724 45.1369C38.4578 45.1716 38.3558 45.224 38.2667 45.2937C38.1775 45.3634 38.1046 45.4567 38.0483 45.5736C37.9919 45.6903 37.9638 45.8391 37.9638 46.0194C37.9638 46.1835 37.9882 46.325 38.0374 46.4439C38.0865 46.5628 38.1548 46.6612 38.2421 46.7392C38.3294 46.817 38.4314 46.8745 38.5478 46.9112C38.6642 46.9482 38.7899 46.9667 38.9245 46.9667C39.0992 46.9667 39.2702 46.9379 39.4376 46.8806C39.605 46.8231 39.7506 46.7228 39.8743 46.5792C39.878 46.6325 39.8843 46.6849 39.8934 46.736C39.9025 46.7874 39.9145 46.8376 39.9291 46.8867H40.715C40.6786 46.8212 40.6532 46.7228 40.6386 46.5914C40.624 46.4603 40.6167 46.323 40.6167 46.1794V44.5249C40.6167 44.3321 40.5787 44.1773 40.5023 44.0605C40.4259 43.9436 40.3276 43.8523 40.2074 43.7868C40.0872 43.7212 39.9545 43.6771 39.8089 43.6544C39.6633 43.6319 39.5195 43.6206 39.3777 43.6206C39.2211 43.6206 39.0655 43.6382 38.9109 43.673C38.7562 43.7078 38.617 43.7662 38.4933 43.8482C38.3695 43.9304 38.2675 44.039 38.1875 44.1743C38.1074 44.3096 38.0621 44.4797 38.051 44.6847H38.8262ZM39.8416 45.6565C39.8416 45.7057 39.8371 45.7713 39.828 45.8535C39.8189 45.9355 39.7943 46.0164 39.7543 46.0964C39.7142 46.1762 39.6523 46.245 39.5688 46.3025C39.4849 46.3599 39.3667 46.3886 39.2138 46.3886C39.152 46.3886 39.0919 46.3823 39.0338 46.37C38.9755 46.3578 38.9244 46.3362 38.8809 46.3054C38.8372 46.2748 38.8025 46.2327 38.7771 46.1794C38.7517 46.1261 38.7389 46.0605 38.7389 45.9825C38.7389 45.9005 38.7517 45.8329 38.7771 45.7796C38.8025 45.7263 38.8362 45.6822 38.8782 45.6473C38.9199 45.6125 38.969 45.5848 39.0255 45.5643C39.0818 45.5438 39.1392 45.5274 39.1975 45.5151C39.2593 45.5029 39.3212 45.4926 39.383 45.4843C39.4449 45.4762 39.504 45.4659 39.5605 45.4535C39.6168 45.4412 39.6696 45.4258 39.7189 45.4075C39.7679 45.3891 39.8089 45.3634 39.8416 45.3306V45.6565ZM42.5121 43.7068V44.1496H42.5287C42.6268 43.9651 42.7542 43.8308 42.9108 43.7467C43.0672 43.6627 43.2274 43.6206 43.391 43.6206C43.5985 43.6206 43.7687 43.6524 43.9016 43.7161C44.0344 43.7797 44.139 43.8678 44.2154 43.9805C44.2918 44.0933 44.3454 44.2306 44.3766 44.3926C44.4073 44.5545 44.4228 44.7339 44.4228 44.9308V46.8867H43.6477V45.0906C43.6477 44.8283 43.6113 44.6324 43.5386 44.5034C43.4657 44.3742 43.3365 44.3096 43.1509 44.3096C42.9398 44.3096 42.7869 44.3803 42.6923 44.5218C42.5976 44.6632 42.5503 44.8961 42.5503 45.2198V46.8867H41.7752V43.7068H42.5121ZM47.5362 44.9093C47.5143 44.7884 47.4769 44.6818 47.4243 44.5893C47.3715 44.4971 47.3031 44.4224 47.2196 44.3649C47.1357 44.3074 47.0303 44.2788 46.9029 44.2788C46.7754 44.2788 46.6681 44.3074 46.5808 44.3649C46.4935 44.4224 46.4234 44.4983 46.3706 44.5925C46.3178 44.6869 46.2796 44.7945 46.256 44.9154C46.2323 45.0363 46.2205 45.1625 46.2205 45.2937C46.2205 45.4168 46.2331 45.5396 46.2587 45.6627C46.2841 45.7857 46.3251 45.8956 46.3814 45.9918C46.438 46.0881 46.5089 46.1662 46.5944 46.2254C46.6799 46.2851 46.7827 46.3147 46.9029 46.3147C47.0303 46.3147 47.1367 46.2861 47.2222 46.2286C47.3077 46.1713 47.376 46.0943 47.427 45.9979C47.4779 45.9017 47.5143 45.7919 47.5362 45.6688C47.558 45.5459 47.5689 45.4187 47.5689 45.2876C47.5689 45.1564 47.558 45.0302 47.5362 44.9093ZM47.5689 46.4808C47.4779 46.6531 47.3587 46.7771 47.2113 46.853C47.064 46.9286 46.8973 46.9667 46.7118 46.9667C46.5006 46.9667 46.3151 46.9205 46.1549 46.8283C45.9948 46.736 45.863 46.611 45.7592 46.4532C45.6556 46.2953 45.5772 46.1138 45.5244 45.9088C45.4716 45.7038 45.4454 45.4904 45.4454 45.269C45.4454 45.0559 45.4716 44.8499 45.5244 44.6509C45.5772 44.452 45.6556 44.2768 45.7592 44.1249C45.863 43.9734 45.993 43.8514 46.1496 43.7591C46.306 43.6669 46.488 43.6206 46.6954 43.6206C46.8629 43.6206 47.022 43.6605 47.1731 43.7405C47.324 43.8205 47.4434 43.9385 47.5306 44.0943H47.5417V42.4951H48.3168V46.8867H47.5799V46.4808H47.5689ZM53.5412 44.9123C53.5156 44.7892 53.4756 44.6808 53.421 44.5864C53.3665 44.4921 53.2981 44.4173 53.2164 44.3618C53.1344 44.3065 53.0352 44.2788 52.9187 44.2788C52.8059 44.2788 52.7078 44.3065 52.624 44.3618C52.5403 44.4173 52.4712 44.4921 52.4166 44.5864C52.3621 44.6808 52.3219 44.7892 52.2965 44.9123C52.2711 45.0353 52.2582 45.1645 52.2582 45.2998C52.2582 45.4312 52.2711 45.5582 52.2965 45.6812C52.3219 45.8041 52.3621 45.9129 52.4166 46.0072C52.4712 46.1016 52.5403 46.1762 52.624 46.2317C52.7078 46.2871 52.8059 46.3147 52.9187 46.3147C53.0352 46.3147 53.1344 46.2871 53.2164 46.2317C53.2981 46.1762 53.3665 46.1016 53.421 46.0072C53.4756 45.9129 53.5156 45.8041 53.5412 45.6812C53.5666 45.5582 53.5794 45.4312 53.5794 45.2998C53.5794 45.1645 53.5666 45.0353 53.5412 44.9123ZM52.2856 42.4951V44.0943H52.2965C52.391 43.9304 52.5193 43.8105 52.6814 43.7344C52.8433 43.6586 53.0117 43.6206 53.1862 43.6206C53.3283 43.6206 53.4683 43.6534 53.6066 43.719C53.7449 43.7848 53.8696 43.8851 53.9807 44.0204C54.0916 44.1557 54.1816 44.329 54.2507 44.5401C54.3199 44.7515 54.3545 45.0025 54.3545 45.2937C54.3545 45.5848 54.3199 45.8359 54.2507 46.0471C54.1816 46.2584 54.0916 46.4316 53.9807 46.5669C53.8696 46.7023 53.7449 46.8028 53.6066 46.8682C53.4683 46.9338 53.3283 46.9667 53.1862 46.9667C52.9788 46.9667 52.7933 46.9298 52.6296 46.8559C52.4657 46.7821 52.342 46.657 52.2582 46.4808H52.2474V46.8867H51.5103V42.4951H52.2856ZM57.0993 44.451C57.0065 44.3363 56.8655 44.2788 56.6762 44.2788C56.5525 44.2788 56.4497 44.3025 56.3679 44.3495C56.286 44.3967 56.2204 44.4552 56.1713 44.5249C56.1223 44.5946 56.0876 44.6683 56.0675 44.7463C56.0476 44.8242 56.0356 44.8939 56.0321 44.9553H57.2931C57.2567 44.7339 57.1921 44.5658 57.0993 44.451ZM56.2231 46.1241C56.3395 46.2511 56.507 46.3147 56.7254 46.3147C56.8818 46.3147 57.0166 46.2707 57.1295 46.1824C57.2421 46.0943 57.3113 46.001 57.3369 45.9027H58.0192C57.9101 46.2839 57.7427 46.5567 57.5169 46.7206C57.2914 46.8848 57.0184 46.9667 56.6981 46.9667C56.4761 46.9667 56.2759 46.9266 56.0977 46.8466C55.9192 46.7668 55.7681 46.6531 55.6446 46.5053C55.5207 46.3578 55.4252 46.1816 55.358 45.9763C55.2906 45.7713 55.2569 45.5459 55.2569 45.2998C55.2569 45.062 55.2914 44.8406 55.3607 44.6355C55.4297 44.4305 55.528 44.2533 55.6554 44.1034C55.7829 43.9539 55.9347 43.8359 56.1112 43.7498C56.2877 43.6637 56.4833 43.6206 56.6981 43.6206C56.9384 43.6206 57.1476 43.673 57.3258 43.7775C57.5041 43.882 57.6507 44.0226 57.7653 44.1988C57.88 44.3752 57.9627 44.5761 58.0137 44.8017C58.0647 45.0272 58.0829 45.2629 58.0683 45.509H56.0321C56.0431 45.7919 56.1067 45.9969 56.2231 46.1241ZM59.7972 44.6847C59.8118 44.5125 59.8628 44.3894 59.9501 44.3157C60.0373 44.2419 60.1575 44.2049 60.3103 44.2049C60.3795 44.2049 60.4441 44.2103 60.5042 44.2203C60.5642 44.2306 60.6168 44.2511 60.6625 44.282C60.708 44.3126 60.7443 44.3556 60.7717 44.4109C60.7991 44.4665 60.8126 44.5413 60.8126 44.6355C60.8162 44.7258 60.7926 44.7945 60.7417 44.8416C60.6907 44.8888 60.6216 44.9247 60.5341 44.9492C60.4468 44.9739 60.3468 44.9923 60.2339 45.0045C60.121 45.017 60.0064 45.0334 59.89 45.0537C59.7736 45.0744 59.6579 45.1021 59.5433 45.1369C59.4286 45.1716 59.3268 45.224 59.2376 45.2937C59.1485 45.3634 59.0756 45.4567 59.0193 45.5736C58.9628 45.6903 58.9346 45.8391 58.9346 46.0194C58.9346 46.1835 58.9592 46.325 59.0083 46.4439C59.0575 46.5628 59.1257 46.6612 59.2131 46.7392C59.3004 46.817 59.4022 46.8745 59.5189 46.9112C59.6353 46.9482 59.7608 46.9667 59.8955 46.9667C60.0702 46.9667 60.2412 46.9379 60.4086 46.8806C60.5761 46.8231 60.7216 46.7228 60.8453 46.5792C60.8489 46.6325 60.8554 46.6849 60.8645 46.736C60.8735 46.7874 60.8853 46.8376 60.8999 46.8867H61.6861C61.6496 46.8212 61.6242 46.7228 61.6096 46.5914C61.5951 46.4603 61.5878 46.323 61.5878 46.1794V44.5249C61.5878 44.3321 61.5496 44.1773 61.4731 44.0605C61.3967 43.9436 61.2984 43.8523 61.1784 43.7868C61.0583 43.7212 60.9253 43.6771 60.7799 43.6544C60.6342 43.6319 60.4906 43.6206 60.3486 43.6206C60.1921 43.6206 60.0365 43.6382 59.8819 43.673C59.7271 43.7078 59.5878 43.7662 59.4643 43.8482C59.3404 43.9304 59.2385 44.039 59.1586 44.1743C59.0784 44.3096 59.0329 44.4797 59.0221 44.6847H59.7972ZM60.8126 45.6565C60.8126 45.7057 60.8079 45.7713 60.7991 45.8535C60.7898 45.9355 60.7654 46.0164 60.7252 46.0964C60.6852 46.1762 60.6233 46.245 60.5396 46.3025C60.4559 46.3599 60.3377 46.3886 60.1849 46.3886C60.1228 46.3886 60.0629 46.3823 60.0046 46.37C59.9463 46.3578 59.8955 46.3362 59.8518 46.3054C59.8082 46.2748 59.7736 46.2327 59.7481 46.1794C59.7225 46.1261 59.7099 46.0605 59.7099 45.9825C59.7099 45.9005 59.7225 45.8329 59.7481 45.7796C59.7736 45.7263 59.8072 45.6822 59.849 45.6473C59.891 45.6125 59.94 45.5848 59.9965 45.5643C60.0529 45.5438 60.1102 45.5274 60.1685 45.5151C60.2304 45.5029 60.292 45.4926 60.3541 45.4843C60.4159 45.4762 60.475 45.4659 60.5315 45.4535C60.5879 45.4412 60.6407 45.4258 60.6897 45.4075C60.739 45.3891 60.7799 45.3634 60.8126 45.3306V45.6565ZM64.6323 46.8867V46.4439H64.616C64.5177 46.6284 64.3903 46.7617 64.2338 46.8437C64.0772 46.9257 63.9171 46.9667 63.7534 46.9667C63.546 46.9667 63.3758 46.9359 63.243 46.8745C63.1101 46.8129 63.0055 46.7258 62.929 46.613C62.8526 46.5002 62.7988 46.3629 62.7681 46.2009C62.737 46.039 62.7216 45.8596 62.7216 45.6627V43.7068H63.4967V45.5029C63.4967 45.7652 63.5332 45.9609 63.6061 46.0901C63.6788 46.2193 63.808 46.2839 63.9935 46.2839C64.2047 46.2839 64.3576 46.2132 64.4521 46.0717C64.5467 45.9303 64.5941 45.6976 64.5941 45.3737V43.7068H65.3693V46.8867H64.6323ZM68.0709 43.7068V44.291H67.5032V45.8657C67.5032 46.0133 67.5251 46.1116 67.5688 46.1608C67.6123 46.2102 67.6998 46.2347 67.8308 46.2347C67.8745 46.2347 67.9163 46.2327 67.9562 46.2286C67.9962 46.2246 68.0344 46.2183 68.0709 46.2102V46.8867C68.0055 46.899 67.9326 46.9071 67.8526 46.9112C67.7725 46.9154 67.6943 46.9176 67.6178 46.9176C67.4977 46.9176 67.384 46.9083 67.2767 46.8897C67.1693 46.8713 67.0747 46.8356 66.9928 46.7821C66.9109 46.7289 66.8462 46.6531 66.799 46.5545C66.7517 46.4561 66.7281 46.327 66.7281 46.1672V44.291H66.2584V43.7068H66.7281V42.7533H67.5032V43.7068H68.0709ZM70.1906 47.8339C70.0413 47.9447 69.8339 48 69.5684 48C69.4882 48 69.409 47.9968 69.3308 47.9907C69.2526 47.9846 69.1734 47.9775 69.0934 47.9692V47.2496C69.1661 47.2577 69.2408 47.266 69.3172 47.2743C69.3936 47.2824 69.4701 47.2844 69.5465 47.2804C69.6483 47.268 69.724 47.2229 69.773 47.1451C69.8223 47.0671 69.8467 46.981 69.8467 46.8867C69.8467 46.817 69.8359 46.7514 69.814 46.6898L68.8259 43.7068H69.6501L70.2889 45.8841H70.2998L70.9167 43.7068H71.7192L70.5401 47.2804C70.4564 47.5388 70.3399 47.7233 70.1906 47.8339Z" fill="white"/>
<path d="M40.7479 14.9487C40.9337 15.7221 41.256 16.399 41.696 17.0222C42.2348 17.7854 42.8791 18.4495 43.6105 19.0237C44.5887 19.7919 45.5721 20.5551 46.5757 21.2891C47.3896 21.8843 48.242 22.4263 49.0681 23.0049C50.0597 23.6994 50.9985 24.4583 51.8184 25.3562C52.7608 26.3889 53.4666 27.5541 53.7939 28.9275C54.0209 29.88 54.0603 30.8391 53.9074 31.8112C53.7894 32.5626 53.675 33.3151 53.4411 34.0381C53.2609 34.5961 53.0222 35.1353 52.7996 35.6789C52.6369 36.0766 52.6298 36.073 52.2082 36.1585C50.8618 36.4317 49.5068 36.5097 48.1387 36.3618C45.9002 36.1196 43.8804 35.337 42.1296 33.904C40.4398 32.5211 39.2936 30.7601 38.5882 28.7003C38.2066 27.5857 37.9785 26.4396 37.8875 25.2653C37.7213 23.1222 37.8931 21.0148 38.5602 18.9613C39.0111 17.5733 39.6694 16.2955 40.5813 15.1532C40.6297 15.0923 40.6796 15.0325 40.7479 14.9487ZM42.2653 23.0961C44.0726 33.1081 48.4226 29.1752 52.5587 36.04C50.9542 26.3148 48.0661 29.8187 42.2653 23.0961Z" fill="white"/>
<path d="M44.0698 17.2835C43.2685 16.502 42.5722 15.6778 42.3259 14.5629C42.2479 14.2101 42.2462 13.853 42.3169 13.4994C42.3313 13.4279 42.3927 13.3525 42.453 13.3057C43.6572 12.3722 44.9998 11.7185 46.4671 11.3195C47.9228 10.9235 49.4051 10.7987 50.9063 10.9059C53.0779 11.061 55.0844 11.7049 56.8619 12.9894C58.7616 14.362 60.0428 16.1975 60.8296 18.3936C61.2444 19.5511 61.4912 20.7459 61.5905 21.9713C61.7654 24.1279 61.6039 26.2506 60.944 28.3214C60.3667 30.1331 59.43 31.7291 58.0763 33.068C57.1426 33.9914 56.0752 34.7252 54.8819 35.2732C54.8499 35.2878 54.8159 35.2982 54.7481 35.3237C54.8454 35.0346 54.925 34.7707 55.0223 34.5133C55.7289 32.6431 56.3086 30.736 56.6801 28.7692C56.9328 27.432 57.0894 26.0844 57.079 24.7205C57.0741 24.0807 57.1137 23.4386 57.0721 22.8014C56.934 20.6781 56.3854 18.681 55.1232 16.9338C54.1684 15.612 52.9132 14.7036 51.2997 14.3848C49.2448 13.9788 47.3254 14.3061 45.6238 15.5976C45.063 16.0232 44.5922 16.54 44.1872 17.1165C44.1528 17.1655 44.1185 17.2143 44.0698 17.2835Z" fill="white"/>
</svg>
