<svg width="176" height="40" viewBox="0 0 176 40" fill="none" xmlns="http://www.w3.org/2000/svg">
<path d="M18.4987 37.0688C18.2111 35.4572 18.1153 33.4548 18.1153 31.4036V22.5641C18.1153 17.8267 16.3901 12.8942 9.29735 12.8942C6.37395 12.8942 3.59427 13.7243 1.67728 14.9942L2.63577 17.8267C4.26533 16.7523 6.51767 16.0686 8.67419 16.0686C13.4188 16.0686 13.9459 19.5849 13.9459 21.5385V22.0269C4.98411 21.9779 0 25.1036 0 30.8176C0 34.2361 2.39624 37.606 7.09273 37.606C10.3996 37.606 12.8916 35.9456 14.1855 34.0897H14.3294L14.6647 37.0688H18.4987ZM14.0417 29.1082C14.0417 29.5477 13.9459 30.0361 13.8022 30.4757C13.1312 32.4781 11.2142 34.4316 8.19495 34.4316C6.03842 34.4316 4.21742 33.1129 4.21742 30.3292C4.21742 25.7385 9.44107 24.9082 14.0417 25.0058V29.1082ZM25.5145 37.0688H29.7318V2.394H25.5145V37.0688ZM83.7033 26.0314C83.7512 25.592 83.8472 24.9082 83.8472 24.029C83.8472 19.6826 81.8344 12.8942 74.2622 12.8942C67.505 12.8942 63.3836 18.5105 63.3836 25.6408C63.3836 32.7712 67.6487 37.5572 74.7896 37.5572C78.4796 37.5572 81.0196 36.7757 82.5052 36.092L81.7863 33.0153C80.2048 33.6989 78.3838 34.2361 75.3646 34.2361C71.1472 34.2361 67.505 31.8432 67.4092 26.0314H83.7033ZM67.4571 22.9546C67.7926 19.9757 69.6615 15.971 73.9269 15.971C78.6713 15.971 79.8216 20.2198 79.7735 22.9546H67.4571Z" fill="#024650"/>
<path d="M87.8149 14.5387V9.99395H83.603V6.96428H87.8149V2.39413H90.7883V6.96428H94.9999V9.99395H90.7883V14.5387H87.8149Z" fill="#024650"/>
<path d="M38.7102 16.8267C38.8867 17.5733 39.1928 18.2268 39.6109 18.8285C40.1227 19.5654 40.7348 20.2065 41.4296 20.7609C42.3589 21.5025 43.2931 22.2394 44.2466 22.948C45.0198 23.5226 45.8295 24.0459 46.6144 24.6044C47.5564 25.2749 48.4483 26.0076 49.2271 26.8745C50.1224 27.8715 50.7929 28.9965 51.1039 30.3224C51.3195 31.242 51.3569 32.168 51.2117 33.1065C51.0996 33.8319 50.9908 34.5585 50.7687 35.2564C50.5975 35.7952 50.3707 36.3158 50.1592 36.8406C50.0047 37.2245 49.9979 37.221 49.5975 37.3036C48.3184 37.5674 47.0311 37.6427 45.7315 37.4998C43.6049 37.266 41.686 36.5105 40.0228 35.1269C38.4175 33.7918 37.3286 32.0917 36.6585 30.1031C36.296 29.027 36.0793 27.9205 35.9929 26.7868C35.8349 24.7177 35.9981 22.6831 36.6319 20.7006C37.0603 19.3605 37.6857 18.1269 38.5519 17.0241C38.5979 16.9653 38.6453 16.9076 38.7102 16.8267ZM40.1517 24.6925C41.8687 34.3586 46.0011 30.5616 49.9304 37.1892C48.4062 27.8 45.6624 31.1829 40.1517 24.6925Z" fill="#39B54A"/>
<path d="M41.8659 19.0803C41.1046 18.3259 40.4431 17.5301 40.2092 16.4538C40.1351 16.1132 40.1334 15.7684 40.2006 15.427C40.2142 15.358 40.2726 15.2852 40.3299 15.24C41.4738 14.3387 42.7493 13.7077 44.1433 13.3225C45.5262 12.9401 46.9344 12.8196 48.3605 12.9231C50.4235 13.0728 52.3296 13.6945 54.0183 14.9347C55.823 16.2598 57.0401 18.0318 57.7876 20.152C58.1817 21.2696 58.4161 22.4231 58.5105 23.6062C58.6766 25.6883 58.5232 27.7376 57.8963 29.7369C57.3478 31.486 56.458 33.0269 55.172 34.3194C54.285 35.211 53.2709 35.9194 52.1373 36.4484C52.1069 36.4625 52.0746 36.4726 52.0102 36.4972C52.1026 36.218 52.1782 35.9633 52.2707 35.7148C52.9419 33.9092 53.4927 32.068 53.8456 30.1692C54.0857 28.8781 54.2345 27.5772 54.2245 26.2604C54.2199 25.6427 54.2575 25.0227 54.218 24.4075C54.0868 22.3577 53.5656 20.4295 52.3665 18.7428C51.4595 17.4666 50.267 16.5896 48.7342 16.2818C46.7821 15.8899 44.9586 16.2059 43.3422 17.4527C42.8094 17.8636 42.3622 18.3625 41.9774 18.9192C41.9447 18.9665 41.9121 19.0136 41.8659 19.0803Z" fill="#024650"/>
<rect x="107" width="1" height="40" fill="#EDEFF2"/>
<path d="M129.716 15H128.134L127.154 12.41H122.674L121.708 15H120.154L124.046 5.032H125.768L129.716 15ZM123.36 10.562L123.15 11.108H126.664L126.454 10.562C125.959 9.33 125.441 7.96733 124.9 6.474C124.256 8.19133 123.743 9.554 123.36 10.562ZM134.311 7.608C135.319 7.608 136.122 7.94867 136.719 8.63C137.317 9.31133 137.615 10.2307 137.615 11.388C137.615 12.536 137.317 13.4507 136.719 14.132C136.113 14.8227 135.31 15.168 134.311 15.168C133.285 15.168 132.501 14.776 131.959 13.992V17.744H130.559V7.776H131.903V8.868C132.445 8.028 133.247 7.608 134.311 7.608ZM132.505 13.278C132.879 13.7353 133.392 13.964 134.045 13.964C134.699 13.964 135.217 13.7307 135.599 13.264C135.973 12.8067 136.159 12.1627 136.159 11.332C136.159 10.5293 135.973 9.90867 135.599 9.47C135.226 9.03133 134.708 8.812 134.045 8.812C133.401 8.812 132.888 9.036 132.505 9.484C132.123 9.95067 131.931 10.5853 131.931 11.388C131.931 12.1907 132.123 12.8207 132.505 13.278ZM141.878 7.776V8.924H140.422V13.264C140.422 13.4787 140.483 13.6373 140.604 13.74C140.735 13.8333 140.949 13.88 141.248 13.88H141.878V15C141.57 15.028 141.285 15.042 141.024 15.042C140.343 15.042 139.839 14.9113 139.512 14.65C139.185 14.3887 139.022 13.9687 139.022 13.39V8.924H137.86V7.776H139.022V5.704H140.422V7.776H141.878ZM149.388 11.444V11.85H143.942C144.007 12.5593 144.217 13.096 144.572 13.46C144.927 13.8147 145.407 13.992 146.014 13.992C146.929 13.992 147.526 13.5907 147.806 12.788H149.22C149.024 13.5253 148.641 14.1087 148.072 14.538C147.512 14.958 146.817 15.168 145.986 15.168C144.95 15.168 144.115 14.8227 143.48 14.132C142.845 13.4413 142.528 12.5267 142.528 11.388C142.528 10.2493 142.845 9.33467 143.48 8.644C144.115 7.95333 144.941 7.608 145.958 7.608C147.022 7.608 147.862 7.96733 148.478 8.686C149.085 9.40467 149.388 10.324 149.388 11.444ZM145.958 8.784C145.407 8.784 144.955 8.952 144.6 9.288C144.255 9.624 144.04 10.1093 143.956 10.744H147.946C147.881 10.156 147.671 9.68467 147.316 9.33C146.971 8.966 146.518 8.784 145.958 8.784ZM157.126 15H155.516L153.22 11.346L152.016 12.522V15H150.63V5.032H152.016V10.912L155.194 7.776H156.944L154.214 10.436L157.126 15ZM159.235 15H157.835V5.032H159.235V15ZM163.868 7.608C164.904 7.608 165.744 7.94867 166.388 8.63C167.022 9.32067 167.34 10.24 167.34 11.388C167.34 12.536 167.027 13.4507 166.402 14.132C165.767 14.8227 164.936 15.168 163.91 15.168C162.846 15.168 162.01 14.8087 161.404 14.09C160.788 13.3807 160.48 12.4613 160.48 11.332V10.926H165.94C165.874 10.2167 165.66 9.68467 165.296 9.33C164.941 8.966 164.46 8.784 163.854 8.784C163.406 8.784 163.023 8.89133 162.706 9.106C162.388 9.32067 162.16 9.61467 162.02 9.988H160.62C160.806 9.26 161.189 8.68133 161.768 8.252C162.346 7.82267 163.046 7.608 163.868 7.608ZM163.91 13.992C164.46 13.992 164.908 13.824 165.254 13.488C165.608 13.152 165.828 12.6667 165.912 12.032H161.936C162.001 12.6293 162.206 13.1053 162.552 13.46C162.897 13.8147 163.35 13.992 163.91 13.992ZM172.165 7.664C172.37 7.664 172.506 7.66867 172.571 7.678V9.008H172.221C171.502 9.008 170.947 9.18533 170.555 9.54C170.163 9.89467 169.967 10.408 169.967 11.08V15H168.567V7.776H169.911V9.064C170.368 8.13067 171.12 7.664 172.165 7.664ZM126.482 32.97C126.482 33.6047 126.263 34.1087 125.824 34.482C125.395 34.8553 124.783 35.0793 123.99 35.154L123.444 35.784H123.584C123.985 35.784 124.307 35.8867 124.55 36.092C124.793 36.3067 124.914 36.5727 124.914 36.89C124.914 37.31 124.746 37.6367 124.41 37.87C124.083 38.1127 123.589 38.234 122.926 38.234C122.609 38.234 122.31 38.206 122.03 38.15V37.464C122.291 37.5013 122.562 37.52 122.842 37.52C123.43 37.52 123.724 37.3147 123.724 36.904C123.724 36.5307 123.458 36.344 122.926 36.344C122.749 36.344 122.618 36.3487 122.534 36.358V35.826L123.052 35.168C121.297 35.0653 120.378 34.244 120.294 32.704H121.694C121.75 33.208 121.913 33.5627 122.184 33.768C122.455 33.9733 122.884 34.076 123.472 34.076C124.536 34.076 125.068 33.74 125.068 33.068C125.068 32.7787 124.956 32.5547 124.732 32.396C124.508 32.2373 124.107 32.1067 123.528 32.004L122.786 31.864C121.255 31.584 120.49 30.8653 120.49 29.708C120.49 29.064 120.737 28.5553 121.232 28.182C121.727 27.7993 122.408 27.608 123.276 27.608C125.264 27.608 126.281 28.4153 126.328 30.03H124.97C124.942 29.5447 124.793 29.204 124.522 29.008C124.251 28.8027 123.836 28.7 123.276 28.7C122.828 28.7 122.483 28.784 122.24 28.952C121.997 29.12 121.876 29.358 121.876 29.666C121.876 29.946 121.983 30.1653 122.198 30.324C122.413 30.4733 122.753 30.5947 123.22 30.688L123.976 30.814C124.863 30.982 125.502 31.234 125.894 31.57C126.286 31.906 126.482 32.3727 126.482 32.97ZM130.59 27.608C131.626 27.608 132.466 27.9487 133.11 28.63C133.745 29.3207 134.062 30.24 134.062 31.388C134.062 32.536 133.75 33.4507 133.124 34.132C132.49 34.8227 131.659 35.168 130.632 35.168C129.568 35.168 128.733 34.8087 128.126 34.09C127.51 33.3807 127.202 32.4613 127.202 31.332V30.926H132.662C132.597 30.2167 132.382 29.6847 132.018 29.33C131.664 28.966 131.183 28.784 130.576 28.784C130.128 28.784 129.746 28.8913 129.428 29.106C129.111 29.3207 128.882 29.6147 128.742 29.988H127.342C127.529 29.26 127.912 28.6813 128.49 28.252C129.069 27.8227 129.769 27.608 130.59 27.608ZM130.632 33.992C131.183 33.992 131.631 33.824 131.976 33.488C132.331 33.152 132.55 32.6667 132.634 32.032H128.658C128.724 32.6293 128.929 33.1053 129.274 33.46C129.62 33.8147 130.072 33.992 130.632 33.992ZM139.042 27.608C140.05 27.608 140.852 27.9487 141.45 28.63C142.047 29.3113 142.346 30.2307 142.346 31.388C142.346 32.536 142.047 33.4507 141.45 34.132C140.843 34.8227 140.04 35.168 139.042 35.168C137.978 35.168 137.175 34.748 136.634 33.908V35H135.29V25.032H136.69V28.784C137.231 28 138.015 27.608 139.042 27.608ZM137.236 33.278C137.609 33.7353 138.122 33.964 138.776 33.964C139.429 33.964 139.947 33.7307 140.33 33.264C140.703 32.8067 140.89 32.1627 140.89 31.332C140.89 30.5293 140.703 29.9087 140.33 29.47C139.956 29.0313 139.438 28.812 138.776 28.812C138.132 28.812 137.618 29.036 137.236 29.484C136.853 29.9507 136.662 30.5853 136.662 31.388C136.662 32.1907 136.853 32.8207 137.236 33.278ZM146.641 27.608C147.677 27.608 148.517 27.9487 149.161 28.63C149.796 29.3207 150.113 30.24 150.113 31.388C150.113 32.536 149.8 33.4507 149.175 34.132C148.54 34.8227 147.71 35.168 146.683 35.168C145.619 35.168 144.784 34.8087 144.177 34.09C143.561 33.3807 143.253 32.4613 143.253 31.332V30.926H148.713C148.648 30.2167 148.433 29.6847 148.069 29.33C147.714 28.966 147.234 28.784 146.627 28.784C146.179 28.784 145.796 28.8913 145.479 29.106C145.162 29.3207 144.933 29.6147 144.793 29.988H143.393C143.58 29.26 143.962 28.6813 144.541 28.252C145.12 27.8227 145.82 27.608 146.641 27.608ZM146.683 33.992C147.234 33.992 147.682 33.824 148.027 33.488C148.382 33.152 148.601 32.6667 148.685 32.032H144.709C144.774 32.6293 144.98 33.1053 145.325 33.46C145.67 33.8147 146.123 33.992 146.683 33.992ZM157.837 35H156.227L153.931 31.346L152.727 32.522V35H151.341V25.032H152.727V30.912L155.905 27.776H157.655L154.925 30.436L157.837 35ZM161.748 27.608C162.784 27.608 163.624 27.9487 164.268 28.63C164.903 29.3207 165.22 30.24 165.22 31.388C165.22 32.536 164.908 33.4507 164.282 34.132C163.648 34.8227 162.817 35.168 161.79 35.168C160.726 35.168 159.891 34.8087 159.284 34.09C158.668 33.3807 158.36 32.4613 158.36 31.332V30.926H163.82C163.755 30.2167 163.54 29.6847 163.176 29.33C162.822 28.966 162.341 28.784 161.734 28.784C161.286 28.784 160.904 28.8913 160.586 29.106C160.269 29.3207 160.04 29.6147 159.9 29.988H158.5C158.687 29.26 159.07 28.6813 159.648 28.252C160.227 27.8227 160.927 27.608 161.748 27.608ZM161.79 33.992C162.341 33.992 162.789 33.824 163.134 33.488C163.489 33.152 163.708 32.6667 163.792 32.032H159.816C159.882 32.6293 160.087 33.1053 160.432 33.46C160.778 33.8147 161.23 33.992 161.79 33.992ZM169.013 35.182C167.006 35.182 165.951 34.356 165.849 32.704H167.249C167.305 33.208 167.468 33.5627 167.739 33.768C168.009 33.9733 168.439 34.076 169.027 34.076C170.091 34.076 170.623 33.74 170.623 33.068C170.623 32.7787 170.511 32.5547 170.287 32.396C170.063 32.2373 169.661 32.1067 169.083 32.004L168.341 31.864C166.81 31.584 166.045 30.8653 166.045 29.708C166.045 29.064 166.292 28.5553 166.787 28.182C167.281 27.7993 167.963 27.608 168.831 27.608C170.819 27.608 171.836 28.4153 171.883 30.03H170.525C170.497 29.5447 170.347 29.204 170.077 29.008C169.806 28.8027 169.391 28.7 168.831 28.7C168.383 28.7 168.037 28.784 167.795 28.952C167.552 29.12 167.431 29.358 167.431 29.666C167.431 29.946 167.538 30.1653 167.753 30.324C167.967 30.4733 168.308 30.5947 168.775 30.688L169.531 30.814C170.417 30.982 171.057 31.234 171.449 31.57C171.841 31.906 172.037 32.3727 172.037 32.97C172.037 33.67 171.771 34.216 171.239 34.608C170.707 34.9907 169.965 35.182 169.013 35.182ZM174.493 26.754H173.065V25.256H174.493V26.754ZM174.479 35H173.079V27.776H174.479V35Z" fill="#8A94A6"/>
</svg>
