<svg width="20" height="16" viewBox="0 0 20 16" fill="none" xmlns="http://www.w3.org/2000/svg">
<path d="M17.9355 0.1875H2.03125C1.13477 0.1875 0.4375 0.917969 0.4375 1.78125V13.4688C0.4375 14.3652 1.13477 15.0625 2.03125 15.0625H17.9355C18.832 15.0625 19.5625 14.3652 19.5625 13.4688V1.78125C19.5625 0.917969 18.832 0.1875 17.9355 0.1875ZM2.23047 1.78125H17.7363C17.8691 1.78125 17.9355 1.88086 17.9355 1.98047V3.375H2.03125V1.98047C2.03125 1.88086 2.09766 1.78125 2.23047 1.78125ZM17.7363 13.4688H2.23047C2.09766 13.4688 2.03125 13.4023 2.03125 13.2695V7.625H17.9355V13.2695C17.9355 13.4023 17.8691 13.4688 17.7363 13.4688ZM6.8125 10.1484C6.8125 9.94922 6.61328 9.75 6.41406 9.75H4.02344C3.79102 9.75 3.625 9.94922 3.625 10.1484V11.4766C3.625 11.709 3.79102 11.875 4.02344 11.875H6.41406C6.61328 11.875 6.8125 11.709 6.8125 11.4766V10.1484ZM13.1875 10.1484C13.1875 9.94922 12.9883 9.75 12.7891 9.75H8.27344C8.04102 9.75 7.875 9.94922 7.875 10.1484V11.4766C7.875 11.709 8.04102 11.875 8.27344 11.875H12.7891C12.9883 11.875 13.1875 11.709 13.1875 11.4766V10.1484Z" fill="#39B54A"/>
</svg>
