<svg width="13" height="15" viewBox="0 0 13 15" fill="none" xmlns="http://www.w3.org/2000/svg">
<path d="M3.875 4.79688C3.875 4.98828 4.01172 5.125 4.20312 5.125H5.29688C5.46094 5.125 5.625 4.98828 5.625 4.79688V3.70312C5.625 3.53906 5.46094 3.375 5.29688 3.375H4.20312C4.01172 3.375 3.875 3.53906 3.875 3.70312V4.79688ZM7.70312 5.125H8.79688C8.96094 5.125 9.125 4.98828 9.125 4.79688V3.70312C9.125 3.53906 8.96094 3.375 8.79688 3.375H7.70312C7.51172 3.375 7.375 3.53906 7.375 3.70312V4.79688C7.375 4.98828 7.51172 5.125 7.70312 5.125ZM4.20312 7.75H5.29688C5.46094 7.75 5.625 7.61328 5.625 7.42188V6.32812C5.625 6.16406 5.46094 6 5.29688 6H4.20312C4.01172 6 3.875 6.16406 3.875 6.32812V7.42188C3.875 7.61328 4.01172 7.75 4.20312 7.75ZM7.70312 7.75H8.79688C8.96094 7.75 9.125 7.61328 9.125 7.42188V6.32812C9.125 6.16406 8.96094 6 8.79688 6H7.70312C7.51172 6 7.375 6.16406 7.375 6.32812V7.42188C7.375 7.61328 7.51172 7.75 7.70312 7.75ZM5.625 10.0469V8.95312C5.625 8.78906 5.46094 8.625 5.29688 8.625H4.20312C4.01172 8.625 3.875 8.78906 3.875 8.95312V10.0469C3.875 10.2383 4.01172 10.375 4.20312 10.375H5.29688C5.46094 10.375 5.625 10.2383 5.625 10.0469ZM7.70312 10.375H8.79688C8.96094 10.375 9.125 10.2383 9.125 10.0469V8.95312C9.125 8.78906 8.96094 8.625 8.79688 8.625H7.70312C7.51172 8.625 7.375 8.78906 7.375 8.95312V10.0469C7.375 10.2383 7.51172 10.375 7.70312 10.375ZM12.625 13.7656C12.625 13.6016 12.4609 13.4375 12.2969 13.4375H11.75V1.40625C11.75 1.05078 11.4492 0.75 11.0938 0.75H1.87891C1.52344 0.75 1.22266 1.05078 1.22266 1.40625V13.4375H0.703125C0.511719 13.4375 0.375 13.6016 0.375 13.7656V14.75H12.625V13.7656ZM2.53516 13.4102L2.5625 2.0625L10.4375 2.08984V13.4102H7.375V11.5781C7.375 11.4141 7.21094 11.25 7.04688 11.25H5.95312C5.76172 11.25 5.625 11.4141 5.625 11.5781V13.4102H2.53516Z" fill="#050F21"/>
</svg>
