<svg width="14" height="13" viewBox="0 0 14 13" fill="none" xmlns="http://www.w3.org/2000/svg">
<path d="M12.9883 3.35938L9.1875 5.79297V3.90625C9.1875 3.41406 8.61328 3.08594 8.17578 3.35938L4.375 5.79297V1.28125C4.375 0.925781 4.07422 0.625 3.71875 0.625H0.65625C0.273438 0.625 0 0.925781 0 1.28125V12.2188C0 12.6016 0.273438 12.875 0.65625 12.875H13.3438C13.6992 12.875 14 12.6016 14 12.2188V3.90625C14 3.41406 13.4258 3.08594 12.9883 3.35938ZM12.6875 11.5625H1.3125V1.9375H3.0625V6.96875C3.0625 7.48828 3.60938 7.81641 4.04688 7.54297L7.875 5.10938V6.96875C7.875 7.48828 8.42188 7.81641 8.85938 7.54297L12.6875 5.10938V11.5625ZM11.0469 10.25C11.2109 10.25 11.375 10.1133 11.375 9.92188V8.82812C11.375 8.66406 11.2109 8.5 11.0469 8.5H9.95312C9.76172 8.5 9.625 8.66406 9.625 8.82812V9.92188C9.625 10.1133 9.76172 10.25 9.95312 10.25H11.0469ZM7.54688 10.25C7.71094 10.25 7.875 10.1133 7.875 9.92188V8.82812C7.875 8.66406 7.71094 8.5 7.54688 8.5H6.45312C6.26172 8.5 6.125 8.66406 6.125 8.82812V9.92188C6.125 10.1133 6.26172 10.25 6.45312 10.25H7.54688ZM4.04688 10.25C4.21094 10.25 4.375 10.1133 4.375 9.92188V8.82812C4.375 8.66406 4.21094 8.5 4.04688 8.5H2.95312C2.76172 8.5 2.625 8.66406 2.625 8.82812V9.92188C2.625 10.1133 2.76172 10.25 2.95312 10.25H4.04688Z" fill="#39B54A"/>
</svg>
