<svg width="51" height="31" viewBox="0 0 51 31" fill="none" xmlns="http://www.w3.org/2000/svg">
<path fill-rule="evenodd" clip-rule="evenodd" d="M38.2709 13.5805C38.3568 13.5827 38.4565 13.5805 38.5541 13.6022C38.8797 13.6759 39.0272 13.8851 38.9773 14.2233C38.919 14.6092 38.7577 14.9463 38.5127 15.2423C38.1659 15.6585 37.7309 15.9382 37.2377 16.1322C36.7901 16.3078 36.3223 16.3978 35.846 16.4455C35.8163 16.4477 35.7835 16.4477 35.7538 16.4488C35.5448 16.4509 35.5183 16.4228 35.5702 16.2222C35.6424 15.9404 35.7389 15.6661 35.8673 15.406C36.0953 14.9431 36.3976 14.5377 36.7763 14.1908C37.2006 13.8027 37.7341 13.5816 38.2709 13.5805V13.5805ZM10.9094 9.70278C11.2839 9.69736 11.652 9.73747 12.0158 9.81985C12.2534 9.87514 12.4793 9.95644 12.6894 10.0865C13.0702 10.3196 13.2653 10.6686 13.2897 11.1174C13.3014 11.3396 13.2897 11.5608 13.2473 11.7797C13.1391 12.3196 13.0023 12.8518 12.7816 13.3581C12.4677 14.0746 12.0094 14.6513 11.2881 14.9765C10.9625 15.1228 10.6209 15.2085 10.2709 15.2692C9.86039 15.3407 9.44458 15.3407 9.03089 15.3711C8.99377 15.3721 8.95664 15.3711 8.91952 15.3656C8.85481 15.3537 8.82193 15.3125 8.83678 15.2431C8.84845 15.1814 8.86224 15.1196 8.87921 15.0578C9.32896 13.3526 9.78083 11.6486 10.2327 9.94452C10.2932 9.71471 10.307 9.70604 10.5382 9.70278C10.6612 9.7017 10.7864 9.70278 10.9094 9.70278V9.70278ZM45.1469 14.0494C45.1289 13.9465 45.1618 13.8771 45.182 13.8044C45.2923 13.4088 45.4037 13.0142 45.5129 12.6185C45.5596 12.4494 45.5384 12.4169 45.3793 12.4169C44.623 12.4136 43.8677 12.4136 43.1114 12.4169C42.9502 12.4169 42.9258 12.4397 42.8791 12.6045C42.8303 12.7757 42.7889 12.947 42.7433 13.1194C42.073 15.6614 41.4005 18.2033 40.728 20.7464C40.7227 20.7714 40.7131 20.7952 40.7099 20.8201C40.6929 20.9231 40.7088 20.9459 40.8064 20.9567C40.8382 20.9611 40.8689 20.9588 40.8997 20.9588C41.656 20.9588 42.4123 20.9588 43.1675 20.9578C43.3914 20.9578 43.3977 20.9502 43.4582 20.7258C43.7 19.8152 43.9387 18.9047 44.1837 17.9952C44.3471 17.3849 44.4881 16.767 44.7353 16.1838C44.9771 15.619 45.2487 15.0716 45.6316 14.5914C45.8565 14.3085 46.1111 14.0613 46.4452 13.915C46.6563 13.8228 46.8727 13.7838 47.0976 13.8478C47.2407 13.889 47.3373 13.98 47.3744 14.1275C47.3935 14.2131 47.42 14.2998 47.4232 14.3876C47.4593 15.0434 48.363 15.4835 48.9263 15.2006C49.1533 15.0868 49.3453 14.9361 49.4916 14.7237C49.7155 14.3985 49.7706 14.0353 49.7229 13.6548C49.6529 13.0911 49.376 12.6608 48.8595 12.4397C48.3408 12.2174 47.8009 12.1882 47.2652 12.3995C47.0446 12.4852 46.8356 12.5957 46.6372 12.7269C46.144 13.0532 45.7155 13.4521 45.3241 13.8966C45.2764 13.9508 45.236 14.019 45.1469 14.0494L45.1469 14.0494ZM28.2198 20.961V20.96C29.3102 20.96 30.4017 20.961 31.4921 20.96C31.7096 20.9589 31.7202 20.9502 31.7764 20.7432C31.8835 20.3399 31.9907 19.9367 32.0957 19.5323C32.1657 19.2657 32.1657 19.2646 31.9016 19.2646H28.2187C28.1572 19.2646 28.0957 19.2656 28.0342 19.2635C27.8782 19.2537 27.8549 19.2169 27.9323 19.0771C28.0469 18.8733 28.1816 18.6825 28.3237 18.4993C28.8 17.8879 29.3548 17.3535 29.9085 16.8169C30.6011 16.1459 31.3076 15.4901 31.944 14.7606C32.3598 14.2803 32.7417 13.7741 33.0419 13.2093C33.1511 13.0023 33.2477 12.7909 33.3198 12.5665C33.3538 12.457 33.3304 12.4278 33.2222 12.4169C33.1532 12.4105 33.0854 12.4136 33.0164 12.4136H26.9172C26.8557 12.4136 26.7942 12.4126 26.7327 12.4136C26.5577 12.4201 26.5343 12.4342 26.4866 12.6088C26.406 12.896 26.3338 13.1844 26.2575 13.4716C26.1779 13.7751 26.1811 13.7795 26.4898 13.7795C27.5622 13.7795 28.6356 13.7784 29.707 13.7816C29.7886 13.7816 29.9032 13.7361 29.9414 13.8369C29.9711 13.9149 29.8799 13.98 29.8311 14.0418C29.5203 14.4309 29.1617 14.7724 28.8085 15.1182C28.0215 15.8922 27.2227 16.651 26.4951 17.4835C26.0655 17.9756 25.6624 18.4895 25.3325 19.0586C25.044 19.5572 24.8075 20.0786 24.7396 20.6651C24.7056 20.9556 24.7056 20.961 25.0037 20.961H28.2198L28.2198 20.961ZM36.2198 21.2309C36.6918 21.2429 37.1458 21.1854 37.5945 21.0748C38.6234 20.8201 39.4975 20.2933 40.2262 19.5139C40.3588 19.3708 40.3588 19.3556 40.2474 19.1908C40.0681 18.9318 39.891 18.6727 39.7096 18.4147C39.6014 18.2597 39.5749 18.2564 39.4327 18.3778C39.2344 18.548 39.0392 18.7258 38.8366 18.8917C38.5396 19.1323 38.2182 19.3383 37.866 19.4857C37.342 19.7057 36.8106 19.7578 36.2739 19.5312C35.7191 19.2982 35.315 18.741 35.3277 18.1318C35.3308 17.9919 35.3266 17.8521 35.3309 17.7123C35.3371 17.4965 35.3595 17.4716 35.5695 17.4673C35.8665 17.4597 36.1635 17.4532 36.4616 17.4326C37.2582 17.3773 38.0325 17.2179 38.7835 16.9459C39.3606 16.7356 39.8623 16.4028 40.2717 15.9377C40.6419 15.5204 40.906 15.0434 41.0015 14.4852C41.0821 14.0125 41.0535 13.5508 40.7618 13.141C40.469 12.7258 40.0617 12.4863 39.5929 12.3464C38.9978 12.1686 38.3921 12.1665 37.7875 12.2651C35.6947 12.612 34.1524 13.7437 33.2094 15.6895C32.7904 16.5567 32.6111 17.49 32.7469 18.4591C32.9198 19.6971 33.5934 20.5404 34.7347 20.9881C35.2163 21.1767 35.7169 21.2505 36.2197 21.2309L36.2198 21.2309ZM5.96029 20.961C6.33154 20.961 6.70387 20.9621 7.07406 20.961C7.31167 20.96 7.31697 20.9546 7.37955 20.7215C7.597 19.8976 7.81551 19.0716 8.03402 18.2456C8.1401 17.8423 8.24617 17.4391 8.35649 17.0358C8.4021 16.8667 8.42121 16.8581 8.58772 16.8483C8.72986 16.8408 8.87199 16.8266 9.01414 16.8245C9.69725 16.8201 10.3751 16.7594 11.0507 16.6608C11.8145 16.5513 12.5602 16.3703 13.2708 16.057C14.2011 15.6451 14.9309 15.0066 15.3987 14.0765C15.6978 13.4825 15.9025 12.8494 16.0213 12.1925C16.1635 11.4142 15.9991 10.6944 15.5429 10.0516C15.2258 9.60389 14.7983 9.29386 14.3167 9.05972C13.501 8.66297 12.6302 8.50254 11.7402 8.4711C10.531 8.42666 9.32281 8.4581 8.11464 8.45593C7.91735 8.45593 7.89613 8.47761 7.84309 8.66731C7.83482 8.69224 7.82927 8.71609 7.82294 8.74102C7.26924 10.831 6.7166 12.922 6.16289 15.012C5.66647 16.8819 5.17111 18.7529 4.67787 20.6239C4.65772 20.6965 4.63963 20.7702 4.62593 20.845C4.61107 20.9144 4.64286 20.9534 4.71392 20.9567C4.76379 20.96 4.81366 20.961 4.86242 20.961H5.96027L5.96029 20.961ZM29.0545 0.249996H32.0309C32.1073 0.278181 32.189 0.276012 32.2685 0.278181C32.4308 0.282513 32.591 0.281435 32.7511 0.293356C33.7164 0.360565 34.6785 0.442947 35.6363 0.577364C37.6676 0.862457 39.6597 1.31666 41.5934 2.01801C43.3309 2.6489 44.9803 3.45649 46.4844 4.55567C47.7318 5.46623 48.817 6.53723 49.6486 7.86406C50.2808 8.87327 50.7083 9.96378 50.9109 11.1464C50.9501 11.3784 50.9565 11.6126 51 11.8424V13.3242C50.9565 13.4662 50.9756 13.6147 50.9565 13.7567C50.8154 14.8212 50.5046 15.8326 50.0612 16.8028C49.3972 18.2564 48.486 19.5388 47.4264 20.7149C46.5226 21.7198 45.5266 22.6228 44.4637 23.4488C42.5703 24.9187 40.5242 26.1252 38.3624 27.1323C35.2927 28.5664 32.0871 29.568 28.7755 30.213C27.6543 30.4298 26.5279 30.6054 25.3939 30.7301C24.8084 30.793 24.2218 30.845 23.6363 30.8883C23.0688 30.9295 22.4981 30.9621 21.9296 30.9729C21.8744 30.9751 21.8193 30.9902 21.7652 31H20.0171C19.9513 30.974 19.8834 30.9729 19.8145 30.9707C19.1717 30.9512 18.5278 30.9133 17.885 30.8623C17.0078 30.7919 16.1348 30.6835 15.265 30.5491C15.2279 30.5436 15.1919 30.5339 15.1547 30.5252C15.0794 30.5111 15.0529 30.4623 15.0688 30.3865C15.0816 30.3257 15.0975 30.264 15.1134 30.2022C15.2534 29.6645 15.3955 29.1247 15.5366 28.587C16.7511 23.9821 17.9656 19.3773 19.1802 14.7713C19.2492 14.509 19.3181 14.2456 19.3902 13.9822C19.4411 13.8012 19.4623 13.786 19.6501 13.7806C19.6755 13.7795 19.7 13.7795 19.7244 13.7795H21.8999C21.9498 13.7795 21.9997 13.7806 22.0495 13.7849C22.1248 13.7914 22.1619 13.8337 22.146 13.9117C22.1344 13.9811 22.1163 14.0472 22.0983 14.1155C21.5266 16.2933 20.9548 18.4711 20.3842 20.6499C20.3704 20.7041 20.3566 20.7594 20.3439 20.8147C20.3247 20.9003 20.3565 20.9502 20.4446 20.9567C20.4817 20.9588 20.5189 20.9611 20.555 20.9611H22.7878C22.9999 20.96 23.0106 20.9523 23.0678 20.7388C23.1909 20.2727 23.3107 19.8077 23.4317 19.3426C24.0108 17.1345 24.59 14.9253 25.1691 12.7172C25.2487 12.4137 25.2518 12.4137 24.9432 12.4137H20.2007C20.1392 12.4137 20.0766 12.4147 20.0151 12.4115C19.8528 12.4028 19.8315 12.3758 19.8687 12.2121C19.9271 11.9649 19.9885 11.7199 20.049 11.4739C20.2919 10.4582 20.5295 9.44136 20.8647 8.45275C21.0079 8.03323 21.1628 7.61806 21.377 7.23107C21.6369 6.76061 21.9657 6.35303 22.4388 6.08744C22.7602 5.90858 23.106 5.80777 23.4741 5.85221C23.8284 5.89558 24.0087 6.12321 24.0076 6.48527C24.0066 6.65113 23.9492 6.79638 23.8825 6.93947C23.8093 7.09991 23.7318 7.25709 23.6671 7.42402C23.4401 8.01155 23.805 8.84732 24.4394 9.06413C25.4354 9.40559 26.4781 8.85166 26.7454 7.8121C26.7963 7.61589 26.827 7.41644 26.8016 7.21047C26.7485 6.77362 26.5672 6.39747 26.2649 6.08744C25.8872 5.70154 25.4439 5.41644 24.9241 5.26793C24.1869 5.05872 23.438 5.00777 22.6764 5.07498C21.4513 5.18338 20.4383 5.72539 19.5918 6.61969C18.9628 7.28527 18.5183 8.07226 18.1545 8.91128C17.7939 9.74813 17.5393 10.6229 17.3038 11.5031C16.7862 13.4468 16.2738 15.3915 15.7615 17.3373C14.914 20.5481 14.0675 23.7589 13.2211 26.9697C12.9782 27.8933 12.7352 28.8169 12.4902 29.7405C12.4383 29.9378 12.4191 29.9443 12.2314 29.8987C12.2006 29.8922 12.1709 29.8825 12.1423 29.8749C11.6628 29.7437 11.1865 29.6006 10.7166 29.4413C8.7808 28.7887 6.94574 27.9215 5.28782 26.6966C4.0298 25.7676 2.94255 24.6684 2.11942 23.3156C1.40555 22.147 0.957917 20.883 0.814726 19.5107C0.805392 19.4207 0.787189 19.3362 0.75 19.2549V17.8099C0.793532 17.7242 0.807246 17.631 0.817842 17.5367C0.834772 17.3785 0.852858 17.2213 0.878316 17.0652C1.14032 15.4511 1.76085 13.9833 2.62216 12.6164C3.65531 10.9763 4.95259 9.58011 6.40896 8.33242C7.95975 7.00343 9.64843 5.8869 11.4358 4.92105C13.7842 3.65276 16.2451 2.66957 18.7994 1.9292C22.094 0.975269 25.4491 0.408333 28.872 0.278254C28.9336 0.274998 28.9951 0.272835 29.0545 0.250078" fill="#3377B6"/>
</svg>
