<svg width="86" height="28" viewBox="0 0 86 28" fill="none" xmlns="http://www.w3.org/2000/svg">
<path fill-rule="evenodd" clip-rule="evenodd" d="M5.80434 7.83593C6.43649 7.73112 7.25782 7.63971 8.31205 7.63971C9.60298 7.63971 10.5498 7.9417 11.1501 8.48682C11.7048 8.9702 12.0361 9.71058 12.0361 10.6189C12.0361 11.5422 11.7666 12.2677 11.2551 12.7975C10.5645 13.5379 9.43852 13.9174 8.16185 13.9174C7.7702 13.9174 7.40897 13.9002 7.11285 13.8274V17.9074H5.80434V7.83593ZM7.11285 12.7506C7.39376 12.8281 7.75784 12.8578 8.19132 12.8578C9.76933 12.8578 10.7309 12.0844 10.7309 10.6797C10.7309 9.33489 9.78312 8.684 8.34104 8.684C7.7702 8.684 7.33672 8.72851 7.11285 8.78977V12.7506Z" fill="#222753"/>
<path fill-rule="evenodd" clip-rule="evenodd" d="M13.6745 7.17157H14.9949V11.7383H15.0268C15.235 11.3602 15.5662 11.0266 15.9722 10.7998C16.3624 10.5734 16.8287 10.4227 17.3239 10.4227C18.3007 10.4227 19.8602 11.0266 19.8602 13.5531V17.9074H18.5402V13.7029C18.5402 12.5237 18.1039 11.5277 16.8581 11.5277C16.0016 11.5277 15.3253 12.1307 15.0852 12.8577C15.0097 13.0391 14.9949 13.2368 14.9949 13.4885V17.9074H13.6745V7.17157Z" fill="#222753"/>
<path fill-rule="evenodd" clip-rule="evenodd" d="M27.1199 16.1534C27.1199 16.7895 27.1465 17.4102 27.2349 17.9074H26.0333L25.9307 16.9852H25.8827C25.4782 17.5605 24.6996 18.0745 23.662 18.0745C22.1914 18.0745 21.4386 17.0326 21.4386 15.973C21.4386 14.2065 22.9995 13.2369 25.8085 13.2531V13.1C25.8085 12.4946 25.6441 11.4053 24.1554 11.4053C23.4819 11.4053 22.7727 11.6173 22.2642 11.9518L21.9647 11.0717C22.5674 10.6797 23.4372 10.4227 24.3512 10.4227C26.5761 10.4227 27.1199 11.9518 27.1199 13.4178V16.1534ZM25.8385 14.1739C24.3973 14.1447 22.7604 14.4022 22.7604 15.8208C22.7604 16.6832 23.3312 17.091 24.0066 17.091C24.9525 17.091 25.5538 16.4884 25.7638 15.8662C25.8085 15.7308 25.8385 15.5781 25.8385 15.4446V14.1739Z" fill="#222753"/>
<path fill-rule="evenodd" clip-rule="evenodd" d="M29.2475 12.8722C29.2475 12.0112 29.2337 11.2713 29.1881 10.5893H30.344L30.3897 12.0275H30.4505C30.7804 11.042 31.576 10.4227 32.4629 10.4227C32.6117 10.4227 32.7172 10.438 32.8394 10.4677V11.7197C32.7044 11.6929 32.5656 11.6786 32.3869 11.6786C31.4577 11.6786 30.7965 12.3897 30.6149 13.3843C30.585 13.5671 30.557 13.782 30.557 14.0069V17.9074H29.2475V12.8722Z" fill="#222753"/>
<path fill-rule="evenodd" clip-rule="evenodd" d="M34.2214 12.5707C34.2214 11.813 34.2062 11.1947 34.1606 10.5893H35.317L35.3774 11.7714H35.4206C35.828 11.0717 36.5015 10.4227 37.7045 10.4227C38.695 10.4227 39.445 11.0267 39.763 11.8896H39.7911C40.0154 11.4804 40.3006 11.1641 40.6015 10.9372C41.0392 10.6051 41.5164 10.4227 42.208 10.4227C43.1705 10.4227 44.5955 11.0583 44.5955 13.5996V17.9074H43.3045V13.7652C43.3045 12.3596 42.7936 11.511 41.7275 11.511C40.977 11.511 40.3914 12.0715 40.1661 12.7224C40.1052 12.9028 40.0587 13.1454 40.0587 13.3843V17.9074H38.7701V13.5235C38.7701 12.3596 38.2592 11.511 37.2515 11.511C36.4278 11.511 35.828 12.1782 35.6165 12.842C35.5418 13.0392 35.5114 13.266 35.5114 13.4886V17.9074H34.2214V12.5707Z" fill="#222753"/>
<path fill-rule="evenodd" clip-rule="evenodd" d="M51.8488 16.1534C51.8488 16.7895 51.8797 17.4102 51.971 17.9074H50.7694L50.6658 16.9852H50.6192C50.2147 17.5605 49.4348 18.0745 48.3957 18.0745C46.9237 18.0745 46.1732 17.0326 46.1732 15.973C46.1732 14.2065 47.7355 13.2369 50.5432 13.2531V13.1C50.5432 12.4946 50.3806 11.4053 48.8905 11.4053C48.2147 11.4053 47.5103 11.6173 46.9993 11.9518L46.6975 11.0717C47.3002 10.6797 48.1705 10.4227 49.0864 10.4227C51.3108 10.4227 51.8488 11.9518 51.8488 13.4178V16.1534ZM50.5741 14.1739C49.1339 14.1447 47.4931 14.4022 47.4931 15.8208C47.4931 16.6832 48.0645 17.091 48.7403 17.091C49.6891 17.091 50.2903 16.4884 50.4994 15.8662C50.5432 15.7308 50.5741 15.5781 50.5741 15.4446V14.1739Z" fill="#222753"/>
<path fill-rule="evenodd" clip-rule="evenodd" d="M59.1629 17.637C58.8193 17.8175 58.0531 18.0745 57.0796 18.0745C54.8856 18.0745 53.4564 16.5597 53.4564 14.3237C53.4564 12.0715 54.9883 10.438 57.362 10.438C58.1434 10.438 58.834 10.6348 59.1971 10.8171L58.8953 11.8432C58.5811 11.6628 58.0849 11.4957 57.362 11.4957C55.6984 11.4957 54.7953 12.7363 54.7953 14.263C54.7953 15.9577 55.8747 17.0024 57.3182 17.0024C58.0711 17.0024 58.564 16.8048 58.9405 16.6387L59.1629 17.637Z" fill="#222753"/>
<path fill-rule="evenodd" clip-rule="evenodd" d="M61.3575 14.4903C61.3864 16.2903 62.531 17.0326 63.85 17.0326C64.7982 17.0326 65.3667 16.8651 65.8619 16.6526L66.092 17.6059C65.6233 17.8175 64.8267 18.0745 63.6703 18.0745C61.433 18.0745 60.0969 16.5803 60.0969 14.3711C60.0969 12.16 61.3864 10.4227 63.5063 10.4227C65.879 10.4227 66.5098 12.5238 66.5098 13.871C66.5098 14.1447 66.4793 14.3529 66.4632 14.4903H61.3575ZM65.2321 13.5379C65.2497 12.6913 64.8866 11.3751 63.3998 11.3751C62.0638 11.3751 61.4796 12.6156 61.3746 13.5379H65.2321Z" fill="#222753"/>
<path fill-rule="evenodd" clip-rule="evenodd" d="M68.1454 12.8722C68.1454 12.0112 68.1306 11.2713 68.0879 10.5893H69.2424L69.2885 12.0275H69.3484C69.6787 11.042 70.4744 10.4227 71.3608 10.4227C71.511 10.4227 71.6175 10.438 71.7368 10.4677V11.7197C71.6013 11.6929 71.4682 11.6786 71.2848 11.6786C70.3546 11.6786 69.6944 12.3897 69.5147 13.3843C69.4829 13.5671 69.4548 13.782 69.4548 14.0069V17.9074H68.1454V12.8722Z" fill="#222753"/>
<path fill-rule="evenodd" clip-rule="evenodd" d="M73.1185 17.9074H74.4398V10.5892H73.1185V17.9074Z" fill="#222753"/>
<path fill-rule="evenodd" clip-rule="evenodd" d="M76.451 16.5482C76.8436 16.8048 77.5342 17.0761 78.1968 17.0761C79.154 17.0761 79.6061 16.5927 79.6061 15.9888C79.6061 15.3537 79.2306 15.0038 78.2567 14.6434C76.9486 14.1739 76.3321 13.447 76.3321 12.5707C76.3321 11.39 77.2785 10.4227 78.8384 10.4227C79.5756 10.4227 80.222 10.6347 80.6294 10.875L80.299 11.8432C80.012 11.6628 79.4872 11.422 78.8104 11.422C78.029 11.422 77.5927 11.8753 77.5927 12.4175C77.5927 13.0253 78.029 13.2952 78.9753 13.6599C80.2368 14.1447 80.8822 14.7779 80.8822 15.8662C80.8822 17.1517 79.8908 18.0745 78.1649 18.0745C77.3688 18.0745 76.6344 17.8634 76.1221 17.5605L76.451 16.5482Z" fill="#222753"/>
<path fill-rule="evenodd" clip-rule="evenodd" d="M73.054 7.87753H74.4072V0.863281H73.054V7.87753Z" fill="#222753"/>
<path fill-rule="evenodd" clip-rule="evenodd" d="M13.1462 27.1088H17.403V22.8216H13.1462V27.1088Z" fill="#4AA3AC"/>
<path fill-rule="evenodd" clip-rule="evenodd" d="M50.2899 27.1088H54.5467V22.8216H50.2899V27.1088Z" fill="#D58D3D"/>
<path fill-rule="evenodd" clip-rule="evenodd" d="M56.4809 27.1088H60.7373V22.8216H56.4809V27.1088Z" fill="#469CD5"/>
<path fill-rule="evenodd" clip-rule="evenodd" d="M62.6712 27.1088H66.928V22.8216H62.6712V27.1088Z" fill="#7A6B4E"/>
<path fill-rule="evenodd" clip-rule="evenodd" d="M68.8618 27.1088H73.1191V22.8216H68.8618V27.1088Z" fill="#2F6C79"/>
<path fill-rule="evenodd" clip-rule="evenodd" d="M81.2427 27.1088H85.5V22.8216H81.2427V27.1088Z" fill="#C96529"/>
<path fill-rule="evenodd" clip-rule="evenodd" d="M75.0531 27.1088H79.309V22.8216H75.0531V27.1088Z" fill="#E1B28B"/>
<path fill-rule="evenodd" clip-rule="evenodd" d="M19.3378 27.1088H23.5937V22.8216H19.3378V27.1088Z" fill="#73AD61"/>
<path fill-rule="evenodd" clip-rule="evenodd" d="M37.9087 27.1088H42.166V22.8216H37.9087V27.1088Z" fill="#CE427D"/>
<path fill-rule="evenodd" clip-rule="evenodd" d="M31.7184 27.1088H35.9752V22.8216H31.7184V27.1088Z" fill="#815E53"/>
<path fill-rule="evenodd" clip-rule="evenodd" d="M44.0993 27.1088H48.3566V22.8216H44.0993V27.1088Z" fill="#6C5396"/>
<path fill-rule="evenodd" clip-rule="evenodd" d="M0.765594 27.1088H5.02196V22.8216H0.765594V27.1088Z" fill="#3477C1"/>
<path fill-rule="evenodd" clip-rule="evenodd" d="M6.9559 27.1088H11.2127V22.8216H6.9559V27.1088Z" fill="#9A324F"/>
<path fill-rule="evenodd" clip-rule="evenodd" d="M25.5281 27.1088H29.7845V22.8216H25.5281V27.1088Z" fill="#D08C79"/>
</svg>
