<svg width="21" height="16" viewBox="0 0 21 16" fill="none" xmlns="http://www.w3.org/2000/svg">
<path d="M19.5312 0.1875H19C18.7012 0.1875 18.4688 0.453125 18.4688 0.71875V1.15039L2.49805 4.86914C2.43164 4.63672 2.23242 4.4375 2 4.4375H1.46875C1.16992 4.4375 0.9375 4.70312 0.9375 4.96875V10.2812C0.9375 10.5801 1.16992 10.8125 1.46875 10.8125H2C2.23242 10.8125 2.43164 10.6465 2.49805 10.4141L6.31641 11.3105C6.2832 11.5098 6.25 11.6758 6.25 11.875C6.25 13.668 7.64453 15.0625 9.4375 15.0625C10.8984 15.0625 12.127 14.0996 12.4922 12.7383L18.4688 14.1328V14.5312C18.4688 14.8301 18.7012 15.0625 19 15.0625H19.5312C19.7969 15.0625 20.0625 14.8301 20.0625 14.5312V0.71875C20.0625 0.453125 19.7969 0.1875 19.5312 0.1875ZM9.4375 13.4688C8.54102 13.4688 7.84375 12.7715 7.84375 11.875C7.84375 11.8086 7.84375 11.7422 7.87695 11.6758L10.9316 12.373C10.7324 13.0039 10.1348 13.4688 9.4375 13.4688ZM2.53125 8.78711V6.49609L18.4688 2.81055V12.4727L2.53125 8.78711Z" fill="white"/>
</svg>
