<svg width="14" height="11" viewBox="0 0 14 11" fill="none" xmlns="http://www.w3.org/2000/svg">
<path d="M12.0859 1.23438L12.0391 1.1875C11.4297 0.578125 10.6328 0.25 9.83594 0.25C9.03906 0.25 8.24219 0.578125 7.63281 1.1875L7 1.84375L6.34375 1.1875C5.73438 0.578125 4.9375 0.25 4.14062 0.25C3.34375 0.25 2.54688 0.578125 1.9375 1.1875L1.89062 1.23438C0.742188 2.40625 0.695312 4.25781 1.72656 5.5L6.69531 10.6328C6.76562 10.7266 6.88281 10.75 6.97656 10.75C7.09375 10.75 7.21094 10.7266 7.28125 10.6328L12.2734 5.5C13.2812 4.25781 13.2344 2.40625 12.0859 1.23438ZM11.4297 4.77344L7 9.32031L2.57031 4.77344C1.91406 3.95312 1.98438 2.75781 2.6875 2.03125L2.75781 1.98438C3.10938 1.58594 3.60156 1.375 4.14062 1.375C4.65625 1.375 5.17188 1.58594 5.52344 1.98438L6.13281 2.59375L6.625 4L4.84375 4.84375C4.72656 4.89062 4.70312 5.03125 4.79688 5.125L6.8125 7.21094C6.95312 7.35156 7.1875 7.21094 7.14062 7.02344L6.625 5.3125L8.40625 4.09375C8.47656 4.04688 8.5 3.95312 8.47656 3.88281L7.91406 2.5L8.45312 1.98438C8.82812 1.58594 9.32031 1.375 9.83594 1.375C10.375 1.375 10.8672 1.58594 11.2188 1.96094L11.2891 2.03125C11.9922 2.75781 12.0625 3.95312 11.4297 4.77344Z" fill="white"/>
</svg>
