<svg width="18" height="17" viewBox="0 0 18 17" fill="none" xmlns="http://www.w3.org/2000/svg">
<path d="M9 0.390625C4.45117 0.390625 0.765625 4.07617 0.765625 8.625C0.765625 13.1738 4.45117 16.8594 9 16.8594C13.5488 16.8594 17.2344 13.1738 17.2344 8.625C17.2344 4.07617 13.5488 0.390625 9 0.390625ZM14.9434 5.70312H12.7188C12.4863 4.50781 12.1211 3.44531 11.6562 2.58203C13.084 3.21289 14.2461 4.30859 14.9434 5.70312ZM9 1.98438C9.59766 1.98438 10.5938 3.37891 11.0918 5.70312H6.875C7.37305 3.37891 8.36914 1.98438 9 1.98438ZM2.35938 8.625C2.35938 8.19336 2.39258 7.72852 2.49219 7.29688H5.04883C5.01562 7.76172 5.01562 8.19336 5.01562 8.625C5.01562 9.08984 5.01562 9.52148 5.04883 9.95312H2.49219C2.39258 9.55469 2.35938 9.08984 2.35938 8.625ZM3.02344 11.5469H5.24805C5.48047 12.7754 5.8457 13.8379 6.31055 14.7012C4.88281 14.0703 3.7207 12.9414 3.02344 11.5469ZM5.24805 5.70312H3.02344C3.7207 4.30859 4.88281 3.21289 6.31055 2.58203C5.8457 3.44531 5.48047 4.50781 5.24805 5.70312ZM9 15.2656C8.36914 15.2656 7.37305 13.9043 6.875 11.5469H11.0918C10.5938 13.9043 9.59766 15.2656 9 15.2656ZM11.3242 9.95312H6.64258C6.60938 9.55469 6.60938 9.08984 6.60938 8.625C6.60938 8.16016 6.60938 7.72852 6.64258 7.29688H11.3242C11.3574 7.72852 11.3906 8.16016 11.3906 8.625C11.3906 9.08984 11.3574 9.55469 11.3242 9.95312ZM11.6562 14.7012C12.1211 13.8379 12.4863 12.7754 12.7188 11.5469H14.9434C14.2461 12.9414 13.084 14.0703 11.6562 14.7012ZM12.918 9.95312C12.9512 9.52148 12.9844 9.08984 12.9844 8.625C12.9844 8.19336 12.9512 7.76172 12.918 7.29688H15.5078C15.5742 7.72852 15.6406 8.19336 15.6406 8.625C15.6406 9.08984 15.5742 9.55469 15.5078 9.95312H12.918Z" fill="#8A94A6"/>
</svg>
