<svg width="22" height="16" viewBox="0 0 22 16" fill="none" xmlns="http://www.w3.org/2000/svg">
<path d="M18.4375 6.5625C19.8984 6.5625 21.0938 5.40039 21.0938 3.90625C21.0938 2.44531 19.8984 1.25 18.4375 1.25C16.9434 1.25 15.7812 2.44531 15.7812 3.90625C15.7812 5.40039 16.9434 6.5625 18.4375 6.5625ZM18.4375 2.84375C19.002 2.84375 19.5 3.3418 19.5 3.90625C19.5 4.50391 19.002 4.96875 18.4375 4.96875C17.8398 4.96875 17.375 4.50391 17.375 3.90625C17.375 3.3418 17.8398 2.84375 18.4375 2.84375ZM3.5625 6.5625C5.02344 6.5625 6.21875 5.40039 6.21875 3.90625C6.21875 2.44531 5.02344 1.25 3.5625 1.25C2.06836 1.25 0.90625 2.44531 0.90625 3.90625C0.90625 5.40039 2.06836 6.5625 3.5625 6.5625ZM3.5625 2.84375C4.12695 2.84375 4.625 3.3418 4.625 3.90625C4.625 4.50391 4.12695 4.96875 3.5625 4.96875C2.96484 4.96875 2.5 4.50391 2.5 3.90625C2.5 3.3418 2.96484 2.84375 3.5625 2.84375ZM16.7109 9.84961C15.7812 8.52148 14.0215 7.99023 12.4609 8.48828C11.9961 8.62109 11.498 8.6875 10.9668 8.6875C10.4688 8.6875 9.9707 8.62109 9.50586 8.48828C7.94531 7.99023 6.15234 8.48828 5.25586 9.84961C4.85742 10.4805 4.5918 11.2109 4.5918 12.0078V13.4688C4.5918 14.3652 5.32227 15.0625 6.18555 15.0625H15.748C16.6445 15.0625 17.3418 14.3652 17.3418 13.4688V12.0078C17.375 11.2109 17.1094 10.4805 16.7109 9.84961ZM15.7812 13.4688H6.21875V12.0078C6.21875 10.7793 7.18164 9.7832 8.37695 9.75C9.20703 10.1152 10.1035 10.2812 11 10.2812C11.8633 10.2812 12.7598 10.1152 13.5898 9.75C14.7852 9.7832 15.7812 10.7793 15.7812 12.0078V13.4688ZM18.8359 7.625H18.0391C17.4414 7.625 16.9102 7.82422 16.4785 8.12305C16.9102 8.45508 17.3086 8.85352 17.6074 9.31836C17.7402 9.28516 17.873 9.21875 18.0059 9.21875H18.8027C19.4668 9.21875 19.998 9.7832 19.998 10.4141C19.998 10.8789 20.3633 11.2109 20.7949 11.2109C21.2598 11.2109 21.5918 10.8789 21.5918 10.4141C21.625 8.88672 20.3633 7.625 18.8359 7.625ZM11 7.625C13.0254 7.625 14.7188 5.96484 14.7188 3.90625C14.7188 1.88086 13.0254 0.1875 11 0.1875C8.94141 0.1875 7.28125 1.88086 7.28125 3.90625C7.28125 5.96484 8.94141 7.625 11 7.625ZM11 1.78125C12.1621 1.78125 13.125 2.74414 13.125 3.90625C13.125 5.10156 12.1621 6.03125 11 6.03125C9.80469 6.03125 8.875 5.10156 8.875 3.90625C8.875 2.74414 9.80469 1.78125 11 1.78125ZM5.48828 8.12305C5.05664 7.82422 4.52539 7.625 3.96094 7.625H3.16406C1.60352 7.625 0.375 8.88672 0.375 10.4141C0.375 10.8789 0.707031 11.2109 1.17188 11.2109C1.60352 11.2109 1.96875 10.8789 1.96875 10.4141C1.96875 9.7832 2.5 9.21875 3.16406 9.21875H3.96094C4.09375 9.21875 4.22656 9.28516 4.35938 9.31836C4.6582 8.85352 5.05664 8.45508 5.48828 8.12305Z" fill="#39B54A"/>
</svg>
