<svg width="20" height="19" viewBox="0 0 20 19" fill="none" xmlns="http://www.w3.org/2000/svg">
<path d="M9.26953 9.35938C9.70117 9.79102 10.3652 9.69141 10.6973 9.35938L13.9512 5.97266C14.9805 4.91016 15.1797 2.95117 13.752 1.75586C12.4902 0.660156 10.7969 1.1582 10 2.02148C9.16992 1.1582 7.47656 0.660156 6.21484 1.75586C4.78711 2.95117 5.01953 4.91016 6.01562 5.97266L9.26953 9.35938ZM7.21094 2.98438C7.67578 2.58594 8.40625 2.68555 8.83789 3.15039L10 4.3125L11.1289 3.15039C11.5605 2.68555 12.291 2.58594 12.7559 2.98438C13.3867 3.51562 13.2871 4.37891 12.8555 4.84375L10 7.79883L7.11133 4.84375C6.67969 4.37891 6.58008 3.51562 7.21094 2.98438ZM18.7324 11.4844C17.7031 10.6211 16.4414 10.9531 15.8105 11.4512L13.8184 12.9453H13.6855C13.6855 11.6836 12.6895 10.6875 11.3945 10.6875H6.61328C5.68359 10.6875 4.75391 11.0195 4.02344 11.584L3.06055 12.2812H0.96875C0.669922 12.2812 0.4375 12.5469 0.4375 12.8125V13.3438C0.4375 13.6426 0.669922 13.875 0.96875 13.875H3.625L4.98633 12.8457C5.45117 12.4805 6.01562 12.2812 6.61328 12.2812H11.3945C12.3242 12.2812 12.3574 13.6426 11.3613 13.6426H9.36914C9.13672 13.6426 8.9375 13.8418 8.9375 14.0742V14.1074C8.9375 14.3398 9.13672 14.5391 9.36914 14.5391H13.8516C14.1836 14.5391 14.4824 14.4395 14.748 14.2402L16.7734 12.7129C17.0391 12.5137 17.4707 12.5137 17.7031 12.7129C18.0684 13.0117 18.0352 13.4766 17.7031 13.7422L14.3496 16.2324C14.084 16.4316 13.7852 16.5312 13.4531 16.5312H0.96875C0.669922 16.5312 0.4375 16.7969 0.4375 17.0625V17.5938C0.4375 17.8926 0.669922 18.125 0.96875 18.125H13.4531C14.1172 18.125 14.7812 17.9258 15.3125 17.5273L18.6328 15.0039C19.1973 14.6055 19.5293 13.9746 19.5293 13.2773C19.5625 12.6133 19.2637 11.9492 18.7324 11.4844Z" fill="#39B54A"/>
</svg>
