<svg width="19" height="18" viewBox="0 0 19 18" fill="none" xmlns="http://www.w3.org/2000/svg">
<path d="M17.502 2.68164L15.4434 0.623047C15.1445 0.291016 14.7461 0.125 14.3145 0.125C13.916 0.125 13.5176 0.291016 13.1855 0.623047L1.46484 12.3438C0.833984 12.9746 0.833984 13.9707 1.46484 14.6016L3.52344 16.6602C3.82227 16.9922 4.2207 17.125 4.65234 17.125C5.05078 17.125 5.44922 16.9922 5.78125 16.6602L17.502 4.93945C18.1328 4.30859 18.1328 3.3125 17.502 2.68164ZM4.65234 15.5312L2.59375 13.4727L9.99805 6.03516L12.0898 8.12695L4.65234 15.5312ZM13.2188 6.99805L11.127 4.90625L14.3145 1.71875L16.4062 3.81055L13.2188 6.99805ZM15.3438 9.6875L14.4473 11.4805L12.6875 12.3438L14.4473 13.2402L15.3438 15L16.207 13.2402L18 12.3438L16.207 11.4805L15.3438 9.6875ZM8.4375 3.3125L8.96875 2.25L10.0312 1.71875L8.96875 1.1875L8.4375 0.125L7.90625 1.1875L6.84375 1.71875L7.90625 2.25L8.4375 3.3125ZM3.65625 5.4375L4.51953 3.67773L6.3125 2.78125L4.51953 1.91797L3.65625 0.125L2.75977 1.91797L1 2.78125L2.75977 3.67773L3.65625 5.4375Z" fill="#39B54A"/>
</svg>
