<svg width="19" height="18" viewBox="0 0 19 18" fill="none" xmlns="http://www.w3.org/2000/svg">
<path d="M16.2734 5.20508C16.1738 5.10547 16.373 5.20508 16.9043 4.70703C17.7676 3.74414 18.0332 2.2168 17.9668 0.722656C17.9336 0.0585938 17.1699 0.158203 16.9707 0.158203C15.8086 0.158203 14.4141 0.357422 13.4512 1.25391C12.8203 1.85156 13.0527 1.98438 12.9199 1.81836L11.5918 0.490234C11.3926 0.291016 11.0605 0.291016 10.8281 0.490234L9.69922 1.65234C9.30078 2.05078 9.03516 2.54883 8.90234 3.11328C8.50391 2.81445 8.20508 3.14648 8.20508 3.14648L7.07617 4.27539C6.67773 4.67383 6.41211 5.20508 6.2793 5.73633C5.91406 5.4375 5.58203 5.76953 5.58203 5.76953L4.45312 6.89844C3.22461 8.12695 3.22461 10.1523 4.45312 11.4141L5.01758 11.9785L1.23242 15.7969C0.900391 16.0957 0.900391 16.5938 1.23242 16.8926C1.36523 17.0586 1.56445 17.125 1.76367 17.125C1.99609 17.125 2.19531 17.0586 2.32812 16.8926L6.14648 13.1074L6.71094 13.6719C7.97266 14.9004 9.96484 14.9004 11.2266 13.6719L12.3555 12.5098C12.5215 12.3438 12.5547 12.0449 12.3887 11.8457C12.9199 11.7129 13.4512 11.4473 13.8496 11.0156L14.9785 9.88672C15.1445 9.7207 15.1777 9.42188 15.0117 9.22266C15.543 9.08984 16.041 8.82422 16.4727 8.39258L17.6016 7.26367C17.8008 7.06445 17.8008 6.73242 17.6016 6.5332L16.2734 5.20508ZM6.51172 10.4512L6.14648 10.8496L5.58203 10.2852C4.95117 9.6543 4.95117 8.6582 5.58203 8.02734L5.94727 7.66211L6.51172 8.22656C6.81055 8.52539 6.97656 8.92383 6.97656 9.32227C6.97656 9.75391 6.81055 10.1523 6.51172 10.4512ZM10.8281 2.78125L11.2266 2.38281L11.791 2.94727C12.3887 3.57812 12.3887 4.57422 11.791 5.20508L11.3926 5.57031L10.8281 5.00586C10.2305 4.4082 10.1973 3.37891 10.8281 2.78125ZM8.20508 5.4043L8.57031 5.03906L9.13477 5.57031C9.76562 6.20117 9.76562 7.23047 9.13477 7.82812L8.76953 8.19336L8.20508 7.66211C7.60742 7.03125 7.60742 6.00195 8.20508 5.4043ZM10.0977 12.543C9.4668 13.1406 8.4707 13.1406 7.83984 12.543L7.27539 11.9785L7.67383 11.5801C8.27148 10.9492 9.30078 10.9492 9.89844 11.5801L10.4629 12.1445L10.0977 12.543ZM12.7207 9.88672C12.0898 10.5176 11.0938 10.5176 10.4629 9.88672L9.89844 9.32227L10.2637 8.95703C10.8945 8.32617 11.9238 8.32617 12.5215 8.95703L13.0859 9.52148L12.7207 9.88672ZM15.3438 7.26367C14.7129 7.89453 13.7168 7.89453 13.0859 7.26367L12.5215 6.69922L12.9199 6.33398C13.5176 5.70312 14.5469 5.70312 15.1445 6.33398L15.709 6.89844L15.3438 7.26367ZM13.916 4.20898C13.9824 3.51172 14.1484 2.81445 14.5469 2.38281C14.9453 2.05078 15.5762 1.81836 16.373 1.75195C16.3066 2.54883 16.0742 3.17969 15.7754 3.57812C15.377 3.91016 14.7461 4.14258 13.916 4.20898Z" fill="#39B54A"/>
</svg>
