<svg width="18" height="18" viewBox="0 0 18 18" fill="none" xmlns="http://www.w3.org/2000/svg">
<path d="M17.3672 15.6973L13.3496 11.6797C13.25 11.6133 13.1504 11.5469 13.0508 11.5469H12.6191C13.6484 10.3516 14.3125 8.75781 14.3125 7.03125C14.3125 3.24609 11.1914 0.125 7.40625 0.125C3.58789 0.125 0.5 3.24609 0.5 7.03125C0.5 10.8496 3.58789 13.9375 7.40625 13.9375C9.13281 13.9375 10.6934 13.3066 11.9219 12.2773V12.709C11.9219 12.8086 11.9551 12.9082 12.0215 13.0078L16.0391 17.0254C16.2051 17.1914 16.4707 17.1914 16.6035 17.0254L17.3672 16.2617C17.5332 16.1289 17.5332 15.8633 17.3672 15.6973ZM7.40625 12.3438C4.45117 12.3438 2.09375 9.98633 2.09375 7.03125C2.09375 4.10938 4.45117 1.71875 7.40625 1.71875C10.3281 1.71875 12.7188 4.10938 12.7188 7.03125C12.7188 9.98633 10.3281 12.3438 7.40625 12.3438Z" fill="white"/>
</svg>
