<svg width="20" height="16" viewBox="0 0 20 16" fill="none" xmlns="http://www.w3.org/2000/svg">
<path d="M19.1641 5.5H16.7402L12.457 0.486328C12.1582 0.154297 11.6602 0.121094 11.3281 0.386719C10.9961 0.685547 10.9629 1.18359 11.2285 1.51562L14.6484 5.5H5.31836L8.73828 1.51562C9.00391 1.18359 8.9707 0.685547 8.63867 0.386719C8.30664 0.121094 7.80859 0.154297 7.50977 0.486328L3.22656 5.5H0.835938C0.603516 5.5 0.4375 5.69922 0.4375 5.89844V6.69531C0.4375 6.92773 0.603516 7.09375 0.835938 7.09375H1.43359L2.36328 13.7012C2.46289 14.498 3.12695 15.0625 3.92383 15.0625H16.043C16.8398 15.0625 17.5039 14.498 17.6035 13.7012L18.5332 7.09375H19.1641C19.3633 7.09375 19.5625 6.92773 19.5625 6.69531V5.89844C19.5625 5.69922 19.3633 5.5 19.1641 5.5ZM16.043 13.4688H3.92383L3.06055 7.09375H16.9062L16.043 13.4688ZM10.7969 8.95312C10.7969 8.52148 10.4316 8.15625 10 8.15625C9.53516 8.15625 9.20312 8.52148 9.20312 8.95312V11.6094C9.20312 12.0742 9.53516 12.4062 10 12.4062C10.4316 12.4062 10.7969 12.0742 10.7969 11.6094V8.95312ZM14.5156 8.95312C14.5156 8.52148 14.1504 8.15625 13.7188 8.15625C13.2539 8.15625 12.9219 8.52148 12.9219 8.95312V11.6094C12.9219 12.0742 13.2539 12.4062 13.7188 12.4062C14.1504 12.4062 14.5156 12.0742 14.5156 11.6094V8.95312ZM7.07812 8.95312C7.07812 8.52148 6.71289 8.15625 6.28125 8.15625C5.81641 8.15625 5.48438 8.52148 5.48438 8.95312V11.6094C5.48438 12.0742 5.81641 12.4062 6.28125 12.4062C6.71289 12.4062 7.07812 12.0742 7.07812 11.6094V8.95312Z" fill="#8A94A6"/>
</svg>
