<svg width="54" height="42" viewBox="0 0 54 42" fill="none" xmlns="http://www.w3.org/2000/svg">
<path d="M53.4375 17.7031C53.4375 16.5098 52.4277 15.5 51.2344 15.5H44.9922L35.1699 2.09766C34.252 0.720703 32.416 0.445312 31.1309 1.45508C29.7539 2.37305 29.4785 4.20898 30.4883 5.49414L37.7402 15.5H16.168L23.4199 5.49414C24.4297 4.20898 24.1543 2.37305 22.7773 1.45508C21.4922 0.445312 19.6562 0.720703 18.7383 2.09766L8.91602 15.5H2.76562C1.48047 15.5 0.5625 16.5098 0.5625 17.7031V19.1719C0.5625 20.457 1.48047 21.375 2.76562 21.375H3.5L5.88672 38.1738C6.16211 40.377 7.99805 41.9375 10.2012 41.9375H43.707C45.9102 41.9375 47.7461 40.377 48.0215 38.1738L50.5 21.375H51.2344C52.4277 21.375 53.4375 20.457 53.4375 19.1719V17.7031ZM29.2031 33.8594C29.2031 35.1445 28.1934 36.0625 27 36.0625C25.7148 36.0625 24.7969 35.1445 24.7969 33.8594V23.5781C24.7969 22.3848 25.7148 21.375 27 21.375C28.1934 21.375 29.2031 22.3848 29.2031 23.5781V33.8594ZM39.4844 33.8594C39.4844 35.1445 38.4746 36.0625 37.2812 36.0625C35.9961 36.0625 35.0781 35.1445 35.0781 33.8594V23.5781C35.0781 22.3848 35.9961 21.375 37.2812 21.375C38.4746 21.375 39.4844 22.3848 39.4844 23.5781V33.8594ZM18.9219 33.8594C18.9219 35.1445 17.9121 36.0625 16.7188 36.0625C15.4336 36.0625 14.5156 35.1445 14.5156 33.8594V23.5781C14.5156 22.3848 15.4336 21.375 16.7188 21.375C17.9121 21.375 18.9219 22.3848 18.9219 23.5781V33.8594Z" fill="#8A94A6"/>
</svg>
