<svg width="20" height="17" viewBox="0 0 20 17" fill="none" xmlns="http://www.w3.org/2000/svg">
<path d="M16.707 2.2832C14.7812 0.65625 11.8262 0.888672 10 2.78125C8.14062 0.888672 5.18555 0.65625 3.25977 2.2832C0.769531 4.375 1.13477 7.79492 2.92773 9.62109L8.73828 15.5645C9.07031 15.8965 9.50195 16.0957 10 16.0957C10.4648 16.0957 10.8965 15.8965 11.2285 15.5645L17.0723 9.62109C18.832 7.79492 19.1973 4.375 16.707 2.2832ZM15.9102 8.49219L10.0996 14.4355C10.0332 14.502 9.9668 14.502 9.86719 14.4355L4.05664 8.49219C2.82812 7.26367 2.5957 4.93945 4.28906 3.51172C5.58398 2.41602 7.57617 2.58203 8.83789 3.84375L10 5.03906L11.1621 3.84375C12.3906 2.58203 14.3828 2.41602 15.6777 3.47852C17.3711 4.93945 17.1387 7.26367 15.9102 8.49219Z" fill="#8A94A6"/>
</svg>
