<svg width="18" height="11" viewBox="0 0 18 11" fill="none" xmlns="http://www.w3.org/2000/svg">
<path d="M14.25 4C13.8125 4 13.4023 4.08203 13.0195 4.21875L12.1172 2.6875H14.4688C14.8242 2.6875 15.125 2.41406 15.125 2.03125V1.15625C15.125 0.800781 14.8242 0.5 14.4688 0.5H13.2109C13.0195 0.5 12.8555 0.609375 12.7188 0.71875L11.6523 1.92188L10.9961 0.773438C10.8867 0.609375 10.7227 0.5 10.5312 0.5H8.45312C8.26172 0.5 8.125 0.664062 8.125 0.828125V1.26562C8.125 1.45703 8.26172 1.59375 8.45312 1.59375H10.2031L11.0508 3.01562H6.23828C6.12891 2.90625 5.99219 2.79688 5.85547 2.6875C5.33594 2.33203 4.67969 2.14062 3.75 2.14062H2.21875C1.89062 2.14062 1.67188 2.38672 1.67188 2.6875C1.67188 3.01562 1.89062 3.23438 2.21875 3.23438H3.75C4.35156 3.23438 4.76172 3.48047 5.0625 3.80859L4.84375 4.19141C4.48828 4.08203 4.13281 4.02734 3.75 4.02734V4C1.80859 4 0.25 5.58594 0.25 7.5C0.25 9.44141 1.80859 11 3.75 11C5.33594 11 6.67578 9.96094 7.08594 8.48438H9.32812C9.62891 8.48438 9.875 8.23828 9.875 7.9375C9.79297 6.43359 10.5039 5.03906 11.7344 4.19141L12.0625 4.76562C11.2695 5.39453 10.75 6.40625 10.75 7.5C10.75 9.44141 12.3086 11 14.25 11C16.1641 11 17.75 9.44141 17.75 7.5C17.75 5.58594 16.1641 4 14.25 4ZM3.75 9.90625C2.41016 9.90625 1.34375 8.83984 1.34375 7.5C1.34375 6.1875 2.41016 5.09375 3.75 5.09375C3.94141 5.09375 4.13281 5.12109 4.29688 5.17578L2.92969 7.69141C2.73828 8.04688 2.98438 8.48438 3.42188 8.48438H5.9375C5.55469 9.33203 4.70703 9.90625 3.75 9.90625ZM8.78125 7.39062H4.32422L6.12891 4.10938H10.1758C9.32812 5.03906 8.86328 6.21484 8.78125 7.39062ZM14.25 9.90625C12.9102 9.90625 11.8438 8.83984 11.8438 7.5C11.8438 6.78906 12.1445 6.16016 12.6367 5.72266L14.0859 8.21094C14.1953 8.34766 14.3867 8.40234 14.5508 8.32031L14.9336 8.10156C15.0703 7.99219 15.125 7.80078 15.043 7.63672L13.5938 5.20312C13.7852 5.14844 14.0039 5.12109 14.2227 5.12109C14.2227 5.12109 14.2227 5.09375 14.25 5.09375C15.5625 5.09375 16.6562 6.1875 16.6562 7.5C16.6562 8.83984 15.5625 9.90625 14.25 9.90625Z" fill="#39B54A"/>
</svg>
