<svg width="22" height="13" viewBox="0 0 22 13" fill="none" xmlns="http://www.w3.org/2000/svg">
<path d="M17.375 4.5C16.8438 4.5 16.3457 4.59961 15.8809 4.76562L14.7852 2.90625H17.6406C18.0723 2.90625 18.4375 2.57422 18.4375 2.10938V1.04688C18.4375 0.615234 18.0723 0.25 17.6406 0.25H16.1133C15.8809 0.25 15.6816 0.382812 15.5156 0.515625L14.2207 1.97656L13.4238 0.582031C13.291 0.382812 13.0918 0.25 12.8594 0.25H10.3359C10.1035 0.25 9.9375 0.449219 9.9375 0.648438V1.17969C9.9375 1.41211 10.1035 1.57812 10.3359 1.57812H12.4609L13.4902 3.30469H7.64648C7.51367 3.17188 7.34766 3.03906 7.18164 2.90625C6.55078 2.47461 5.75391 2.24219 4.625 2.24219H2.76562C2.36719 2.24219 2.10156 2.54102 2.10156 2.90625C2.10156 3.30469 2.36719 3.57031 2.76562 3.57031H4.625C5.35547 3.57031 5.85352 3.86914 6.21875 4.26758L5.95312 4.73242C5.52148 4.59961 5.08984 4.5332 4.625 4.5332V4.5C2.26758 4.5 0.375 6.42578 0.375 8.75C0.375 11.1074 2.26758 13 4.625 13C6.55078 13 8.17773 11.7383 8.67578 9.94531H11.3984C11.7637 9.94531 12.0625 9.64648 12.0625 9.28125C11.9629 7.45508 12.8262 5.76172 14.3203 4.73242L14.7188 5.42969C13.7559 6.19336 13.125 7.42188 13.125 8.75C13.125 11.1074 15.0176 13 17.375 13C19.6992 13 21.625 11.1074 21.625 8.75C21.625 6.42578 19.6992 4.5 17.375 4.5ZM4.625 11.6719C2.99805 11.6719 1.70312 10.377 1.70312 8.75C1.70312 7.15625 2.99805 5.82812 4.625 5.82812C4.85742 5.82812 5.08984 5.86133 5.28906 5.92773L3.62891 8.98242C3.39648 9.41406 3.69531 9.94531 4.22656 9.94531H7.28125C6.81641 10.9746 5.78711 11.6719 4.625 11.6719ZM10.7344 8.61719H5.32227L7.51367 4.63281H12.4277C11.3984 5.76172 10.834 7.18945 10.7344 8.61719ZM17.375 11.6719C15.748 11.6719 14.4531 10.377 14.4531 8.75C14.4531 7.88672 14.8184 7.12305 15.416 6.5918L17.1758 9.61328C17.3086 9.7793 17.541 9.8457 17.7402 9.74609L18.2051 9.48047C18.3711 9.34766 18.4375 9.11523 18.3379 8.91602L16.5781 5.96094C16.8105 5.89453 17.0762 5.86133 17.3418 5.86133C17.3418 5.86133 17.3418 5.82812 17.375 5.82812C18.9688 5.82812 20.2969 7.15625 20.2969 8.75C20.2969 10.377 18.9688 11.6719 17.375 11.6719Z" fill="#39B54A"/>
</svg>
