<svg width="63" height="19" viewBox="0 0 63 19" fill="none" xmlns="http://www.w3.org/2000/svg">
<path fill-rule="evenodd" clip-rule="evenodd" d="M44.9182 14.1866V8.20869H37.2848V14.1866H35.1132V0.845786H37.2848V6.56383H44.9182V0.845786H47.0886V14.1866H44.9182Z" fill="#1B212B"/>
<path fill-rule="evenodd" clip-rule="evenodd" d="M12.3361 19H12.6749L11.489 16.2079L10.3017 19H10.6433L10.9475 18.2386H12.0314L12.3361 19ZM11.0494 17.9836L11.489 16.8834L11.929 17.9836H11.0494Z" fill="#1B212B"/>
<path fill-rule="evenodd" clip-rule="evenodd" d="M31.5176 19H31.8568L30.6707 16.2079L29.4838 19H29.8254L30.1292 18.2386H31.2131L31.5176 19ZM30.2311 17.9836L30.6707 16.8834L31.1109 17.9836H30.2311Z" fill="#1B212B"/>
<path d="M43.6794 16.3758V19H44.0194V16.3758H43.6794Z" fill="#1B212B"/>
<path d="M16.1329 0.845786V14.1866H18.3055V0.845786H16.1329Z" fill="#1B212B"/>
<path d="M10.8589 0.841105L6.57629 9.87938C6.59934 9.8571 2.24933 0.841105 2.24933 0.841105H6.10352e-05L6.56063 14.1866L13.1082 0.841105H10.8589Z" fill="#1B212B"/>
<path d="M28.4487 12.4C25.2602 12.4 22.9279 10.3528 22.9279 7.51524C22.9279 4.67784 25.2602 2.63066 28.4487 2.63066C29.8529 2.63066 31.1399 3.07679 32.1408 3.81797V1.70714C31.0507 1.15729 29.7913 0.843147 28.4487 0.843147C24.3075 0.843147 20.9501 3.83032 20.9501 7.51524C20.9501 11.2002 24.3075 14.1871 28.4487 14.1871C29.7913 14.1871 31.0507 13.8724 32.1408 13.3228V11.2127C31.1399 11.9537 29.8529 12.4 28.4487 12.4Z" fill="#1B212B"/>
<path d="M15.8939 17.7307V18.7489H16.2262C16.6754 18.7489 16.8714 18.5674 16.8714 18.2468C16.8714 17.9357 16.6624 17.7307 16.188 17.7307H15.8939ZM15.8939 16.6293V17.4759H16.0448C16.2451 17.4759 16.3888 17.4531 16.4773 17.4066C16.5985 17.3409 16.6589 17.2687 16.6589 17.0826C16.6589 16.9015 16.6019 16.7635 16.4884 16.699C16.4042 16.6522 16.2577 16.6293 16.0483 16.6293H15.8939ZM15.64 19V16.3717H16.0731C16.6589 16.3717 16.9522 16.6085 16.9522 17.0826C16.9522 17.3104 16.866 17.4815 16.6937 17.5952C16.847 17.6322 16.9688 17.7137 17.0582 17.8389C17.1482 17.9647 17.1641 18.1077 17.1641 18.268C17.1641 18.5164 17.0723 18.7036 16.889 18.8291C16.7234 18.9427 16.53 19 16.2509 19H15.64Z" fill="#1B212B"/>
<path d="M21.441 16.5626C21.1346 16.5626 20.8747 16.6688 20.6612 16.8802C20.4474 17.0917 20.34 17.3471 20.34 17.6453C20.34 17.9411 20.4476 18.1955 20.6624 18.4084C20.8775 18.6209 21.137 18.7276 21.441 18.7276C21.7451 18.7276 22.0049 18.6209 22.2196 18.4084C22.4346 18.1955 22.5419 17.9411 22.5419 17.6453C22.5419 17.3471 22.4348 17.0917 22.2213 16.8802C22.0075 16.6688 21.7476 16.5626 21.441 16.5626ZM21.441 16.2921C21.8261 16.2921 22.1554 16.4247 22.4295 16.69C22.704 16.9545 22.841 17.2741 22.841 17.6487C22.841 18.0235 22.704 18.3417 22.4295 18.6048C22.1554 18.8667 21.8261 18.9983 21.441 18.9983C21.0565 18.9983 20.7268 18.8667 20.4525 18.6048C20.1783 18.3417 20.041 18.0235 20.041 17.6487C20.041 17.2741 20.1783 16.9545 20.4525 16.69C20.7268 16.4247 21.0565 16.2921 21.441 16.2921Z" fill="#1B212B"/>
<path d="M39.3631 16.5626C39.0565 16.5626 38.796 16.6688 38.5827 16.8802C38.3693 17.0917 38.2619 17.3471 38.2619 17.6453C38.2619 17.9411 38.3699 18.1955 38.5844 18.4084C38.7992 18.6209 39.0587 18.7276 39.3631 18.7276C39.6666 18.7276 39.9266 18.6209 40.1419 18.4084C40.3566 18.1955 40.464 17.9411 40.464 17.6453C40.464 17.3471 40.357 17.0917 40.1428 16.8802C39.9294 16.6688 39.6693 16.5626 39.3631 16.5626ZM39.3631 16.2921C39.7476 16.2921 40.0772 16.4247 40.351 16.69C40.6257 16.9545 40.7629 17.2741 40.7629 17.6487C40.7629 18.0235 40.6257 18.3417 40.351 18.6048C40.0772 18.8667 39.7476 18.9983 39.3631 18.9983C38.978 18.9983 38.6489 18.8667 38.3742 18.6048C38.1002 18.3417 37.9628 18.0235 37.9628 17.6487C37.9628 17.2741 38.1002 16.9545 38.3742 16.69C38.6489 16.4247 38.978 16.2921 39.3631 16.2921Z" fill="#1B212B"/>
<path d="M57.1787 16.7001L56.9467 16.8493C56.8373 16.6593 56.6876 16.5651 56.4951 16.5651C56.3778 16.5651 56.276 16.6035 56.1902 16.6793C56.1046 16.7553 56.0615 16.8527 56.0615 16.9706C56.0615 17.0695 56.1076 17.1561 56.2009 17.2303C56.2564 17.2741 56.3459 17.3243 56.4711 17.3793L56.6443 17.4555C56.8504 17.5455 56.9973 17.6347 57.0852 17.7225C57.2102 17.8451 57.2728 18.0005 57.2728 18.1905C57.2728 18.4166 57.1928 18.6076 57.0331 18.7635C56.8733 18.9197 56.6791 18.9976 56.4503 18.9976C56.2421 18.9976 56.0646 18.9356 55.9177 18.8124C55.7708 18.6888 55.6765 18.5254 55.6353 18.3221L55.9192 18.2422C55.9383 18.3784 55.9957 18.4932 56.0929 18.5868C56.1902 18.6808 56.3068 18.7272 56.4432 18.7272C56.5867 18.7272 56.7125 18.6782 56.8197 18.5804C56.9276 18.4822 56.9814 18.3612 56.9814 18.2178C56.9814 18.0813 56.9312 17.9711 56.832 17.885C56.7696 17.8299 56.6587 17.7679 56.4987 17.6983L56.3396 17.6287C56.1567 17.5506 56.0238 17.4697 55.94 17.386C55.827 17.2728 55.7708 17.1307 55.7708 16.9599C55.7708 16.7636 55.8444 16.6014 55.9927 16.4749C56.1312 16.3547 56.3011 16.2944 56.5026 16.2944C56.8079 16.2944 57.0331 16.4294 57.1787 16.7001Z" fill="#1B212B"/>
<path d="M51.6464 19V16.3785H53.0882V16.6493H51.9383V17.4282H53.0012V17.6996H51.9383V18.7284H53.0882V19H51.6464Z" fill="#1B212B"/>
<path d="M6.87007 16.3764V18.7284H7.5944V19H6.57739V16.3764H6.87007Z" fill="#1B212B"/>
<path d="M35.0168 16.6475V18.9996H34.7242V16.6475H34.0901V16.3758H35.6575V16.6475H35.0168Z" fill="#1B212B"/>
<path d="M25.7619 16.6467V17.5897H25.8524C26.055 17.5897 26.207 17.5622 26.3091 17.506C26.4487 17.4321 26.5178 17.3035 26.5178 17.1202C26.5178 16.9251 26.4508 16.792 26.316 16.7201C26.2206 16.6711 26.0653 16.6467 25.849 16.6467H25.7619ZM25.7619 17.8473V19H25.4694V16.3751H25.849C26.4901 16.3751 26.8111 16.6162 26.8111 17.0989C26.8111 17.3012 26.7513 17.4684 26.6329 17.6006C26.5148 17.7324 26.3542 17.8067 26.152 17.823L26.9884 19H26.6297L25.8352 17.8473H25.7619Z" fill="#1B212B"/>
<path d="M47.5339 16.6467V17.5897H47.624C47.8264 17.5897 47.9787 17.5622 48.0805 17.506C48.2207 17.4321 48.2896 17.3035 48.2896 17.1202C48.2896 16.9251 48.2222 16.792 48.0876 16.7201C47.9921 16.6711 47.8371 16.6467 47.6206 16.6467H47.5339ZM47.5339 17.8473V19H47.2413V16.3751H47.6206C48.2619 16.3751 48.5825 16.6162 48.5825 17.0989C48.5825 17.3012 48.5231 17.4684 48.4047 17.6006C48.2865 17.7324 48.126 17.8067 47.9237 17.823L48.7604 19H48.4013L47.6069 17.8473H47.5339Z" fill="#1B212B"/>
<path d="M62.802 0.845786L56.8904 8.45393V14.1866H54.88V8.45393L48.9688 0.845786H51.29L55.8852 6.79055L60.4805 0.845786H62.802Z" fill="#1B212B"/>
</svg>
