<svg width="82" height="29" viewBox="0 0 82 29" fill="none" xmlns="http://www.w3.org/2000/svg">
<path d="M48.4697 5.22014C49.1532 6.62576 49.2214 8.56513 48.6828 10.0568C48.2729 11.3581 47.5893 12.5482 46.8539 13.7113C47.8197 13.7287 48.6578 13.3149 49.5295 13.0393C49.3328 13.9964 48.7683 14.8153 48.3842 15.6941H43.1106C45.3668 12.7898 47.6661 9.08235 45.8544 5.28968C44.7436 3.39291 42.8293 2.05595 40.6154 2.22025C38.462 2.34108 36.3508 4.0214 35.6758 6.08246C34.4287 9.763 36.4198 13.0132 38.5733 15.7376H33.4628C33.0779 14.85 32.5143 14.0399 32.3175 13.0741C33.1892 13.3497 34.0265 13.7634 34.9923 13.746C33.4456 11.3668 31.9412 8.37563 33.1979 5.40964C34.326 2.56448 37.2743 0.685968 40.2141 0.512981C43.6837 0.33217 46.948 2.04726 48.4697 5.22014Z" fill="#AA273F"/>
<path d="M6.66861 18.554H8.70295L3.52864 28.0005H1.66347L0.5 18.554H2.59907L3.09795 25.7108H3.12384" fill="black"/>
<path d="M9.74731 28.0005H7.79065L9.78356 18.554H11.7402L9.74731 28.0005Z" fill="black"/>
<path d="M15.5482 28.0005H13.5916L15.2323 20.2248H12.4022L12.7544 18.554H20.3713L20.0183 20.2248H17.1881" fill="black"/>
<path d="M20.8658 28.0005H18.8047L24.1361 18.554H26.3931L27.6998 28.0005H25.574L25.385 26.0533H21.9283L20.8658 28.0005ZM22.7948 24.4217H25.1813L24.8084 20.6846H24.7826L22.7948 24.4217Z" fill="black"/>
<path d="M30.9418 18.554H35.4938C37.7888 18.554 38.0701 20.0005 37.8647 20.9741C37.579 22.3293 36.7418 22.7109 36.3094 22.9091C37.365 23.3429 37.4712 24.2635 37.2735 25.1979C37.1156 25.9481 36.6529 26.6583 36.0548 27.1451C35.4092 27.671 34.8309 28.0005 32.914 28.0005H28.9489L30.9418 18.554ZM31.1713 26.3689H33.5708C34.5228 26.3689 35.1598 25.9481 35.3626 24.9876C35.5369 24.1583 34.8991 23.8427 34.1948 23.8427H31.7039L31.1713 26.3689ZM32.0396 22.2511H34.3355C35.1045 22.2511 35.7812 21.9486 35.94 21.1984C36.1031 20.4221 35.606 20.1857 34.7187 20.1857H32.4755" fill="black"/>
<path d="M40.1622 28.0005H38.2056L40.1985 18.554H42.1551L40.1622 28.0005Z" fill="black"/>
<path d="M48.1132 18.3037C49.3517 18.3037 52.4986 18.8435 51.563 23.2769C50.6283 27.7111 47.2535 28.25 46.0141 28.25C44.7755 28.25 41.6287 27.7111 42.5643 23.2769C43.4999 18.8435 46.8738 18.3037 48.1132 18.3037ZM46.3671 26.5793C47.4236 26.5793 49.0488 25.9212 49.6072 23.2769C50.1648 20.6325 48.8166 19.9745 47.7602 19.9745C46.7037 19.9745 45.0785 20.6325 44.5201 23.2769C43.9625 25.9212 45.3107 26.5793 46.3671 26.5793Z" fill="black"/>
<path d="M56.1055 28.0005H54.1488L55.7896 20.2248H52.9595L53.3116 18.554H60.9285L60.5755 20.2248H57.7454" fill="black"/>
<path d="M61.8927 28.0005H59.936L61.9289 18.554H63.8856L61.8927 28.0005Z" fill="black"/>
<path d="M71.0296 21.6452C70.9924 21.0802 70.9173 20.0145 69.2999 20.0145C68.3608 20.0145 66.8452 20.6456 66.2816 23.316C65.9234 25.0137 66.2669 26.5401 67.9232 26.5401C69.0056 26.5401 69.892 25.9212 70.3719 24.7633H72.3277C71.5034 26.8166 69.8704 28.25 67.5236 28.25C65.0318 28.25 63.6034 26.5532 64.2913 23.2899C64.9887 19.9875 67.2345 18.3037 69.6477 18.3037C72.4519 18.3037 73.1752 20.2509 72.9853 21.6452" fill="black"/>
<path d="M75.1379 25.0928C75.0395 25.6187 75.0895 26.6184 76.7985 26.6184C77.7237 26.6184 78.8018 26.395 79.0123 25.3953C79.1677 24.6582 78.5057 24.4608 77.5641 24.2244L76.6103 23.9871C75.1715 23.6324 73.7837 23.2899 74.2221 21.2115C74.4439 20.1588 75.3959 18.3037 78.4349 18.3037C81.3039 18.3037 81.6742 20.1987 81.4429 21.3558H79.5647C79.6019 20.935 79.6562 19.9354 77.9473 19.9354C77.2041 19.9354 76.259 20.2118 76.0787 21.0672C75.9233 21.8034 76.4895 21.9616 76.8615 22.0538L79.0244 22.6197C80.2362 22.9352 81.2987 23.4612 80.9405 25.1589C80.3415 28.0005 77.4191 28.25 76.5974 28.25C73.1803 28.25 73.0129 26.2637 73.2597 25.0928" fill="black"/>
</svg>
