<svg width="40" height="40" viewBox="0 0 40 40" fill="none" xmlns="http://www.w3.org/2000/svg">
<rect width="40" height="40" rx="20" fill="#024650"/>
<path d="M28.666 15.2754C28.4668 14.4785 27.8359 13.8477 27.0723 13.6484C25.6445 13.25 20 13.25 20 13.25C20 13.25 14.3223 13.25 12.8945 13.6484C12.1309 13.8477 11.5 14.4785 11.3008 15.2754C10.9023 16.6699 10.9023 19.6582 10.9023 19.6582C10.9023 19.6582 10.9023 22.6133 11.3008 24.041C11.5 24.8379 12.1309 25.4355 12.8945 25.6348C14.3223 26 20 26 20 26C20 26 25.6445 26 27.0723 25.6348C27.8359 25.4355 28.4668 24.8379 28.666 24.041C29.0645 22.6133 29.0645 19.6582 29.0645 19.6582C29.0645 19.6582 29.0645 16.6699 28.666 15.2754ZM18.1406 22.3477V16.9688L22.8555 19.6582L18.1406 22.3477Z" fill="white"/>
</svg>
